<svg width="48" height="48" viewBox="0 0 48 48" fill="none" xmlns="http://www.w3.org/2000/svg">
<path d="M25.7747 0.0502536C12.682 -0.794644 1.38198 9.11485 0.537236 22.1819C0.146519 28.2063 2.05127 33.848 5.49717 38.2656L1.47614 45.3861C1.00348 46.223 1.86865 47.1798 2.74881 46.7935L10.8008 43.2592C14.2123 45.6007 18.2805 47.0865 22.7122 47.3717C35.8049 48.2166 47.1049 38.3071 47.9496 25.2401C48.7962 12.1731 38.8673 0.89515 25.7747 0.052058V0.0502536Z" fill="white"/>
<path d="M14.375 17V31C14.375 31.4641 14.5594 31.9092 14.8876 32.2374C15.2158 32.5656 15.6609 32.75 16.125 32.75H33.625C33.8571 32.75 34.0796 32.6578 34.2437 32.4937C34.4078 32.3296 34.5 32.1071 34.5 31.875V19.625C34.5 19.3929 34.4078 19.1704 34.2437 19.0063C34.0796 18.8422 33.8571 18.75 33.625 18.75H16.125C15.6609 18.75 15.2158 18.5656 14.8876 18.2374C14.5594 17.9092 14.375 17.4641 14.375 17ZM14.375 17C14.375 16.5359 14.5594 16.0908 14.8876 15.7626C15.2158 15.4344 15.6609 15.25 16.125 15.25H31" stroke="#1A1A1A" stroke-width="2" stroke-linecap="round" stroke-linejoin="round"/>
<path d="M29.6875 27.0625C30.4124 27.0625 31 26.4749 31 25.75C31 25.0251 30.4124 24.4375 29.6875 24.4375C28.9626 24.4375 28.375 25.0251 28.375 25.75C28.375 26.4749 28.9626 27.0625 29.6875 27.0625Z" fill="#1A1A1A"/>
</svg>
