<svg width="48" height="48" viewBox="0 0 48 48" fill="none" xmlns="http://www.w3.org/2000/svg">
<path d="M25.7747 0.0502536C12.682 -0.794644 1.38198 9.11485 0.537236 22.1819C0.146519 28.2063 2.05127 33.848 5.49717 38.2656L1.47614 45.3861C1.00348 46.223 1.86865 47.1798 2.74881 46.7935L10.8008 43.2592C14.2123 45.6007 18.2805 47.0865 22.7122 47.3717C35.8049 48.2166 47.1049 38.3071 47.9496 25.2401C48.7962 12.1731 38.8673 0.89515 25.7747 0.052058V0.0502536Z" fill="white"/>
<path d="M20.2876 30.1872C19.0502 33.8995 14.1005 33.8995 14.1005 33.8995C14.1005 33.8995 14.1005 28.9497 17.8128 27.7123" stroke="#1A1A1A" stroke-width="2" stroke-linecap="round" stroke-linejoin="round"/>
<path d="M31.4247 21.5251L24 28.9497L19.0503 24L26.4749 16.5753C29.2863 13.7639 32.0977 13.7914 33.2967 13.9703C33.4813 13.9978 33.6522 14.0839 33.7842 14.2158C33.9161 14.3478 34.0022 14.5187 34.0297 14.7033C34.2086 15.9023 34.2361 18.7137 31.4247 21.5251Z" stroke="#1A1A1A" stroke-width="2" stroke-linecap="round" stroke-linejoin="round"/>
<path d="M30.1872 22.7626V29.8248C30.1872 29.9397 30.1646 30.0534 30.1206 30.1596C30.0766 30.2658 30.0122 30.3622 29.9309 30.4435L26.3935 33.9809C26.2815 34.0928 26.1413 34.1723 25.9876 34.2109C25.834 34.2494 25.6728 34.2455 25.5212 34.1996C25.3697 34.1537 25.2334 34.0675 25.1269 33.9503C25.0205 33.833 24.9479 33.689 24.9168 33.5337L24 28.9498" stroke="#1A1A1A" stroke-width="2" stroke-linecap="round" stroke-linejoin="round"/>
<path d="M25.2374 17.8129H18.1752C18.0603 17.8129 17.9465 17.8355 17.8403 17.8795C17.7342 17.9234 17.6377 17.9879 17.5565 18.0691L14.0191 21.6065C13.9071 21.7185 13.8276 21.8588 13.7891 22.0124C13.7506 22.166 13.7545 22.3272 13.8004 22.4788C13.8463 22.6304 13.9324 22.7667 14.0497 22.8731C14.167 22.9796 14.3109 23.0522 14.4662 23.0833L19.0502 24.0001" stroke="#1A1A1A" stroke-width="2" stroke-linecap="round" stroke-linejoin="round"/>
</svg>
