<svg width="48" height="48" viewBox="0 0 48 48" fill="none" xmlns="http://www.w3.org/2000/svg">
<path d="M25.7747 0.0502536C12.682 -0.794644 1.38198 9.11485 0.537236 22.1819C0.146519 28.2063 2.05127 33.848 5.49717 38.2656L1.47614 45.3861C1.00348 46.223 1.86865 47.1798 2.74881 46.7935L10.8008 43.2592C14.2123 45.6007 18.2805 47.0865 22.7122 47.3717C35.8049 48.2166 47.1049 38.3071 47.9496 25.2401C48.7962 12.1731 38.8673 0.89515 25.7747 0.052058V0.0502536Z" fill="white"/>
<path d="M29.25 27.4994V36.2499L23.9992 33.6249L18.75 36.2499V27.5002" stroke="#1A1A1A" stroke-width="2" stroke-linecap="round" stroke-linejoin="round"/>
<path d="M23.9993 29.25C28.8318 29.25 32.7493 25.3325 32.7493 20.5C32.7493 15.6675 28.8318 11.75 23.9993 11.75C19.1668 11.75 15.2493 15.6675 15.2493 20.5C15.2493 25.3325 19.1668 29.25 23.9993 29.25Z" stroke="#1A1A1A" stroke-width="2" stroke-linecap="round" stroke-linejoin="round"/>
<path d="M23.9993 25.75C26.8988 25.75 29.2493 23.3995 29.2493 20.5C29.2493 17.6005 26.8988 15.25 23.9993 15.25C21.0998 15.25 18.7493 17.6005 18.7493 20.5C18.7493 23.3995 21.0998 25.75 23.9993 25.75Z" stroke="#1A1A1A" stroke-width="2" stroke-linecap="round" stroke-linejoin="round"/>
</svg>
