<svg width="529" height="392" viewBox="0 0 529 392" fill="none" xmlns="http://www.w3.org/2000/svg">
<path d="M0 212.5L71.5 0H212.5C212.5 0 295 5 295 96.5C295 126 267 153.5 267 153.5C267 153.5 307 183.5 307 221.5C307 308.5 225.5 315 225.5 315H82L119.5 248.5H192C192 248.5 214.5 244.5 216 217C217.5 189.5 192 183.5 192 183.5H145.5L175.5 126C175.5 126 212.5 125 212.5 96.5C212.5 68 189 62.5 189 62.5H142.5L111 134.5L153 126L9.5 392L56 196.5L0 212.5Z" fill="#91EE22"/>
<path d="M266 0H528.5L503.5 74.5H348V119H456L439 193H348V355.5L294.5 311.5C294.5 311.5 330 279 330 238C330 180.5 296.5 157 296.5 157C296.5 157 318 140 318 79.5C318 28.5 266 0 266 0Z" fill="#91EE22"/>
</svg>
