<svg width="24" height="24" viewBox="0 0 24 24" fill="none" xmlns="http://www.w3.org/2000/svg">
<path d="M22.5656 11.4188L20.25 12.5719L17.25 6.83444L19.5938 5.66257C19.7679 5.57378 19.9701 5.55747 20.1563 5.61718C20.3425 5.67689 20.4975 5.80778 20.5875 5.98132L22.8937 10.3969C22.9405 10.4853 22.9691 10.5822 22.9779 10.6818C22.9867 10.7814 22.9755 10.8818 22.9449 10.977C22.9143 11.0722 22.865 11.1603 22.7999 11.2362C22.7348 11.3121 22.6551 11.3742 22.5656 11.4188V11.4188Z" stroke="#1A1A1A" stroke-width="1.5" stroke-linecap="round" stroke-linejoin="round"/>
<path d="M3.75008 12.4781L1.43446 11.3156C1.3453 11.2719 1.26584 11.2107 1.20079 11.1357C1.13575 11.0607 1.08646 10.9734 1.05585 10.8789C1.02524 10.7844 1.01393 10.6848 1.02261 10.5859C1.03128 10.487 1.05975 10.3908 1.10633 10.3031L3.41258 5.88749C3.5028 5.71408 3.65716 5.58275 3.84277 5.52146C4.02839 5.46017 4.2306 5.47377 4.40633 5.55937L6.75009 6.73124L3.75008 12.4781Z" stroke="#1A1A1A" stroke-width="1.5" stroke-linecap="round" stroke-linejoin="round"/>
<path d="M20.25 12.5718L18.75 14.3343L15.3 17.7843C15.206 17.8722 15.092 17.936 14.968 17.9703C14.8439 18.0046 14.7133 18.0083 14.5875 17.9812L9.15 16.6218C9.05067 16.5941 8.95812 16.5462 8.87812 16.4812L3.75 12.478" stroke="#1A1A1A" stroke-width="1.5" stroke-linecap="round" stroke-linejoin="round"/>
<path d="M18.7501 14.3345L14.6251 11.3345L13.4251 12.2345C12.9052 12.6225 12.2738 12.8321 11.6251 12.8321C10.9763 12.8321 10.345 12.6225 9.82508 12.2345L9.31883 11.8501C9.23323 11.785 9.16242 11.7025 9.1111 11.608C9.05978 11.5135 9.02911 11.4092 9.02113 11.3019C9.01316 11.1947 9.02805 11.087 9.06483 10.9859C9.1016 10.8849 9.15942 10.7928 9.23446 10.7157L12.9095 7.0501C12.9785 6.98141 13.0604 6.927 13.1505 6.89C13.2406 6.853 13.3371 6.83414 13.4345 6.83448H17.2501" stroke="#1A1A1A" stroke-width="1.5" stroke-linecap="round" stroke-linejoin="round"/>
<path d="M6.80615 6.73121L11.6155 5.32496C11.7864 5.27595 11.9692 5.28924 12.1312 5.36246L15.3749 6.83433" stroke="#1A1A1A" stroke-width="1.5" stroke-linecap="round" stroke-linejoin="round"/>
<path d="M10.5 19.9594L7.67813 19.2469C7.56313 19.2209 7.45666 19.166 7.36875 19.0875L5.25 17.25" stroke="#1A1A1A" stroke-width="1.5" stroke-linecap="round" stroke-linejoin="round"/>
</svg>
