<svg width="34" height="34" viewBox="0 0 34 34" fill="none" xmlns="http://www.w3.org/2000/svg">
<circle cx="17" cy="17" r="17" fill="#1A1A1A"/>
<path fill-rule="evenodd" clip-rule="evenodd" d="M12.0527 5.072C13.3324 5.01309 13.7404 5 17 5C20.2596 5 20.6676 5.01418 21.9462 5.072C23.2247 5.12982 24.0975 5.33382 24.8611 5.62945C25.6607 5.93164 26.3862 6.404 26.9862 7.01491C27.5971 7.61382 28.0684 8.33818 28.3695 9.13891C28.6662 9.90255 28.8691 10.7753 28.928 12.0516C28.9869 13.3335 29 13.7415 29 17C29 20.2596 28.9858 20.6676 28.928 21.9473C28.8702 23.2236 28.6662 24.0964 28.3695 24.86C28.0684 25.6608 27.5963 26.3864 26.9862 26.9862C26.3862 27.5971 25.6607 28.0684 24.8611 28.3695C24.0975 28.6662 23.2247 28.8691 21.9484 28.928C20.6676 28.9869 20.2596 29 17 29C13.7404 29 13.3324 28.9858 12.0527 28.928C10.7764 28.8702 9.90364 28.6662 9.14 28.3695C8.33919 28.0683 7.61362 27.5963 7.01382 26.9862C6.40332 26.3869 5.93089 25.6617 5.62945 24.8611C5.33382 24.0975 5.13091 23.2247 5.072 21.9484C5.01309 20.6665 5 20.2585 5 17C5 13.7404 5.01418 13.3324 5.072 12.0538C5.12982 10.7753 5.33382 9.90255 5.62945 9.13891C5.93133 8.33827 6.40413 7.61307 7.01491 7.01382C7.61386 6.40346 8.3387 5.93103 9.13891 5.62945C9.90255 5.33382 10.7753 5.13091 12.0516 5.072H12.0527ZM21.8491 7.232C20.5836 7.17418 20.204 7.16218 17 7.16218C13.796 7.16218 13.4164 7.17418 12.1509 7.232C10.9804 7.28545 10.3455 7.48073 9.92218 7.64545C9.36255 7.86364 8.96218 8.12218 8.54218 8.54218C8.14405 8.92951 7.83765 9.40104 7.64545 9.92218C7.48073 10.3455 7.28545 10.9804 7.232 12.1509C7.17418 13.4164 7.16218 13.796 7.16218 17C7.16218 20.204 7.17418 20.5836 7.232 21.8491C7.28545 23.0196 7.48073 23.6545 7.64545 24.0778C7.83745 24.5982 8.144 25.0705 8.54218 25.4578C8.92945 25.856 9.40182 26.1625 9.92218 26.3545C10.3455 26.5193 10.9804 26.7145 12.1509 26.768C13.4164 26.8258 13.7949 26.8378 17 26.8378C20.2051 26.8378 20.5836 26.8258 21.8491 26.768C23.0196 26.7145 23.6545 26.5193 24.0778 26.3545C24.6375 26.1364 25.0378 25.8778 25.4578 25.4578C25.856 25.0705 26.1625 24.5982 26.3545 24.0778C26.5193 23.6545 26.7145 23.0196 26.768 21.8491C26.8258 20.5836 26.8378 20.204 26.8378 17C26.8378 13.796 26.8258 13.4164 26.768 12.1509C26.7145 10.9804 26.5193 10.3455 26.3545 9.92218C26.1364 9.36255 25.8778 8.96218 25.4578 8.54218C25.0705 8.14408 24.5989 7.83768 24.0778 7.64545C23.6545 7.48073 23.0196 7.28545 21.8491 7.232ZM15.4673 20.6993C16.3233 21.0556 17.2764 21.1037 18.1639 20.8353C19.0514 20.567 19.8182 19.9988 20.3334 19.2279C20.8485 18.457 21.0801 17.5311 20.9884 16.6085C20.8968 15.6858 20.4876 14.8236 19.8309 14.1691C19.4123 13.7507 18.906 13.4303 18.3487 13.2311C17.7914 13.0318 17.1968 12.9586 16.6078 13.0167C16.0188 13.0748 15.45 13.2627 14.9423 13.5671C14.4347 13.8714 14.0008 14.2844 13.672 14.7766C13.3431 15.2687 13.1275 15.8276 13.0406 16.413C12.9536 16.9985 12.9976 17.596 13.1693 18.1624C13.341 18.7288 13.6362 19.2501 14.0335 19.6888C14.4309 20.1275 14.9205 20.4726 15.4673 20.6993ZM12.6385 12.6385C13.2113 12.0658 13.8913 11.6115 14.6396 11.3015C15.3879 10.9915 16.19 10.832 17 10.832C17.81 10.832 18.6121 10.9915 19.3604 11.3015C20.1087 11.6115 20.7887 12.0658 21.3615 12.6385C21.9342 13.2113 22.3885 13.8913 22.6985 14.6396C23.0085 15.3879 23.168 16.19 23.168 17C23.168 17.81 23.0085 18.6121 22.6985 19.3604C22.3885 20.1087 21.9342 20.7887 21.3615 21.3615C20.2047 22.5182 18.6359 23.168 17 23.168C15.3641 23.168 13.7953 22.5182 12.6385 21.3615C11.4818 20.2047 10.832 18.6359 10.832 17C10.832 15.3641 11.4818 13.7953 12.6385 12.6385ZM24.536 11.7505C24.6779 11.6167 24.7916 11.4557 24.8701 11.2771C24.9487 11.0985 24.9907 10.9059 24.9935 10.7108C24.9964 10.5157 24.9601 10.3221 24.8867 10.1412C24.8134 9.96044 24.7045 9.79619 24.5665 9.65822C24.4285 9.52026 24.2643 9.41137 24.0835 9.33802C23.9027 9.26467 23.709 9.22834 23.5139 9.23118C23.3188 9.23403 23.1263 9.27599 22.9477 9.35458C22.7691 9.43317 22.6081 9.54679 22.4742 9.68873C22.2138 9.96476 22.0712 10.3314 22.0768 10.7108C22.0823 11.0903 22.2355 11.4526 22.5038 11.7209C22.7721 11.9892 23.1345 12.1424 23.5139 12.148C23.8933 12.1535 24.26 12.0109 24.536 11.7505Z" fill="#91EE22"/>
</svg>
