<svg width="16" height="16" viewBox="0 0 16 16" fill="none" xmlns="http://www.w3.org/2000/svg">
<path d="M1.22154 15.0586H4.30565V5.07422H1.22154V15.0586Z" fill="#1A1A1A"/>
<path d="M0.941162 1.88672C0.941162 2.87109 1.73555 3.66797 2.76359 3.66797C3.7449 3.66797 4.53929 2.87109 4.53929 1.88672C4.53929 0.902344 3.7449 0.0585938 2.76359 0.0585938C1.73555 0.0585938 0.941162 0.902344 0.941162 1.88672Z" fill="#1A1A1A"/>
<path d="M12.8103 15.0586H15.9412V9.57422C15.9412 6.90234 15.3337 4.79297 12.2028 4.79297C10.7075 4.79297 9.67948 5.63672 9.25892 6.43359H9.21219V5.07422H6.26826V15.0586H9.35238V10.1367C9.35238 8.82422 9.58602 7.55859 11.2215 7.55859C12.8103 7.55859 12.8103 9.05859 12.8103 10.1836V15.0586Z" fill="#1A1A1A"/>
</svg>
