<svg width="40" height="40" viewBox="0 0 40 40" fill="none" xmlns="http://www.w3.org/2000/svg">
<g clip-path="url(#clip0_119_3146)">
<path d="M39.2119 35.0797V35.1594H39.2865C39.3005 35.1596 39.3143 35.1561 39.3265 35.1492C39.3313 35.1458 39.3353 35.1412 39.3379 35.1359C39.3405 35.1306 39.3417 35.1247 39.3415 35.1187C39.3417 35.1129 39.3405 35.1071 39.3379 35.1019C39.3352 35.0968 39.3313 35.0923 39.3265 35.0891C39.3144 35.0818 39.3005 35.0783 39.2865 35.0789H39.2119V35.0797ZM39.2873 35.0233C39.3193 35.0213 39.3509 35.0305 39.3769 35.0492C39.3873 35.0577 39.3955 35.0685 39.401 35.0807C39.4064 35.093 39.4089 35.1064 39.4083 35.1197C39.4088 35.1313 39.4067 35.1427 39.4024 35.1534C39.3981 35.1641 39.3915 35.1738 39.3831 35.1817C39.3631 35.199 39.3379 35.2094 39.3115 35.2114L39.4115 35.3249H39.3345L39.2425 35.2122H39.2127V35.3249H39.1483V35.0235H39.2883L39.2873 35.0233ZM39.2673 35.4289C39.3011 35.4293 39.3345 35.4225 39.3655 35.409C39.3953 35.3962 39.4225 35.3779 39.4455 35.355C39.4685 35.3322 39.4869 35.3051 39.4997 35.2753C39.5259 35.2122 39.5259 35.1412 39.4997 35.0781C39.4867 35.0484 39.4684 35.0214 39.4455 34.9984C39.4225 34.9755 39.3953 34.9572 39.3655 34.9444C39.3343 34.9317 39.3009 34.9253 39.2673 34.9257C39.233 34.9254 39.1991 34.9317 39.1673 34.9444C39.1368 34.957 39.109 34.9753 39.0855 34.9984C39.0501 35.0346 39.0262 35.0803 39.0167 35.1299C39.0072 35.1795 39.0125 35.2307 39.0321 35.2773C39.0443 35.3072 39.0624 35.3343 39.0855 35.357C39.109 35.3801 39.1368 35.3984 39.1673 35.411C39.1989 35.4244 39.2329 35.4312 39.2673 35.4309V35.4289ZM39.2673 34.8532C39.3552 34.8531 39.4396 34.8874 39.5023 34.9488C39.5325 34.9783 39.5566 35.0134 39.5731 35.0522C39.5902 35.092 39.599 35.1349 39.599 35.1782C39.599 35.2215 39.5902 35.2644 39.5731 35.3042C39.5562 35.3428 39.5322 35.3779 39.5023 35.4076C39.4716 35.4369 39.4359 35.4605 39.3969 35.4773C39.3559 35.4947 39.3118 35.5035 39.2673 35.5032C39.2222 35.5036 39.1776 35.4948 39.1361 35.4773C39.0966 35.4609 39.0606 35.4373 39.0299 35.4076C39 35.3768 38.9763 35.3405 38.9601 35.3008C38.943 35.261 38.9342 35.2181 38.9342 35.1748C38.9342 35.1315 38.943 35.0886 38.9601 35.0488C38.9766 35.01 39.0006 34.9749 39.0309 34.9454C39.0612 34.9152 39.0973 34.8915 39.1371 34.8757C39.1786 34.8583 39.2232 34.8495 39.2683 34.8498L39.2673 34.8532ZM8.64329 33.6891C8.64329 33.1143 9.02129 32.6421 9.63909 32.6421C10.2295 32.6421 10.6279 33.094 10.6279 33.6891C10.6279 34.2842 10.2295 34.736 9.63909 34.736C9.02129 34.736 8.64329 34.2638 8.64329 33.6891ZM11.3009 33.6891V32.0534H10.5871V32.4519C10.3607 32.1574 10.0173 31.9727 9.55029 31.9727C8.63029 31.9727 7.90829 32.6915 7.90829 33.6899C7.90829 34.6882 8.62989 35.407 9.55029 35.407C10.0171 35.407 10.3607 35.2221 10.5871 34.9279V35.3249H11.3001V33.6891H11.3009ZM35.4193 33.6891C35.4193 33.1143 35.7973 32.6421 36.4153 32.6421C37.0063 32.6421 37.4041 33.094 37.4041 33.6891C37.4041 34.2842 37.0063 34.736 36.4153 34.736C35.7975 34.736 35.4193 34.2638 35.4193 33.6891ZM38.0777 33.6891V30.7405H37.3633V32.4519C37.1369 32.1574 36.7935 31.9727 36.3265 31.9727C35.4065 31.9727 34.6845 32.6915 34.6845 33.6899C34.6845 34.6882 35.4061 35.407 36.3265 35.407C36.7935 35.407 37.1369 35.2221 37.3633 34.9279V35.3249H38.0777V33.6891ZM20.1601 32.6085C20.6201 32.6085 20.9155 32.8957 20.9909 33.4016H19.2877C19.3639 32.9294 19.6517 32.6085 20.1603 32.6085H20.1601ZM20.1745 31.9709C19.2125 31.9709 18.5395 32.6682 18.5395 33.6881C18.5395 34.7279 19.2395 35.4052 20.2223 35.4052C20.7167 35.4052 21.1695 35.2823 21.5679 34.947L21.2181 34.42C20.9429 34.6392 20.5925 34.7621 20.2631 34.7621C19.8031 34.7621 19.3843 34.5499 19.2813 33.9612H21.7187C21.7257 33.8728 21.7329 33.7835 21.7329 33.6879C21.7257 32.6684 21.0929 31.9707 20.1741 31.9707L20.1745 31.9709ZM28.7921 33.6879C28.7921 33.1131 29.1701 32.6409 29.7879 32.6409C30.3783 32.6409 30.7767 33.0928 30.7767 33.6879C30.7767 34.283 30.3783 34.7348 29.7879 34.7348C29.1701 34.7348 28.7919 34.2627 28.7919 33.6879H28.7921ZM31.4495 33.6879V32.0534H30.7361V32.4519C30.5089 32.1574 30.1663 31.9727 29.6993 31.9727C28.7793 31.9727 28.0573 32.6915 28.0573 33.6899C28.0573 34.6882 28.7789 35.407 29.6993 35.407C30.1663 35.407 30.5089 35.2221 30.7361 34.9279V35.3249H31.4497V33.6891L31.4495 33.6879ZM24.7611 33.6879C24.7611 34.6798 25.4543 35.405 26.5123 35.405C27.0067 35.405 27.3361 35.2955 27.6923 35.0151L27.3495 34.4404C27.0815 34.6322 26.8001 34.7348 26.4895 34.7348C25.9197 34.7278 25.5007 34.3174 25.5007 33.6879C25.5007 33.0583 25.9197 32.6481 26.4895 32.6409C26.7993 32.6409 27.0807 32.7435 27.3495 32.9354L27.6923 32.3606C27.3355 32.0803 27.0061 31.9707 26.5123 31.9707C25.4543 31.9707 24.7611 32.6957 24.7611 33.6879ZM33.9631 31.9707C33.5513 31.9707 33.2831 32.1626 33.0977 32.4499V32.0534H32.3903V35.3231H33.1049V33.4902C33.1049 32.9491 33.3383 32.6485 33.8049 32.6485C33.9577 32.6463 34.1094 32.6743 34.2513 32.7308L34.4713 32.0606C34.3133 31.9986 34.1073 31.9713 33.9627 31.9713L33.9631 31.9707ZM14.8299 32.3134C14.4865 32.0879 14.0133 31.9713 13.4913 31.9713C12.6597 31.9713 12.1243 32.3684 12.1243 33.0181C12.1243 33.5512 12.5229 33.8801 13.2569 33.9827L13.5941 34.0305C13.9855 34.0853 14.1703 34.1879 14.1703 34.3726C14.1703 34.6254 13.9103 34.7697 13.4221 34.7697C12.9277 34.7697 12.5709 34.6123 12.3303 34.4276L11.9949 34.9821C12.3863 35.2694 12.8807 35.4064 13.4161 35.4064C14.3641 35.4064 14.9135 34.9617 14.9135 34.3392C14.9135 33.7644 14.4811 33.4637 13.7667 33.3611L13.4303 33.3125C13.1213 33.2727 12.8737 33.2107 12.8737 32.9916C12.8737 32.7525 13.1071 32.6086 13.4987 32.6086C13.9177 32.6086 14.3233 32.766 14.5221 32.889L14.8311 32.3142L14.8299 32.3134ZM24.0401 31.9719C23.6283 31.9719 23.3601 32.1638 23.1755 32.4511V32.0534H22.4681V35.3231H23.1819V33.4902C23.1819 32.9491 23.4153 32.6485 23.8819 32.6485C24.0347 32.6463 24.1864 32.6743 24.3283 32.7308L24.5483 32.0606C24.3903 31.9986 24.1843 31.9713 24.0397 31.9713L24.0401 31.9719ZM17.9489 32.0534H16.7817V31.0614H16.0601V32.0534H15.3943V32.7033H16.0601V34.1949C16.0601 34.9536 16.3557 35.4054 17.2001 35.4054C17.5099 35.4054 17.8667 35.3098 18.0931 35.1526L17.8869 34.5438C17.6739 34.6667 17.4405 34.7286 17.2549 34.7286C16.8981 34.7286 16.7817 34.5095 16.7817 34.1814V32.7039H17.9489V32.0534ZM7.27709 35.3239V33.2719C7.27709 32.4991 6.78269 31.9791 5.98569 31.9721C5.56669 31.9651 5.13449 32.095 4.83189 32.5539C4.60549 32.1913 4.24869 31.9721 3.74709 31.9721C3.39649 31.9721 3.05389 32.0747 2.78569 32.4576V32.0534H2.07129V35.3231H2.79129V33.5102C2.79129 32.9426 3.10729 32.6409 3.59529 32.6409C4.06929 32.6409 4.30909 32.9487 4.30909 33.503V35.3227H5.03069V33.5098C5.03069 32.9422 5.36009 32.6405 5.83389 32.6405C6.32129 32.6405 6.55389 32.9483 6.55389 33.5026V35.3223L7.27709 35.3239Z" fill="white"/>
<path d="M39.619 24.4471V23.969H39.494L39.3494 24.2971L39.2056 23.969H39.0802V24.4471H39.169V24.0869L39.3042 24.3977H39.3962L39.5314 24.0861V24.4471H39.6194H39.619ZM38.826 24.4471V24.0509H38.986V23.9702H38.5771V24.0509H38.7371V24.4471H38.8252H38.826Z" fill="white"/>
<path d="M25.4109 26.4978H14.5938V7.13281H25.4111L25.4109 26.4978Z" fill="white" fill-opacity="0.7"/>
<path d="M15.28 16.8157C15.28 12.8875 17.1264 9.38829 20.0016 7.13322C17.8252 5.42373 15.1334 4.49593 12.3618 4.50001C5.5344 4.50001 0 10.0139 0 16.8157C0 23.6176 5.5344 29.1314 12.3618 29.1314C15.1334 29.1356 17.8254 28.2078 20.0018 26.4982C17.1268 24.2436 15.28 20.7441 15.28 16.8157Z" fill="white"/>
<path d="M40.0047 16.8157C40.0047 23.6176 34.4703 29.1315 27.643 29.1315C24.871 29.1355 22.1788 28.2077 20.002 26.4982C22.878 24.2432 24.7244 20.7441 24.7244 16.8157C24.7244 12.8873 22.878 9.38829 20.002 7.13322C22.1787 5.42378 24.8709 4.49601 27.6428 4.50001C34.4701 4.50001 40.0045 10.0139 40.0045 16.8157" fill="white"/>
</g>
<defs>
<clipPath id="clip0_119_3146">
<rect width="40" height="40" fill="white"/>
</clipPath>
</defs>
</svg>
