<svg width="48" height="48" viewBox="0 0 48 48" fill="none" xmlns="http://www.w3.org/2000/svg">
<path d="M25.7747 0.0502536C12.682 -0.794644 1.38198 9.11485 0.537236 22.1819C0.146519 28.2063 2.05127 33.848 5.49717 38.2656L1.47614 45.3861C1.00348 46.223 1.86865 47.1798 2.74881 46.7935L10.8008 43.2592C14.2123 45.6007 18.2805 47.0865 22.7122 47.3717C35.8049 48.2166 47.1049 38.3071 47.9496 25.2401C48.7962 12.1731 38.8673 0.89515 25.7747 0.052058V0.0502536Z" fill="white"/>
<path d="M14.9361 31.4394C14.9634 31.5544 15.0137 31.6627 15.0839 31.7578C15.1541 31.8529 15.2429 31.9328 15.3448 31.9927C15.4467 32.0526 15.5597 32.0912 15.6769 32.1063C15.7941 32.1214 15.9132 32.1127 16.027 32.0805C21.243 30.6404 26.7517 30.6398 31.968 32.079C32.0817 32.1111 32.2007 32.1199 32.3179 32.1048C32.4351 32.0897 32.5481 32.051 32.6499 31.9912C32.7518 31.9313 32.8405 31.8514 32.9108 31.7564C32.981 31.6614 33.0313 31.5531 33.0586 31.4382L35.8464 19.591C35.8837 19.4324 35.876 19.2665 35.8242 19.1121C35.7723 18.9576 35.6783 18.8207 35.5529 18.7167C35.4274 18.6128 35.2754 18.546 35.114 18.5237C34.9526 18.5015 34.7882 18.5248 34.6393 18.591L29.1067 21.0499C28.9069 21.1387 28.6811 21.1495 28.4738 21.0802C28.2665 21.0108 28.0926 20.8664 27.9864 20.6753L24.7651 14.8768C24.6893 14.7404 24.5784 14.6268 24.4439 14.5476C24.3094 14.4685 24.1562 14.4268 24.0002 14.4268C23.8441 14.4268 23.6909 14.4685 23.5565 14.5476C23.422 14.6268 23.3111 14.7404 23.2353 14.8768L20.014 20.6753C19.9078 20.8664 19.7339 21.0108 19.5266 21.0801C19.3193 21.1495 19.0935 21.1387 18.8937 21.0499L13.3603 18.5906C13.2114 18.5244 13.047 18.5012 12.8856 18.5234C12.7243 18.5456 12.5723 18.6124 12.4468 18.7163C12.3213 18.8202 12.2274 18.957 12.1755 19.1114C12.1236 19.2658 12.1158 19.4317 12.1531 19.5903L14.9361 31.4394Z" stroke="#1A1A1A" stroke-width="2" stroke-linecap="round" stroke-linejoin="round"/>
<path d="M20.5 27.6836C22.8269 27.4388 25.1731 27.4388 27.5 27.6836" stroke="#1A1A1A" stroke-width="2" stroke-linecap="round" stroke-linejoin="round"/>
</svg>
