<svg width="52" height="52" xmlns="http://www.w3.org/2000/svg" xmlns:svg="http://www.w3.org/2000/svg">
  <path d="m27.92,0.05c-14.18,-0.91 -26.42,9.82 -27.34,23.98c-0.42,6.53 1.64,12.64 5.38,17.42l-4.48,7.94c-0.48,0.83 0.39,1.79 1.27,1.4l8.95,-3.93c3.7,2.54 8.1,4.15 12.9,4.46c14.19,0.91 26.43,-9.82 27.35,-23.98c0.91,-14.15 -9.84,-26.37 -24.03,-27.28l0,-0.01z" fill="#1A1A1A" id="svg_1"/>
  <path d="m31.25,31.25l-10.7,0l-2.62,-14.38c-0.03,-0.18 -0.12,-0.33 -0.26,-0.45c-0.13,-0.11 -0.3,-0.17 -0.48,-0.17l-1.69,0" id="svg_2" stroke="#91EE22" stroke-linecap="round" stroke-linejoin="round" stroke-width="2"/>
  <path d="m21.5,35c1.04,0 1.88,-0.84 1.88,-1.87c0,-1.04 -0.84,-1.88 -1.88,-1.88c-1.04,0 -1.87,0.84 -1.87,1.88c0,1.03 0.83,1.87 1.87,1.87z" id="svg_3" stroke="#91EE22" stroke-linecap="round" stroke-linejoin="round" stroke-width="2"/>
  <path d="m31.25,35c1.04,0 1.88,-0.84 1.88,-1.87c0,-1.04 -0.84,-1.88 -1.88,-1.88c-1.04,0 -1.87,0.84 -1.87,1.88c0,1.03 0.83,1.87 1.87,1.87z" id="svg_4" stroke="#91EE22" stroke-linecap="round" stroke-linejoin="round" stroke-width="2"/>
  <path d="m21.86,27.5l9.77,0c0.36,0 0.7,-0.12 0.97,-0.35c0.27,-0.22 0.45,-0.54 0.51,-0.88l1.14,-6.27l-14.75,0" id="svg_5" stroke="#91EE22" stroke-linecap="round" stroke-linejoin="round" stroke-width="2"/>
</svg>