<svg width="25" height="24" viewBox="0 0 25 24" fill="none" xmlns="http://www.w3.org/2000/svg">
<path d="M17.75 17.25H7.04545L4.43015 2.86584C4.39873 2.69303 4.30766 2.53673 4.17281 2.42419C4.03796 2.31164 3.86789 2.25 3.69225 2.25H2" stroke="#91EE22" stroke-width="2" stroke-linecap="round" stroke-linejoin="round"/>
<path d="M8 21C9.03553 21 9.875 20.1605 9.875 19.125C9.875 18.0895 9.03553 17.25 8 17.25C6.96447 17.25 6.125 18.0895 6.125 19.125C6.125 20.1605 6.96447 21 8 21Z" stroke="#91EE22" stroke-width="2" stroke-linecap="round" stroke-linejoin="round"/>
<path d="M17.75 21C18.7855 21 19.625 20.1605 19.625 19.125C19.625 18.0895 18.7855 17.25 17.75 17.25C16.7145 17.25 15.875 18.0895 15.875 19.125C15.875 20.1605 16.7145 21 17.75 21Z" stroke="#91EE22" stroke-width="2" stroke-linecap="round" stroke-linejoin="round"/>
<path d="M6.36363 13.5H18.1345C18.4858 13.5 18.8259 13.3767 19.0956 13.1516C19.3653 12.9265 19.5475 12.6139 19.6103 12.2683L20.75 6H5" stroke="#91EE22" stroke-width="2" stroke-linecap="round" stroke-linejoin="round"/>
</svg>
