<svg width="20" height="20" viewBox="0 0 20 20" fill="none" xmlns="http://www.w3.org/2000/svg">
<path d="M6.87502 10.537L13.8998 16.7188C13.9811 16.7903 14.0795 16.8395 14.1855 16.8615C14.2916 16.8836 14.4015 16.8777 14.5045 16.8445C14.6075 16.8112 14.7002 16.7518 14.7734 16.672C14.8465 16.5922 14.8977 16.4948 14.9219 16.3892L17.8605 3.56637C17.8859 3.4555 17.8805 3.3398 17.8451 3.23174C17.8096 3.12368 17.7453 3.02735 17.6591 2.95314C17.5729 2.87892 17.4681 2.82963 17.3559 2.81059C17.2438 2.79154 17.1286 2.80345 17.0227 2.84504L2.60423 8.50945C2.47857 8.55882 2.37227 8.64755 2.30125 8.76236C2.23022 8.87718 2.19828 9.01191 2.21021 9.14639C2.22214 9.28087 2.27729 9.40788 2.36742 9.5084C2.45755 9.60892 2.5778 9.67755 2.71019 9.70403L6.87502 10.537Z" stroke="#1A1A1A" stroke-width="2" stroke-linecap="round" stroke-linejoin="round"/>
<path d="M6.875 10.5369L17.5088 2.85693" stroke="#1A1A1A" stroke-width="2" stroke-linecap="round" stroke-linejoin="round"/>
<path d="M10.3834 13.6245L7.94194 16.0659C7.85453 16.1533 7.74317 16.2128 7.62193 16.2369C7.50069 16.2611 7.37503 16.2487 7.26082 16.2014C7.14662 16.1541 7.04901 16.074 6.98033 15.9712C6.91166 15.8684 6.875 15.7476 6.875 15.624V10.5371" stroke="#1A1A1A" stroke-width="2" stroke-linecap="round" stroke-linejoin="round"/>
</svg>
