<svg width="32" height="32" viewBox="0 0 32 32" fill="none" xmlns="http://www.w3.org/2000/svg">
<g clip-path="url(#clip0_118_2384)">
<path d="M27.5481 25.8352C14.5945 31.9999 6.55541 26.842 1.40932 23.7092C1.09088 23.5118 0.549648 23.7554 1.01924 24.2948C2.73366 26.3736 8.35218 31.384 15.686 31.384C23.0248 31.384 27.3908 27.3796 27.9369 26.681C28.4794 25.9884 28.0962 25.6063 27.548 25.8352H27.5481ZM31.1861 23.8261C30.8382 23.3731 29.0708 23.2886 27.9586 23.4253C26.8446 23.558 25.1725 24.2388 25.3179 24.6476C25.3925 24.8007 25.5448 24.732 26.31 24.6632C27.0774 24.5866 29.2271 24.3153 29.675 24.9009C30.125 25.4905 28.9894 28.2992 28.782 28.7522C28.5816 29.2052 28.8585 29.322 29.2349 29.0203C29.6062 28.7187 30.2783 27.9377 30.7293 26.8324C31.1772 25.7212 31.4503 24.171 31.1859 23.8261H31.1861Z" fill="#FF9900"/>
<path fill-rule="evenodd" clip-rule="evenodd" d="M18.8381 13.256C18.8381 14.8735 18.8789 16.2225 18.0614 17.659C17.4015 18.827 16.3562 19.5452 15.1883 19.5452C13.594 19.5452 12.6655 18.3306 12.6655 16.5378C12.6655 12.999 15.8364 12.3567 18.8381 12.3567V13.256ZM23.025 23.3761C22.7505 23.6213 22.3534 23.6389 22.044 23.4753C20.6659 22.3308 20.4205 21.7994 19.6614 20.7073C17.384 23.0315 15.7722 23.7264 12.8174 23.7264C9.32531 23.7264 6.604 21.5716 6.604 17.2561C6.604 13.8867 8.43191 11.5917 11.0304 10.4705C13.2845 9.47768 16.4321 9.30252 18.8381 9.02815V8.49086C18.8381 7.50391 18.9139 6.33602 18.3359 5.48348C17.8277 4.71847 16.8584 4.40311 16.0057 4.40311C14.4233 4.40311 13.0101 5.21478 12.6655 6.89658C12.5954 7.2704 12.321 7.63833 11.9473 7.6558L7.91788 7.22375C7.57926 7.14768 7.20555 6.87331 7.29898 6.3535C8.22746 1.47168 12.6362 0 16.5838 0C18.6043 0 21.2438 0.537295 22.838 2.06732C24.8586 3.95346 24.6658 6.47031 24.6658 9.2091V15.6794C24.6658 17.624 25.4717 18.4765 26.2308 19.5277C26.4994 19.9014 26.5579 20.3512 26.2191 20.6314C25.3724 21.3379 23.8657 22.6519 23.0366 23.3878L23.0249 23.3761" fill="#1A1A1A"/>
<path d="M27.5481 25.8352C14.5945 31.9999 6.55541 26.842 1.40932 23.7092C1.09088 23.5118 0.549648 23.7554 1.01924 24.2948C2.73366 26.3736 8.35218 31.384 15.686 31.384C23.0248 31.384 27.3908 27.3796 27.9369 26.681C28.4794 25.9884 28.0962 25.6063 27.548 25.8352H27.5481ZM31.1861 23.8261C30.8382 23.3731 29.0708 23.2886 27.9586 23.4253C26.8446 23.558 25.1725 24.2388 25.3179 24.6476C25.3925 24.8007 25.5448 24.732 26.31 24.6632C27.0774 24.5866 29.2271 24.3153 29.675 24.9009C30.125 25.4905 28.9894 28.2992 28.782 28.7522C28.5816 29.2052 28.8585 29.322 29.2349 29.0203C29.6062 28.7187 30.2783 27.9377 30.7293 26.8324C31.1772 25.7212 31.4503 24.171 31.1859 23.8261H31.1861Z" fill="#FF9900"/>
<path fill-rule="evenodd" clip-rule="evenodd" d="M18.8381 13.256C18.8381 14.8735 18.8789 16.2225 18.0614 17.659C17.4015 18.827 16.3562 19.5452 15.1883 19.5452C13.594 19.5452 12.6655 18.3306 12.6655 16.5378C12.6655 12.999 15.8364 12.3567 18.8381 12.3567V13.256ZM23.025 23.3761C22.7505 23.6213 22.3534 23.6389 22.044 23.4753C20.6659 22.3308 20.4205 21.7994 19.6614 20.7073C17.384 23.0315 15.7722 23.7264 12.8174 23.7264C9.32531 23.7264 6.604 21.5716 6.604 17.2561C6.604 13.8867 8.43191 11.5917 11.0304 10.4705C13.2845 9.47768 16.4321 9.30252 18.8381 9.02815V8.49086C18.8381 7.50391 18.9139 6.33602 18.3359 5.48348C17.8277 4.71847 16.8584 4.40311 16.0057 4.40311C14.4233 4.40311 13.0101 5.21478 12.6655 6.89658C12.5954 7.2704 12.321 7.63833 11.9473 7.6558L7.91788 7.22375C7.57926 7.14768 7.20555 6.87331 7.29898 6.3535C8.22746 1.47168 12.6362 0 16.5838 0C18.6043 0 21.2438 0.537295 22.838 2.06732C24.8586 3.95346 24.6658 6.47031 24.6658 9.2091V15.6794C24.6658 17.624 25.4717 18.4765 26.2308 19.5277C26.4994 19.9014 26.5579 20.3512 26.2191 20.6314C25.3724 21.3379 23.8657 22.6519 23.0366 23.3878L23.0249 23.3761" fill="#1A1A1A"/>
</g>
<defs>
<clipPath id="clip0_118_2384">
<rect width="32" height="32" fill="white"/>
</clipPath>
</defs>
</svg>
