<svg width="33" height="32" viewBox="0 0 33 32" fill="none" xmlns="http://www.w3.org/2000/svg">
<path d="M16.4282 16V4" stroke="#1A1A1A" stroke-width="2" stroke-linecap="round" stroke-linejoin="round"/>
<path d="M26.8207 10L6.03613 22" stroke="#1A1A1A" stroke-width="2" stroke-linecap="round" stroke-linejoin="round"/>
<path d="M4.62833 18.1938C4.10877 15.3821 4.60865 12.4772 6.03821 10.0009C7.46776 7.52456 9.73333 5.63902 12.4281 4.68286V13.6906L4.62833 18.1938Z" stroke="#1A1A1A" stroke-width="2" stroke-linecap="round" stroke-linejoin="round"/>
<path d="M16.428 4C18.5304 4.00039 20.5958 4.55313 22.4174 5.60288C24.239 6.65263 25.7529 8.16254 26.8073 9.9814C27.8618 11.8003 28.4199 13.8643 28.4257 15.9667C28.4316 18.0691 27.885 20.1361 26.8406 21.9608C25.7963 23.7855 24.2908 25.3038 22.4751 26.3637C20.6594 27.4235 18.5971 27.9877 16.4947 27.9998C14.3923 28.0119 12.3236 27.4714 10.4958 26.4324C8.66805 25.3935 7.14531 23.8926 6.08008 22.08" stroke="#1A1A1A" stroke-width="2" stroke-linecap="round" stroke-linejoin="round"/>
</svg>
