<svg width="33" height="32" viewBox="0 0 33 32" fill="none" xmlns="http://www.w3.org/2000/svg">
<path d="M16.5713 3V29" stroke="#1A1A1A" stroke-width="2" stroke-linecap="round" stroke-linejoin="round"/>
<path d="M23.5713 11C23.5713 10.3434 23.442 9.69321 23.1907 9.08658C22.9394 8.47996 22.5711 7.92876 22.1068 7.46447C21.6425 7.00017 21.0913 6.63188 20.4847 6.3806C19.8781 6.12933 19.2279 6 18.5713 6H14.0713C12.7452 6 11.4734 6.52678 10.5358 7.46447C9.59807 8.40215 9.07129 9.67392 9.07129 11C9.07129 12.3261 9.59807 13.5979 10.5358 14.5355C11.4734 15.4732 12.7452 16 14.0713 16H19.5713C20.8974 16 22.1691 16.5268 23.1068 17.4645C24.0445 18.4021 24.5713 19.6739 24.5713 21C24.5713 22.3261 24.0445 23.5979 23.1068 24.5355C22.1691 25.4732 20.8974 26 19.5713 26H13.5713C12.2452 26 10.9734 25.4732 10.0358 24.5355C9.09807 23.5979 8.57129 22.3261 8.57129 21" stroke="#1A1A1A" stroke-width="2" stroke-linecap="round" stroke-linejoin="round"/>
</svg>
