<svg width="33" height="32" viewBox="0 0 33 32" fill="none" xmlns="http://www.w3.org/2000/svg">
<path d="M16.2856 16L8.68564 10.3C8.56145 10.2069 8.46064 10.0861 8.39122 9.94721C8.32179 9.80836 8.28564 9.65525 8.28564 9.5V5C8.28564 4.73478 8.391 4.48043 8.57854 4.29289C8.76607 4.10536 9.02043 4 9.28564 4H23.2856C23.5509 4 23.8052 4.10536 23.9928 4.29289C24.1803 4.48043 24.2856 4.73478 24.2856 5V9.45515C24.2856 9.60976 24.2498 9.76226 24.1809 9.90068C24.112 10.0391 24.012 10.1597 23.8887 10.2529L16.2856 16Z" stroke="#1A1A1A" stroke-width="2" stroke-linecap="round" stroke-linejoin="round"/>
<path d="M16.2856 16L8.68564 21.7C8.56145 21.7931 8.46064 21.9139 8.39122 22.0528C8.32179 22.1916 8.28564 22.3448 8.28564 22.5V27C8.28564 27.2652 8.391 27.5196 8.57854 27.7071C8.76607 27.8946 9.02043 28 9.28564 28H23.2856C23.5509 28 23.8052 27.8946 23.9928 27.7071C24.1803 27.5196 24.2856 27.2652 24.2856 27V22.5448C24.2856 22.3902 24.2498 22.2377 24.1809 22.0993C24.112 21.9609 24.012 21.8403 23.8887 21.7471L16.2856 16Z" stroke="#1A1A1A" stroke-width="2" stroke-linecap="round" stroke-linejoin="round"/>
<path d="M8.28564 7.99951H24.2856" stroke="#1A1A1A" stroke-width="2" stroke-linecap="round" stroke-linejoin="round"/>
</svg>
