<svg width="833" height="782" viewBox="0 0 833 782" fill="none" xmlns="http://www.w3.org/2000/svg">
<mask id="mask0_105_6102" style="mask-type:alpha" maskUnits="userSpaceOnUse" x="50" y="0" width="783" height="782">
<mask id="path-1-outside-1_105_6102" maskUnits="userSpaceOnUse" x="49.2073" y="0" width="784" height="782" fill="black">
<rect fill="white" x="49.2073" width="784" height="782"/>
<path d="M441.326 195.472L465.915 1L465.723 197.008L514.517 7.14324L489.928 201.615L562.158 19.2378L513.365 209.294L607.879 37.2835L535.456 219.661L650.909 60.8966L556.203 232.907L690.482 89.8851L575.221 248.458L726.405 123.481L591.934 266.311L757.718 161.3L606.342 286.277L784.036 202.767L618.252 307.778L804.975 247.114L627.281 330.623L820.151 293.764L633.428 354.429L829.372 341.95L636.502 378.618L832.445 390.904L636.502 403.191L829.372 439.858L633.428 427.572L820.151 488.044L627.281 451.377L804.975 534.886L618.252 474.222L784.036 579.233L606.342 495.723L757.718 620.7L591.934 515.497L726.405 658.519L575.221 533.351L690.482 692.115L556.203 549.093L650.909 720.911L535.456 562.147L607.879 744.525L513.365 572.706L562.158 762.57L489.928 580.193L514.517 774.857L465.723 584.8L465.915 781L441.326 586.336L416.737 781V584.8L367.944 774.857L392.725 580.193L320.494 762.57L369.288 572.706L274.774 744.525L347.197 562.147L231.743 720.911L326.45 549.093L191.978 692.115L307.431 533.351L156.247 658.519L290.719 515.497L124.935 620.7L276.311 495.723L98.6169 579.233L264.401 474.222L77.6778 534.886L255.372 451.377L62.5018 488.044L249.225 427.572L53.2809 439.858L246.151 403.191L50.2073 390.904L246.151 378.618L53.2809 341.95L249.225 354.429L62.5018 293.764L255.372 330.623L77.6778 247.114L264.401 307.778L98.6169 202.767L276.311 286.277L124.935 161.3L290.719 266.311L156.247 123.481L307.431 248.458L191.978 89.8851L326.45 232.907L231.743 60.8966L347.197 219.661L274.774 37.2835L369.288 209.294L320.494 19.2378L392.725 201.615L367.944 7.14324L416.737 197.008V1L441.326 195.472Z"/>
</mask>
<path d="M441.326 195.472L465.915 1L465.723 197.008L514.517 7.14324L489.928 201.615L562.158 19.2378L513.365 209.294L607.879 37.2835L535.456 219.661L650.909 60.8966L556.203 232.907L690.482 89.8851L575.221 248.458L726.405 123.481L591.934 266.311L757.718 161.3L606.342 286.277L784.036 202.767L618.252 307.778L804.975 247.114L627.281 330.623L820.151 293.764L633.428 354.429L829.372 341.95L636.502 378.618L832.445 390.904L636.502 403.191L829.372 439.858L633.428 427.572L820.151 488.044L627.281 451.377L804.975 534.886L618.252 474.222L784.036 579.233L606.342 495.723L757.718 620.7L591.934 515.497L726.405 658.519L575.221 533.351L690.482 692.115L556.203 549.093L650.909 720.911L535.456 562.147L607.879 744.525L513.365 572.706L562.158 762.57L489.928 580.193L514.517 774.857L465.723 584.8L465.915 781L441.326 586.336L416.737 781V584.8L367.944 774.857L392.725 580.193L320.494 762.57L369.288 572.706L274.774 744.525L347.197 562.147L231.743 720.911L326.45 549.093L191.978 692.115L307.431 533.351L156.247 658.519L290.719 515.497L124.935 620.7L276.311 495.723L98.6169 579.233L264.401 474.222L77.6778 534.886L255.372 451.377L62.5018 488.044L249.225 427.572L53.2809 439.858L246.151 403.191L50.2073 390.904L246.151 378.618L53.2809 341.95L249.225 354.429L62.5018 293.764L255.372 330.623L77.6778 247.114L264.401 307.778L98.6169 202.767L276.311 286.277L124.935 161.3L290.719 266.311L156.247 123.481L307.431 248.458L191.978 89.8851L326.45 232.907L231.743 60.8966L347.197 219.661L274.774 37.2835L369.288 209.294L320.494 19.2378L392.725 201.615L367.944 7.14324L416.737 197.008V1L441.326 195.472Z" stroke="black" stroke-width="2" stroke-miterlimit="10" mask="url(#path-1-outside-1_105_6102)"/>
</mask>
<g mask="url(#mask0_105_6102)">
<rect x="-945.775" y="-44.8818" width="1387.66" height="846.026" rx="45" fill="#1A1A1A"/>
</g>
<path d="M115.212 566.856L170.229 596.833L115.212 627.05L85.1147 681.948L55.0176 627.05L4.34066e-05 596.833L55.0176 566.856L85.1147 511.718L115.212 566.856Z" fill="#91EE22"/>
<path d="M261.326 294.18L359.639 347.746L261.326 401.743L207.544 499.841L153.763 401.743L55.4501 347.746L153.763 294.18L207.544 195.652L261.326 294.18Z" fill="#1A1A1A"/>
</svg>
