<svg width="564" height="484" viewBox="0 0 564 484" fill="none" xmlns="http://www.w3.org/2000/svg">
<g clip-path="url(#clip0_105_4668)">
<path d="M292.113 406.499L308.646 401.625L303.822 418.214L308.646 434.755L292.113 429.929L275.534 434.755L280.405 418.214L275.534 401.625L292.113 406.499Z" fill="#1A1A1A" stroke="white" stroke-miterlimit="10"/>
</g>
<g clip-path="url(#clip1_105_4668)">
<path d="M117.36 324.711L146.924 340.829L117.36 357.076L101.187 386.593L85.0133 357.076L55.4486 340.829L85.0133 324.711L101.187 295.065L117.36 324.711Z" fill="#1A1A1A" stroke="white" stroke-miterlimit="10"/>
</g>
<path d="M530.27 365.883C528.491 369.111 525.176 371.448 520.394 372.899C515.611 374.35 509.404 374.899 501.928 374.576C486.978 373.931 467.066 369.807 443.572 362.612C396.591 348.225 335.388 321.59 271.106 286.112C206.824 250.635 151.659 213.046 114.435 180.961C95.8197 164.915 81.712 150.264 73.1915 137.956C68.9307 131.801 66.0835 126.255 64.7587 121.433C63.4345 116.612 63.6418 112.559 65.4211 109.332C67.2003 106.105 70.5158 103.767 75.2971 102.316C80.0808 100.865 86.2876 100.316 93.7636 100.639C108.714 101.284 128.625 105.408 152.119 112.603C199.1 126.99 260.303 153.626 324.585 189.103C388.868 224.581 444.032 262.169 481.256 294.254C499.872 310.3 513.979 324.951 522.5 337.259C526.761 343.414 529.608 348.96 530.933 353.783C532.257 358.603 532.049 362.656 530.27 365.883Z" stroke="#1A1A1A"/>
<path d="M511.268 400.35C509.489 403.577 506.173 405.914 501.392 407.365C496.608 408.817 490.401 409.365 482.925 409.043C467.975 408.397 448.064 404.274 424.569 397.079C377.589 382.691 316.386 356.056 252.104 320.578C187.821 285.101 132.656 247.512 95.4324 215.427C76.8173 199.382 62.7096 184.73 54.1891 172.422C49.9282 166.267 47.0811 160.722 45.7562 155.899C44.432 151.079 44.6394 147.026 46.4186 143.798C48.1979 140.571 51.5134 138.233 56.2946 136.783C61.0783 135.331 67.2851 134.783 74.7612 135.105C89.7112 135.751 109.623 139.874 133.117 147.069C180.097 161.457 241.301 188.092 305.583 223.569C369.865 259.047 425.03 296.635 462.254 328.721C480.869 344.766 494.977 359.418 503.497 371.726C507.758 377.881 510.605 383.426 511.93 388.249C513.254 393.069 513.047 397.122 511.268 400.35Z" stroke="#1A1A1A"/>
<path d="M492.268 434.816C490.489 438.043 487.173 440.381 482.392 441.831C477.608 443.283 471.402 443.832 463.925 443.509C448.975 442.864 429.064 438.74 405.57 431.545C358.589 417.158 297.386 390.522 233.104 355.045C168.822 319.567 113.657 281.979 76.4327 249.893C57.8175 233.848 43.7098 219.197 35.1893 206.888C30.9285 200.734 28.0813 195.188 26.7565 190.365C25.4323 185.545 25.6396 181.492 27.4189 178.265C29.1981 175.037 32.5136 172.7 37.2949 171.249C42.0786 169.798 48.2854 169.249 55.7614 169.572C70.7115 170.217 90.6229 174.341 114.117 181.535C161.098 195.923 222.301 222.558 286.583 258.036C350.865 293.513 406.03 331.102 443.254 363.187C461.869 379.232 475.977 393.884 484.498 406.192C488.758 412.347 491.606 417.893 492.93 422.715C494.255 427.536 494.047 431.588 492.268 434.816Z" stroke="#1A1A1A"/>
<ellipse cx="123.514" cy="98.2098" rx="14.5588" ry="14.567" fill="#91EE22"/>
<ellipse cx="395.435" cy="408.816" rx="9.39277" ry="9.39806" fill="#91EE22"/>
<ellipse cx="76.5503" cy="60.6179" rx="22.073" ry="22.0854" fill="#1A1A1A"/>
<path d="M287.392 360.5C281.471 362.524 274.704 358.512 272.35 351.554L235.719 244.17L257.124 236.844L293.791 344.376C296.145 351.26 293.276 358.475 287.392 360.5Z" fill="#1A1A1A"/>
<path d="M284.192 361.825C282.464 361.825 280.699 361.42 279.007 360.574C275.586 358.88 272.865 355.714 271.541 351.812L234.91 244.428C234.763 244.023 234.984 243.545 235.425 243.398L256.83 236.072C257.051 235.998 257.271 235.998 257.455 236.109C257.639 236.219 257.786 236.366 257.86 236.587L294.527 344.118C296.991 351.407 293.902 359.101 287.613 361.273C286.546 361.641 285.369 361.825 284.192 361.825ZM236.749 244.686L273.122 351.297C274.299 354.794 276.727 357.666 279.742 359.138C282.17 360.316 284.781 360.537 287.135 359.727C292.578 357.85 295.226 351.076 293.019 344.634L256.609 237.876L236.749 244.686Z" fill="#1A1A1A"/>
<path d="M253.335 144.149L184.082 193.589L157.124 221.604L146.533 240.342L146.496 240.489C144.399 243.729 145.613 251.202 149.548 258.822C153.41 266.332 158.853 271.56 162.678 271.854L162.568 271.928L182.906 274.136L220.97 268.062L301.771 239.127L402.21 256.356L402.909 256.393C377.68 251.68 343.624 217.923 318.872 170.176C294.158 122.466 286.287 75.3089 297.137 52.043H297.1L253.886 142.971L253.335 144.149Z" fill="#91EE22"/>
<path d="M419.602 254.314C444.425 241.411 439.625 182.913 408.881 123.657C378.137 64.4 333.092 26.8233 308.269 39.7268C283.446 52.6303 288.246 111.128 318.99 170.384C349.734 229.641 394.779 267.218 419.602 254.314Z" fill="white"/>
<path d="M408.684 257.681C397.872 257.681 384.853 251.644 370.84 239.9C351.753 223.923 333.033 199.295 318.138 170.508C295.593 126.921 286.289 82.2297 294.453 56.6446C297.175 48.1039 301.735 42.1402 307.951 38.9374C320.308 32.6056 337.704 37.9803 356.975 54.1044C376.063 70.0813 394.783 94.7093 409.677 123.497C432.259 167.084 441.564 211.775 433.362 237.36C430.641 245.901 426.08 251.864 419.865 255.067C416.518 256.834 412.767 257.681 408.684 257.681ZM319.205 37.9803C315.416 37.9803 311.886 38.7534 308.723 40.41C302.875 43.3918 298.609 49.061 296.035 57.1967C287.98 82.4137 297.248 126.626 319.609 169.845C350.061 228.635 394.709 266.258 419.166 253.705C425.014 250.723 429.28 245.054 431.854 236.918C439.909 211.701 430.641 167.489 408.28 124.27C381.763 73.1 344.544 37.9803 319.205 37.9803Z" fill="#1A1A1A"/>
<path d="M408.684 257.681C397.871 257.681 384.852 251.644 370.84 239.9C351.752 223.923 333.032 199.295 318.138 170.507C295.593 126.921 286.288 82.2296 294.453 56.6445C297.174 48.1039 301.735 42.1402 307.95 38.9374C316.225 34.6671 327.038 35.7347 339.211 41.9929C350.87 47.9934 363.484 58.6324 375.768 72.7319C376.062 73.0632 376.025 73.5786 375.694 73.8731C375.363 74.1676 374.849 74.1308 374.554 73.7994C349.619 45.1588 324.39 32.3479 308.722 40.4099C302.875 43.3918 298.609 49.061 296.034 57.1967C287.98 82.4137 297.248 126.626 319.609 169.845C346.089 220.978 383.344 256.135 408.647 256.135C412.435 256.135 415.966 255.362 419.129 253.705C424.976 250.723 429.243 245.054 431.817 236.918C439.871 211.701 430.603 167.489 408.243 124.27C401.586 111.386 394.083 99.2741 386.029 88.267C385.772 87.8989 385.845 87.3835 386.213 87.1258C386.581 86.8681 387.096 86.9417 387.353 87.3098C395.481 98.3906 402.983 110.576 409.714 123.534C432.258 167.084 441.563 211.775 433.362 237.36C430.64 245.901 426.08 251.864 419.864 255.067C416.518 256.834 412.766 257.681 408.684 257.681Z" fill="#1A1A1A"/>
<path d="M363.28 178.881C369.031 175.892 367.925 162.352 360.81 148.638C353.695 134.925 343.265 126.231 337.515 129.221C331.764 132.21 332.871 145.75 339.985 159.463C347.1 173.177 357.53 181.871 363.28 178.881Z" fill="#91EE22"/>
<path d="M360.763 180.3C354.438 180.3 345.611 172.128 339.249 159.795C333.953 149.561 331.783 139.033 333.732 132.958C334.431 130.823 335.571 129.314 337.152 128.504C343.404 125.301 354.107 134.026 361.536 148.346C366.832 158.58 369.002 169.109 367.052 175.183C366.354 177.318 365.214 178.827 363.632 179.637C362.749 180.079 361.793 180.3 360.763 180.3ZM340.021 129.424C339.249 129.424 338.513 129.572 337.888 129.903C336.674 130.529 335.791 131.707 335.24 133.437C333.438 139.106 335.534 149.193 340.646 159.059C347.413 172.128 357.601 180.926 362.86 178.202C364.073 177.576 364.956 176.398 365.508 174.668C367.31 168.962 365.177 158.912 360.101 149.046C354.143 137.597 345.611 129.424 340.021 129.424Z" fill="#91EE22"/>
<path d="M403.094 243.949C393.606 243.949 382.204 238.648 369.921 228.378C353.224 214.389 336.821 192.816 323.802 167.636C304.052 129.498 295.924 90.3652 303.059 67.946C305.45 60.4361 309.458 55.2087 314.938 52.3741C327.516 45.9318 346.015 53.368 365.728 72.7685C366.059 73.0998 366.059 73.5784 365.728 73.9097C365.397 74.241 364.919 74.241 364.588 73.9097C345.39 55.0246 327.553 47.662 315.674 53.8098C310.598 56.4235 306.884 61.3196 304.604 68.4246C297.579 90.4388 305.67 129.093 325.236 166.9C348.369 211.628 380.917 242.33 403.057 242.33C406.367 242.33 409.42 241.63 412.215 240.231C417.29 237.618 421.005 232.721 423.285 225.617C430.31 203.602 422.219 164.949 402.653 127.141C396.732 115.729 390.112 105.017 382.977 95.335C382.719 94.9668 382.793 94.4514 383.161 94.1938C383.528 93.9361 384.043 94.0097 384.301 94.3778C391.509 104.17 398.166 114.92 404.124 126.405C423.874 164.544 432.001 203.676 424.867 226.095C422.476 233.605 418.467 238.832 412.987 241.667C409.972 243.176 406.662 243.949 403.094 243.949Z" fill="#1A1A1A"/>
<path d="M182.943 274.91C182.907 274.91 182.87 274.91 182.87 274.91L162.532 272.701C162.421 272.701 162.311 272.664 162.201 272.59C158.008 271.928 152.712 266.627 148.85 259.19C144.731 251.349 143.518 243.692 145.761 240.084L145.798 239.974L156.39 221.199C156.427 221.126 156.463 221.089 156.5 221.052L183.458 193.037C183.495 193.001 183.532 192.964 183.569 192.927L252.637 143.597L296.329 51.675C296.439 51.4909 296.586 51.3437 296.807 51.2701C297.027 51.1964 297.248 51.1964 297.432 51.3069C297.837 51.4909 298.02 51.9695 297.837 52.3745C286.767 76.1189 295.52 123.313 319.572 169.771C343.661 216.303 377.239 250.76 403.094 255.509C403.499 255.583 403.793 255.951 403.756 256.393C403.719 256.798 403.352 257.092 402.947 257.129L402.248 257.092C402.211 257.092 402.175 257.092 402.138 257.092L301.882 239.9L221.266 268.762C221.229 268.762 221.155 268.799 221.118 268.799L183.054 274.873C183.017 274.91 182.98 274.91 182.943 274.91ZM163.12 271.155L182.943 273.29L220.824 267.216L301.588 238.317C301.735 238.281 301.845 238.244 301.992 238.281L392.245 253.742C367.861 243.03 339.359 211.407 318.211 170.545C297.211 129.976 287.833 88.7826 292.982 62.7558L254.071 144.481C253.998 144.591 253.924 144.702 253.814 144.775L184.635 194.215L157.787 222.083L147.195 240.858C147.195 240.894 147.159 240.931 147.159 240.931C145.246 243.913 146.533 251.276 150.248 258.454C153.889 265.486 159.148 270.787 162.752 271.044C162.9 271.044 163.01 271.081 163.12 271.155Z" fill="#1A1A1A"/>
<path d="M253.445 143.855L297.1 52.0061H297.137C286.287 75.272 294.194 122.43 318.872 170.139C343.623 217.923 377.679 251.68 402.982 256.319L402.284 256.282L301.991 239.09L299.674 238.685C288.016 236.624 272.459 221.457 261.315 199.811C249.877 177.612 247.855 155.488 252.93 144.959L253.445 143.855Z" fill="white"/>
<path d="M402.983 257.129C402.946 257.129 402.983 257.129 402.983 257.129L402.247 257.092C402.211 257.092 402.174 257.092 402.137 257.092L301.844 239.9L299.527 239.495C287.207 237.323 271.576 221.53 260.58 200.215C248.112 175.992 247.487 154.42 252.195 144.628L252.746 143.523L296.401 51.7114C296.512 51.5273 296.659 51.3801 296.879 51.3064C297.1 51.2328 297.321 51.2328 297.505 51.3433C297.909 51.5273 298.093 52.0059 297.909 52.4108C286.839 76.1553 295.592 123.35 319.645 169.808C343.734 216.34 377.312 250.797 403.167 255.546C403.571 255.619 403.866 255.987 403.829 256.429C403.718 256.797 403.387 257.129 402.983 257.129ZM292.907 62.7553L254.181 144.223L253.629 145.327C248.958 155.046 250.319 176.766 262.014 199.442C272.79 220.352 287.979 235.814 299.822 237.875L302.139 238.28L392.207 253.742C367.823 243.029 339.321 211.407 318.174 170.544C297.174 129.976 287.795 88.7822 292.907 62.7553Z" fill="#1A1A1A"/>
<path d="M181.84 274.799C181.803 274.799 181.766 274.799 181.766 274.799L162.495 272.737C162.384 272.737 162.274 272.701 162.164 272.627C157.971 271.964 152.675 266.663 148.813 259.227C144.731 251.349 143.517 243.692 145.761 240.084L145.798 239.974L156.39 221.199C156.61 220.794 157.088 220.684 157.493 220.905C157.897 221.125 158.008 221.604 157.787 222.009L147.195 240.857C147.195 240.894 147.158 240.931 147.158 240.931C145.246 243.913 146.533 251.275 150.248 258.454C153.889 265.485 159.148 270.786 162.752 271.044C162.862 271.044 163.01 271.081 163.083 271.154L181.913 273.179C182.355 273.216 182.686 273.621 182.612 274.063C182.575 274.468 182.244 274.799 181.84 274.799Z" fill="#1A1A1A"/>
<path d="M183.126 273.989C176.874 273.547 168.121 264.675 161.758 252.416C155.028 239.421 153.447 225.985 157.566 221.199L146.569 240.342L146.496 240.489C144.399 243.729 145.613 251.202 149.548 258.822C153.41 266.332 158.853 271.559 162.678 271.854L162.568 271.927L183.126 273.989Z" fill="white"/>
<path d="M183.127 274.799C183.09 274.799 183.09 274.799 183.053 274.799C182.906 274.799 182.722 274.762 182.575 274.762L162.495 272.738C162.384 272.738 162.274 272.701 162.164 272.627C157.971 271.965 152.675 266.663 148.813 259.227C144.731 251.349 143.517 243.692 145.761 240.084L145.798 239.974L155.47 223.114C155.838 222.156 156.316 221.31 156.904 220.61C157.162 220.279 157.64 220.242 157.971 220.463C158.302 220.721 158.412 221.162 158.192 221.531L156.831 223.85C154.661 229.703 156.794 241.189 162.384 251.938C168.453 263.682 176.728 272.259 182.649 273.032L183.09 273.069C183.531 273.106 183.862 273.511 183.826 273.952C183.862 274.468 183.531 274.799 183.127 274.799ZM163.083 271.155L177.132 272.59C171.726 269.13 165.768 261.988 161.024 252.785C156.426 243.913 154.146 234.71 154.514 228.083L147.195 240.857C147.195 240.894 147.158 240.931 147.158 240.931C145.246 243.913 146.533 251.276 150.248 258.454C153.889 265.485 159.148 270.786 162.752 271.044C162.862 271.044 163.01 271.081 163.083 271.155Z" fill="#1A1A1A"/>
<path d="M219.61 268.21L221.228 267.878C212.475 269.719 198.646 256.466 188.9 237.655C178.934 218.438 177.058 199.259 184.119 193.589L183.2 194.51L157.639 221.089C153.447 225.801 154.991 239.311 161.758 252.38C168.268 264.97 177.499 273.952 183.788 273.916L219.61 268.21Z" fill="#1A1A1A"/>
<path d="M183.752 274.762C177.059 274.762 167.754 265.743 161.023 252.785C154.183 239.532 152.454 225.69 157.015 220.573L182.097 194.509C182.538 193.92 183.053 193.405 183.605 192.963C183.936 192.706 184.414 192.742 184.708 193.037C185.002 193.368 185.002 193.847 184.708 194.141L183.274 195.651C178.162 202.498 180.7 220.021 189.636 237.286C199.272 255.914 212.733 268.688 220.971 267.142L221.081 267.105C221.523 267.031 221.927 267.289 222.038 267.731C222.111 268.173 221.854 268.577 221.412 268.688C221.376 268.688 221.339 268.688 221.302 268.725L219.794 269.019H219.757L183.936 274.725C183.862 274.725 183.789 274.762 183.752 274.762ZM179.964 199.074L158.228 221.678C154.183 226.242 156.022 239.569 162.495 252.048C168.82 264.27 177.757 273.105 183.752 273.142L215.381 268.099C206.848 265.08 196.33 253.705 188.202 238.059C180.479 223.15 177.5 207.983 179.964 199.074Z" fill="#1A1A1A"/>
<path d="M337.52 129.203C331.746 132.148 332.592 145.806 339.947 159.427C352.268 182.214 362.087 179.527 363.227 179.122C363.264 179.122 363.264 179.159 363.227 179.159L342.08 196.203C335.865 187.478 329.944 177.76 324.5 167.268C319.315 157.218 314.938 147.205 311.481 137.486L337.52 129.203Z" fill="#1A1A1A"/>
<path d="M342.08 197.013C342.044 197.013 342.007 197.013 341.97 197.013C341.749 196.976 341.565 196.866 341.418 196.682C335.056 187.736 329.135 177.944 323.802 167.673C318.69 157.807 314.276 147.757 310.746 137.818C310.672 137.597 310.672 137.376 310.783 137.192C310.893 137.008 311.04 136.861 311.261 136.787L337.299 128.504C337.704 128.394 338.145 128.578 338.292 128.983C338.439 129.387 338.292 129.829 337.924 130.013C336.674 130.639 335.755 131.891 335.203 133.731C333.401 139.511 335.607 149.745 340.72 159.132C352.746 181.368 362.014 178.827 363.007 178.459C363.375 178.312 363.816 178.496 364 178.827C364.184 179.159 364.11 179.637 363.816 179.895L342.595 196.829C342.448 196.94 342.264 197.013 342.08 197.013ZM312.548 138.002C316.042 147.61 320.308 157.329 325.236 166.9C330.385 176.84 336.122 186.301 342.264 195.025L360.616 180.226C356.424 180.042 348.516 176.913 339.248 159.795C333.879 149.892 331.672 139.437 333.622 133.142C333.879 132.333 334.173 131.633 334.541 130.97L312.548 138.002Z" fill="#1A1A1A"/>
<path d="M446.331 76.6859C463.144 67.8483 469.647 47.0994 460.855 30.3421C452.064 13.5847 431.308 7.16452 414.494 16.0022C397.681 24.8398 391.178 45.5887 399.97 62.346C408.761 79.1034 429.518 85.5236 446.331 76.6859Z" fill="#1A1A1A"/>
<path d="M414.753 38.7531C416.371 36.5444 418.762 35.1823 421.483 34.8878C423.543 34.6669 425.455 35.1086 427.257 36.213C428.177 36.7652 428.986 37.4647 429.758 38.3114C430.31 37.3174 430.972 36.4339 431.744 35.6977C433.252 34.2251 435.054 33.3784 437.077 33.1576C439.798 32.863 442.446 33.6729 444.506 35.4768C446.529 37.2438 447.816 39.8207 448.147 42.729C448.478 45.7108 447.669 48.5822 445.609 51.7482C443.77 54.5828 440.975 57.5278 437.739 60.9883C436.636 62.1663 435.385 63.4916 434.098 64.8905C433.767 65.2586 433.289 65.5163 432.774 65.5531C432.259 65.6267 431.781 65.4795 431.34 65.185C429.758 64.0806 428.25 63.0498 426.926 62.1663C423.028 59.5157 419.644 57.2333 417.217 54.8773C414.495 52.2636 413.098 49.613 412.767 46.6312C412.473 43.7229 413.171 40.9251 414.753 38.7531Z" fill="white"/>
<path d="M541.714 78.5611C554.022 66.2406 554.022 46.2652 541.714 33.9448C529.405 21.6243 509.449 21.6243 497.14 33.9447C484.832 46.2652 484.832 66.2406 497.14 78.5611C509.449 90.8816 529.405 90.8816 541.714 78.5611Z" fill="#91EE22"/>
<path d="M519.421 88.5988C501.621 88.5988 487.094 74.0944 487.094 56.2401C487.094 38.4225 501.584 23.8813 519.421 23.8813C537.258 23.8813 551.749 38.3857 551.749 56.2401C551.749 74.0576 537.258 88.5988 519.421 88.5988ZM519.421 25.5011C502.503 25.5011 488.712 39.2692 488.712 56.2401C488.712 73.1741 502.467 86.979 519.421 86.979C536.339 86.979 550.13 73.2109 550.13 56.2401C550.13 39.306 536.376 25.5011 519.421 25.5011Z" fill="#91EE22"/>
<path d="M527.953 59.3694C526.188 59.3694 524.643 60.2161 523.613 61.5414L512.985 57.3815C512.985 57.2343 513.021 57.1238 513.021 56.9766C513.021 56.7189 512.985 56.4612 512.948 56.2035L523.834 51.1601C524.827 52.3013 526.298 53.0376 527.953 53.0744C530.969 53.0744 533.47 50.6079 533.47 47.5524C533.47 44.4969 531.006 41.9937 527.953 41.9937C524.937 41.9937 522.436 44.4601 522.436 47.5156C522.436 47.7733 522.473 48.031 522.51 48.2887L511.624 53.3321C510.631 52.1909 509.16 51.4546 507.505 51.4178C504.489 51.4178 501.988 53.8843 501.988 56.9398C501.988 59.9953 504.452 62.4986 507.505 62.4986C509.27 62.4986 510.815 61.6518 511.844 60.3266L522.473 64.4865C522.473 64.6337 522.436 64.7442 522.436 64.8914C522.436 67.9469 524.9 70.4502 527.953 70.4502C530.969 70.4502 533.47 67.9837 533.47 64.9282C533.433 61.8727 530.969 59.4063 527.953 59.3694Z" fill="#1A1A1A"/>
<path d="M528.37 178.556C542.803 168.528 546.43 148.755 536.469 134.391C526.509 120.027 506.734 116.512 492.301 126.54C477.867 136.568 474.241 156.341 484.201 170.705C494.162 185.069 513.937 188.584 528.37 178.556Z" fill="#1A1A1A"/>
<path d="M502.394 167.636L497.76 142.493C497.54 141.204 498.717 140.137 499.967 140.468L527.366 148.236C528.764 148.641 529.095 150.445 527.955 151.328L505.153 168.704C504.16 169.514 502.652 168.962 502.394 167.636Z" fill="white"/>
<path d="M510.025 281.549C527.849 272.863 535.307 251.448 526.684 233.716C518.06 215.985 496.62 208.652 478.796 217.337C460.972 226.023 453.514 247.438 462.137 265.169C470.761 282.901 492.201 290.234 510.025 281.549Z" fill="#91EE22"/>
<path d="M494.229 286.027C490.404 286.027 486.505 285.438 482.717 284.149C473.449 281.057 465.947 274.578 461.607 265.816C457.267 257.092 456.605 247.189 459.731 237.912C466.204 218.806 487.02 208.388 506.181 214.757C515.449 217.849 522.952 224.328 527.292 233.09C531.631 241.814 532.293 251.717 529.167 260.994C523.945 276.308 509.565 286.027 494.229 286.027ZM494.596 214.536C479.922 214.536 466.167 223.813 461.202 238.464C458.223 247.336 458.849 256.797 463.004 265.117C467.16 273.474 474.332 279.695 483.195 282.64C501.511 288.714 521.407 278.775 527.586 260.515C530.565 251.643 529.94 242.182 525.784 233.863C521.628 225.506 514.456 219.285 505.593 216.34C501.952 215.088 498.237 214.536 494.596 214.536Z" fill="#1A1A1A"/>
<path d="M512.692 243.655C512.325 252.601 497.209 273.511 493.605 278.407C493.237 278.922 492.465 278.885 492.134 278.333C489.854 274.652 482.314 262.283 478.379 252.269C476.798 248.294 475.805 244.686 475.915 242.146C476.319 231.985 484.889 224.071 495.039 224.476C505.19 224.954 513.097 233.495 512.692 243.655Z" fill="#1A1A1A"/>
<path d="M500.252 248.886C503.541 245.593 503.541 240.256 500.252 236.964C496.963 233.671 491.63 233.671 488.341 236.964C485.052 240.256 485.052 245.593 488.341 248.886C491.63 252.178 496.963 252.178 500.252 248.886Z" fill="#91EE22"/>
<defs>
<clipPath id="clip0_105_4668">
<rect width="33.814" height="33.833" fill="white" transform="translate(275.208 401.297)"/>
</clipPath>
<clipPath id="clip1_105_4668">
<rect width="66.0741" height="66.0741" fill="white" transform="matrix(0.706908 0.707306 -0.706908 0.707306 101.187 294.159)"/>
</clipPath>
</defs>
</svg>
