<svg width="242" height="48" viewBox="0 0 242 48" fill="none" xmlns="http://www.w3.org/2000/svg">
<path d="M0 26.0204L9.00821 0H26.7727C26.7727 0 37.1667 0.612245 37.1667 11.8163C37.1667 15.4286 33.639 18.7959 33.639 18.7959C33.639 18.7959 38.6786 22.4694 38.6786 27.1224C38.6786 37.7755 28.4105 38.5714 28.4105 38.5714H10.3311L15.0557 30.4286H24.1899C24.1899 30.4286 27.0246 29.9388 27.2136 26.5714C27.4026 23.2041 24.1899 22.4694 24.1899 22.4694H18.3314L22.1111 15.4286C22.1111 15.4286 26.7727 15.3061 26.7727 11.8163C26.7727 8.32653 23.8119 7.65306 23.8119 7.65306H17.9534L13.9848 16.4694L19.2763 15.4286L1.1969 48L7.05538 24.0612L0 26.0204Z" fill="#1A1A1A"/>
<path d="M33.5131 0H66.5852L63.4354 9.12245H43.8442V14.5714H57.451L55.3091 23.6327H43.8442V43.5306L37.1037 38.1429C37.1037 38.1429 41.5764 34.1633 41.5764 29.1429C41.5764 22.102 37.3557 19.2245 37.3557 19.2245C37.3557 19.2245 40.0645 17.1429 40.0645 9.73469C40.0645 3.4898 33.5131 0 33.5131 0Z" fill="#1A1A1A"/>
<path d="M91.906 17.8873C92.8079 18.2769 93.4993 18.8223 93.9803 19.5235C94.4813 20.2052 94.7319 21.0136 94.7319 21.9485C94.7319 24.0717 93.84 25.6883 92.0563 26.7986C90.2726 27.8894 87.9479 28.4348 85.0819 28.4348H73.508L77.7167 7.98261H88.3587C90.7236 7.98261 92.5273 8.40139 93.7699 9.23896C95.0325 10.057 95.6638 11.2355 95.6638 12.7743C95.6638 13.9624 95.3331 14.9948 94.6717 15.8713C94.0104 16.7283 93.0885 17.4003 91.906 17.8873ZM82.7371 12.1607L81.9254 16.105H86.1942C87.2564 16.105 88.0581 15.9103 88.5992 15.5207C89.1604 15.1117 89.4409 14.5273 89.4409 13.7677C89.4409 12.6963 88.6092 12.1607 86.9458 12.1607H82.7371ZM85.4126 24.2567C86.4748 24.2567 87.3065 24.0522 87.9078 23.6431C88.509 23.2341 88.8096 22.6303 88.8096 21.8317C88.8096 21.2473 88.5892 20.8188 88.1483 20.5461C87.7073 20.2539 87.1061 20.1078 86.3445 20.1078H81.0837L80.2419 24.2567H85.4126Z" fill="#1A1A1A"/>
<path d="M104.639 14.352C106.002 13.008 107.966 12.336 110.531 12.336L109.539 17.3322C109.038 17.2737 108.607 17.2445 108.246 17.2445C106.964 17.2445 105.932 17.5464 105.15 18.1503C104.388 18.7346 103.877 19.6696 103.617 20.9551L102.054 28.4348H96.3418L99.5885 12.599H105L104.639 14.352Z" fill="#1A1A1A"/>
<path d="M129.937 12.599L126.69 28.4348H121.279L121.61 26.9447C120.307 28.1134 118.734 28.6977 116.89 28.6977C115.687 28.6977 114.555 28.4153 113.493 27.8504C112.451 27.2661 111.609 26.4285 110.968 25.3377C110.326 24.247 110.006 22.9614 110.006 21.481C110.006 19.767 110.397 18.2184 111.178 16.8355C111.98 15.433 113.052 14.3325 114.395 13.5339C115.758 12.7353 117.241 12.336 118.844 12.336C121.209 12.336 122.872 13.0567 123.834 14.4981L124.225 12.599H129.937ZM118.874 24.2275C120.016 24.2275 120.948 23.8184 121.67 23.0003C122.391 22.1823 122.752 21.1207 122.752 19.8157C122.752 18.8807 122.471 18.1405 121.91 17.5951C121.369 17.0497 120.618 16.777 119.656 16.777C118.513 16.777 117.581 17.1861 116.86 18.0042C116.138 18.8223 115.778 19.8936 115.778 21.2181C115.778 22.153 116.048 22.8932 116.589 23.4386C117.15 23.9645 117.912 24.2275 118.874 24.2275Z" fill="#1A1A1A"/>
<path d="M143.805 12.336C145.589 12.336 147.011 12.8035 148.074 13.7384C149.156 14.6539 149.697 15.9784 149.697 17.712C149.697 18.3548 149.627 19.0073 149.487 19.6696L147.683 28.4348H141.971L143.655 20.1955C143.735 19.8643 143.775 19.5137 143.775 19.1437C143.775 17.7412 143.023 17.04 141.52 17.04C140.518 17.04 139.696 17.3419 139.055 17.9457C138.414 18.5301 137.963 19.4163 137.702 20.6045L136.079 28.4348H130.367L133.614 12.599H139.025L138.694 14.2351C139.396 13.5923 140.187 13.1151 141.069 12.8035C141.951 12.4918 142.863 12.336 143.805 12.336Z" fill="#1A1A1A"/>
<path d="M173.299 6.75548L168.85 28.4348H163.438L163.769 26.8863C162.466 28.0939 160.893 28.6977 159.049 28.6977C157.847 28.6977 156.715 28.4153 155.652 27.8504C154.61 27.2661 153.768 26.4285 153.127 25.3377C152.486 24.247 152.165 22.9614 152.165 21.481C152.165 19.767 152.556 18.2184 153.338 16.8355C154.139 15.433 155.221 14.3325 156.584 13.5339C157.947 12.7353 159.43 12.336 161.033 12.336C163.358 12.336 165.012 13.0372 165.994 14.4397L167.587 6.75548H173.299ZM161.033 24.2275C162.176 24.2275 163.108 23.8184 163.829 23.0003C164.551 22.1823 164.912 21.1207 164.912 19.8157C164.912 18.8807 164.641 18.1405 164.1 17.5951C163.559 17.0497 162.807 16.777 161.845 16.777C160.703 16.777 159.771 17.1861 159.049 18.0042C158.328 18.8223 157.967 19.8936 157.967 21.2181C157.967 22.153 158.238 22.8932 158.779 23.4386C159.32 23.9645 160.072 24.2275 161.033 24.2275Z" fill="#1A1A1A"/>
<path d="M182.024 12.4529L181.092 16.9523H190.381L189.449 21.4226H180.19L178.747 28.4348H172.795L177.004 7.98261H193.478L192.546 12.4529H182.024Z" fill="#1A1A1A"/>
<path d="M211.932 12.599L208.686 28.4348H203.274L203.605 26.9447C202.302 28.1134 200.729 28.6977 198.885 28.6977C197.683 28.6977 196.551 28.4153 195.488 27.8504C194.446 27.2661 193.604 26.4285 192.963 25.3377C192.322 24.247 192.001 22.9614 192.001 21.481C192.001 19.767 192.392 18.2184 193.174 16.8355C193.975 15.433 195.047 14.3325 196.39 13.5339C197.753 12.7353 199.236 12.336 200.839 12.336C203.204 12.336 204.868 13.0567 205.83 14.4981L206.221 12.599H211.932ZM200.869 24.2275C202.012 24.2275 202.944 23.8184 203.665 23.0003C204.387 22.1823 204.747 21.1207 204.747 19.8157C204.747 18.8807 204.467 18.1405 203.906 17.5951C203.365 17.0497 202.613 16.777 201.651 16.777C200.509 16.777 199.577 17.1861 198.855 18.0042C198.134 18.8223 197.773 19.8936 197.773 21.2181C197.773 22.153 198.044 22.8932 198.585 23.4386C199.146 23.9645 199.907 24.2275 200.869 24.2275Z" fill="#1A1A1A"/>
<path d="M218.736 28.6977C217.333 28.6977 215.98 28.5517 214.677 28.2595C213.395 27.9673 212.393 27.5972 211.671 27.1492L213.745 23.2633C214.487 23.7113 215.369 24.0717 216.391 24.3443C217.413 24.5976 218.415 24.7242 219.397 24.7242C221.141 24.7242 222.013 24.3443 222.013 23.5847C222.013 23.273 221.802 23.049 221.381 22.9127C220.98 22.7569 220.329 22.6108 219.427 22.4744C218.225 22.2602 217.233 22.0362 216.451 21.8024C215.689 21.5492 215.018 21.1304 214.437 20.5461C213.856 19.9617 213.565 19.1437 213.565 18.0918C213.565 16.2609 214.367 14.8487 215.97 13.8553C217.593 12.8424 219.688 12.336 222.253 12.336C223.415 12.336 224.538 12.4529 225.62 12.6866C226.702 12.9009 227.644 13.2028 228.446 13.5923L226.432 17.4783C225.069 16.6797 223.455 16.2803 221.592 16.2803C220.71 16.2803 220.048 16.3972 219.608 16.631C219.187 16.8452 218.976 17.1277 218.976 17.4783C218.976 17.7899 219.177 18.0237 219.577 18.1795C219.998 18.3158 220.68 18.4717 221.622 18.647C222.784 18.8417 223.746 19.0657 224.508 19.319C225.289 19.5722 225.961 19.991 226.522 20.5753C227.103 21.1597 227.394 21.9583 227.394 22.9711C227.394 24.8021 226.582 26.2143 224.959 27.2077C223.335 28.201 221.261 28.6977 218.736 28.6977Z" fill="#1A1A1A"/>
<path d="M236.378 22.5329C236.338 22.8056 236.318 22.9809 236.318 23.0588C236.318 23.9548 236.819 24.4028 237.821 24.4028C238.363 24.4028 238.934 24.247 239.535 23.9353L240.256 27.7628C239.134 28.3861 237.721 28.6977 236.018 28.6977C234.334 28.6977 232.991 28.2887 231.989 27.4706C231.007 26.6525 230.516 25.513 230.516 24.0522C230.516 23.4873 230.566 22.9906 230.667 22.5621L231.749 17.3322H229.344L230.216 13.1833H232.591L233.432 9.06365H239.144L238.302 13.1833H242L241.158 17.3322H237.461L236.378 22.5329Z" fill="#1A1A1A"/>
<path d="M77.9959 37.6497C78.6751 37.6497 79.28 37.799 79.8103 38.0974C80.35 38.3868 80.7687 38.7983 81.0665 39.3318C81.3643 39.8563 81.5131 40.4577 81.5131 41.136C81.5131 41.8323 81.355 42.4518 81.0386 42.9944C80.7315 43.528 80.2989 43.944 79.7406 44.2424C79.1823 44.5409 78.5402 44.6901 77.8144 44.6901C76.5955 44.6901 75.651 44.2741 74.9811 43.4421C74.3111 42.6101 73.9762 41.4616 73.9762 39.9965C73.9762 38.4682 74.2739 37.297 74.8694 36.4831C75.4742 35.6692 76.414 35.1176 77.6888 34.8282L80.9828 34.0956L81.1502 34.9774L78.0517 35.6692C77.0002 35.8953 76.2279 36.2977 75.7348 36.8765C75.2416 37.4463 74.9718 38.2918 74.9253 39.4132C75.223 38.8616 75.6371 38.432 76.1675 38.1245C76.6978 37.808 77.3073 37.6497 77.9959 37.6497ZM77.8423 43.8897C78.3541 43.8897 78.8101 43.7767 79.2102 43.5506C79.6196 43.3155 79.936 42.9899 80.1593 42.5739C80.3919 42.1579 80.5082 41.6876 80.5082 41.1631C80.5082 40.6386 80.3966 40.1774 80.1732 39.7795C79.9499 39.3816 79.6335 39.0741 79.2241 38.857C78.824 38.631 78.3634 38.5179 77.8423 38.5179C77.3213 38.5179 76.856 38.631 76.4466 38.857C76.0465 39.0741 75.7301 39.3816 75.4975 39.7795C75.2742 40.1774 75.1625 40.6386 75.1625 41.1631C75.1625 41.6876 75.2742 42.1579 75.4975 42.5739C75.7301 42.9899 76.0511 43.3155 76.4606 43.5506C76.87 43.7767 77.3306 43.8897 77.8423 43.8897Z" fill="#1A1A1A"/>
<path d="M87.4196 37.4191C88.1082 37.4191 88.7316 37.5729 89.2899 37.8803C89.8482 38.1788 90.2855 38.6038 90.6019 39.1555C90.9183 39.7071 91.0765 40.3357 91.0765 41.041C91.0765 41.7555 90.9183 42.3885 90.6019 42.9402C90.2855 43.4918 89.8482 43.9214 89.2899 44.2289C88.7409 44.5273 88.1175 44.6765 87.4196 44.6765C86.8241 44.6765 86.2844 44.559 85.8006 44.3238C85.326 44.0797 84.9352 43.727 84.6281 43.2657V47.2403H83.6372V37.4734H84.5863V38.8842C84.884 38.4139 85.2748 38.0522 85.7587 37.799C86.2519 37.5457 86.8055 37.4191 87.4196 37.4191ZM87.3498 43.8219C87.8616 43.8219 88.3268 43.7089 88.7456 43.4828C89.1643 43.2477 89.49 42.9176 89.7226 42.4925C89.9645 42.0675 90.0855 41.5837 90.0855 41.041C90.0855 40.4984 89.9645 40.0191 89.7226 39.6031C89.49 39.1781 89.1643 38.848 88.7456 38.6129C88.3268 38.3777 87.8616 38.2602 87.3498 38.2602C86.8288 38.2602 86.3589 38.3777 85.9401 38.6129C85.5307 38.848 85.2051 39.1781 84.9631 39.6031C84.7305 40.0191 84.6142 40.4984 84.6142 41.041C84.6142 41.5837 84.7305 42.0675 84.9631 42.4925C85.2051 42.9176 85.5307 43.2477 85.9401 43.4828C86.3589 43.7089 86.8288 43.8219 87.3498 43.8219Z" fill="#1A1A1A"/>
<path d="M99.626 41.3395H93.4848C93.5406 42.081 93.8337 42.6824 94.3641 43.1437C94.8945 43.5958 95.5644 43.8219 96.3739 43.8219C96.8299 43.8219 97.2486 43.745 97.6301 43.5913C98.0116 43.4285 98.3419 43.1934 98.6211 42.8859L99.1794 43.5099C98.8537 43.8897 98.4443 44.1791 97.9511 44.3781C97.4673 44.577 96.9322 44.6765 96.346 44.6765C95.5923 44.6765 94.9224 44.5228 94.3362 44.2153C93.7593 43.8988 93.308 43.4647 92.9823 42.913C92.6566 42.3614 92.4938 41.7374 92.4938 41.041C92.4938 40.3447 92.6473 39.7207 92.9544 39.169C93.2707 38.6174 93.6988 38.1878 94.2385 37.8803C94.7874 37.5729 95.4016 37.4191 96.0808 37.4191C96.7601 37.4191 97.3696 37.5729 97.9092 37.8803C98.4489 38.1878 98.8723 38.6174 99.1794 39.169C99.4864 39.7116 99.64 40.3357 99.64 41.041L99.626 41.3395ZM96.0808 38.2466C95.3737 38.2466 94.7781 38.4682 94.2943 38.9113C93.8197 39.3454 93.5499 39.9151 93.4848 40.6205H98.6909C98.6257 39.9151 98.3512 39.3454 97.8674 38.9113C97.3928 38.4682 96.7973 38.2466 96.0808 38.2466Z" fill="#1A1A1A"/>
<path d="M101.834 37.4734H102.825V40.6341H107.444V37.4734H108.435V44.6087H107.444V41.4616H102.825V44.6087H101.834V37.4734Z" fill="#1A1A1A"/>
<path d="M118.412 43.7677V46.3315H117.477V44.6087H110.903V46.3315H109.968V43.7677H110.387C110.88 43.7405 111.215 43.3878 111.392 42.7096C111.568 42.0313 111.689 41.0817 111.755 39.8609L111.852 37.4734H117.268V43.7677H118.412ZM112.662 39.9151C112.615 40.928 112.527 41.7645 112.397 42.4247C112.266 43.0758 112.034 43.5235 111.699 43.7677H116.277V38.328H112.746L112.662 39.9151Z" fill="#1A1A1A"/>
<path d="M126.523 37.4191C127.481 37.4191 128.216 37.6543 128.728 38.1245C129.24 38.5857 129.496 39.273 129.496 40.1864V44.6087H128.546V43.4963C128.323 43.8671 127.993 44.1565 127.556 44.3645C127.127 44.5725 126.616 44.6765 126.02 44.6765C125.201 44.6765 124.55 44.4866 124.066 44.1068C123.582 43.727 123.34 43.225 123.34 42.601C123.34 41.9951 123.564 41.5068 124.01 41.136C124.466 40.7652 125.187 40.5798 126.174 40.5798H128.505V40.1457C128.505 39.5308 128.328 39.065 127.974 38.7485C127.621 38.423 127.104 38.2602 126.425 38.2602C125.96 38.2602 125.513 38.337 125.085 38.4908C124.657 38.6355 124.289 38.839 123.982 39.1012L123.536 38.3823C123.908 38.0748 124.355 37.8397 124.876 37.6769C125.397 37.505 125.946 37.4191 126.523 37.4191ZM126.174 43.9169C126.732 43.9169 127.211 43.7948 127.611 43.5506C128.011 43.2974 128.309 42.9357 128.505 42.4654V41.2988H126.202C124.945 41.2988 124.317 41.7238 124.317 42.5739C124.317 42.9899 124.48 43.32 124.806 43.5642C125.132 43.7993 125.588 43.9169 126.174 43.9169Z" fill="#1A1A1A"/>
<path d="M137.326 38.328H133.125V44.6087H132.134V37.4734H137.326V38.328Z" fill="#1A1A1A"/>
<path d="M144.838 41.3395H138.696C138.752 42.081 139.045 42.6824 139.576 43.1437C140.106 43.5958 140.776 43.8219 141.586 43.8219C142.041 43.8219 142.46 43.745 142.842 43.5913C143.223 43.4285 143.554 43.1934 143.833 42.8859L144.391 43.5099C144.065 43.8897 143.656 44.1791 143.163 44.3781C142.679 44.577 142.144 44.6765 141.558 44.6765C140.804 44.6765 140.134 44.5228 139.548 44.2153C138.971 43.8988 138.52 43.4647 138.194 42.913C137.868 42.3614 137.705 41.7374 137.705 41.041C137.705 40.3447 137.859 39.7207 138.166 39.169C138.482 38.6174 138.91 38.1878 139.45 37.8803C139.999 37.5729 140.613 37.4191 141.292 37.4191C141.972 37.4191 142.581 37.5729 143.121 37.8803C143.661 38.1878 144.084 38.6174 144.391 39.169C144.698 39.7116 144.852 40.3357 144.852 41.041L144.838 41.3395ZM141.292 38.2466C140.585 38.2466 139.99 38.4682 139.506 38.9113C139.031 39.3454 138.761 39.9151 138.696 40.6205H143.902C143.837 39.9151 143.563 39.3454 143.079 38.9113C142.604 38.4682 142.009 38.2466 141.292 38.2466Z" fill="#1A1A1A"/>
<path d="M147.045 37.4734H148.036V40.6341H152.656V37.4734H153.647V44.6087H152.656V41.4616H148.036V44.6087H147.045V37.4734Z" fill="#1A1A1A"/>
<path d="M161.628 38.328H158.85V44.6087H157.859V38.328H155.082V37.4734H161.628V38.328Z" fill="#1A1A1A"/>
<path d="M165.791 44.6765C165.065 44.6765 164.413 44.5228 163.837 44.2153C163.269 43.9078 162.822 43.4783 162.497 42.9266C162.171 42.3659 162.008 41.7374 162.008 41.041C162.008 40.3447 162.171 39.7207 162.497 39.169C162.822 38.6174 163.269 38.1878 163.837 37.8803C164.413 37.5729 165.065 37.4191 165.791 37.4191C166.423 37.4191 166.986 37.5412 167.479 37.7854C167.982 38.0205 168.377 38.3687 168.666 38.8299L167.926 39.3183C167.684 38.9656 167.377 38.7033 167.005 38.5315C166.633 38.3506 166.228 38.2602 165.791 38.2602C165.26 38.2602 164.781 38.3777 164.353 38.6129C163.934 38.839 163.604 39.1645 163.362 39.5896C163.129 40.0146 163.013 40.4984 163.013 41.041C163.013 41.5927 163.129 42.081 163.362 42.5061C163.604 42.9221 163.934 43.2477 164.353 43.4828C164.781 43.7089 165.26 43.8219 165.791 43.8219C166.228 43.8219 166.633 43.736 167.005 43.5642C167.377 43.3923 167.684 43.1301 167.926 42.7774L168.666 43.2657C168.377 43.727 167.982 44.0797 167.479 44.3238C166.977 44.559 166.414 44.6765 165.791 44.6765Z" fill="#1A1A1A"/>
<path d="M175.613 38.328H172.835V44.6087H171.844V38.328H169.067V37.4734H175.613V38.328Z" fill="#1A1A1A"/>
<path d="M181.721 40.919C182.717 41.145 183.214 41.7283 183.214 42.6689C183.214 43.2929 182.977 43.7722 182.503 44.1068C182.028 44.4414 181.321 44.6087 180.381 44.6087H177.045V37.4734H180.283C181.121 37.4734 181.777 37.6317 182.251 37.9482C182.726 38.2647 182.963 38.7169 182.963 39.3047C182.963 39.6936 182.852 40.0282 182.628 40.3085C182.414 40.5798 182.112 40.7833 181.721 40.919ZM178.008 40.6477H180.214C180.781 40.6477 181.214 40.5437 181.512 40.3357C181.819 40.1277 181.972 39.8247 181.972 39.4268C181.972 39.0289 181.819 38.7304 181.512 38.5315C181.214 38.3325 180.781 38.233 180.214 38.233H178.008V40.6477ZM180.339 43.849C180.972 43.849 181.447 43.7496 181.763 43.5506C182.079 43.3517 182.237 43.0397 182.237 42.6146C182.237 42.1896 182.093 41.8776 181.805 41.6786C181.516 41.4706 181.06 41.3666 180.437 41.3666H178.008V43.849H180.339Z" fill="#1A1A1A"/>
<path d="M188.566 44.6765C187.859 44.6765 187.221 44.5228 186.654 44.2153C186.086 43.8988 185.639 43.4647 185.314 42.913C184.988 42.3614 184.825 41.7374 184.825 41.041C184.825 40.3447 184.988 39.7207 185.314 39.169C185.639 38.6174 186.086 38.1878 186.654 37.8803C187.221 37.5729 187.859 37.4191 188.566 37.4191C189.273 37.4191 189.91 37.5729 190.478 37.8803C191.045 38.1878 191.487 38.6174 191.804 39.169C192.13 39.7207 192.292 40.3447 192.292 41.041C192.292 41.7374 192.13 42.3614 191.804 42.913C191.487 43.4647 191.045 43.8988 190.478 44.2153C189.91 44.5228 189.273 44.6765 188.566 44.6765ZM188.566 43.8219C189.087 43.8219 189.552 43.7089 189.961 43.4828C190.38 43.2477 190.706 42.9176 190.938 42.4925C191.171 42.0675 191.287 41.5837 191.287 41.041C191.287 40.4984 191.171 40.0146 190.938 39.5896C190.706 39.1645 190.38 38.839 189.961 38.6129C189.552 38.3777 189.087 38.2602 188.566 38.2602C188.045 38.2602 187.575 38.3777 187.156 38.6129C186.747 38.839 186.421 39.1645 186.179 39.5896C185.946 40.0146 185.83 40.4984 185.83 41.041C185.83 41.5837 185.946 42.0675 186.179 42.4925C186.421 42.9176 186.747 43.2477 187.156 43.4828C187.575 43.7089 188.045 43.8219 188.566 43.8219Z" fill="#1A1A1A"/>
</svg>
