<svg width="463" height="74" viewBox="0 0 463 74" fill="none" xmlns="http://www.w3.org/2000/svg">
<rect y="57.1687" width="463" height="16.048" rx="8.02402" fill="#91EE22"/>
<path d="M447.835 47.8486C447.777 48.1347 447.749 48.5066 447.749 48.9643C447.749 49.9941 448.035 50.7378 448.606 51.1955C449.234 51.6532 450.234 51.8821 451.605 51.8821H456.831L454.603 64.3257H447.149C437.553 64.3257 432.754 60.2923 432.754 52.2254C432.754 51.0239 432.897 49.5078 433.183 47.677L436.61 28.6253H430.784L432.926 16.4391H438.752L440.809 4.76782H455.46L453.404 16.4391H463L460.858 28.6253H451.262L447.835 47.8486Z" fill="#1A1A1A"/>
<path d="M400.432 65.0122C396.662 65.0122 393.264 64.4114 390.236 63.21C387.266 62.0085 384.924 60.3494 383.21 58.2325C381.496 56.0585 380.64 53.5697 380.64 50.7663C380.64 50.3658 380.697 49.6507 380.811 48.6209H394.949C394.834 50.3945 395.349 51.8248 396.491 52.9118C397.691 53.9416 399.376 54.4565 401.546 54.4565C403.374 54.4565 404.888 54.1132 406.087 53.4267C407.287 52.7402 407.887 51.7675 407.887 50.5089C407.887 49.3074 407.23 48.3634 405.916 47.6769C404.659 46.9331 402.546 46.0463 399.576 45.0165C396.491 43.9867 393.892 42.9855 391.778 42.0129C389.722 40.983 387.951 39.5241 386.466 37.6361C384.981 35.7481 384.238 33.3738 384.238 30.5132C384.238 27.7098 385.067 25.1925 386.723 22.9612C388.38 20.6727 390.693 18.8991 393.663 17.6404C396.691 16.3818 400.175 15.7524 404.117 15.7524C408.058 15.7524 411.485 16.4104 414.399 17.7263C417.312 18.9849 419.568 20.7585 421.168 23.047C422.767 25.3355 423.567 27.91 423.567 30.7707L423.481 32.0579H410.2C410.314 30.3416 409.8 28.9685 408.658 27.9386C407.515 26.9088 405.887 26.3939 403.774 26.3939C402.117 26.3939 400.747 26.7372 399.661 27.4237C398.633 28.1103 398.119 29.0543 398.119 30.2557C398.119 31.5144 398.804 32.5728 400.175 33.431C401.603 34.232 403.803 35.1474 406.773 36.1772C409.857 37.207 412.399 38.2369 414.399 39.2667C416.455 40.2393 418.197 41.641 419.625 43.4718C421.11 45.2453 421.853 47.4766 421.853 50.1656C421.853 53.2551 420.911 55.9154 419.025 58.1467C417.198 60.378 414.656 62.0944 411.4 63.2958C408.201 64.4401 404.545 65.0122 400.432 65.0122Z" fill="#1A1A1A"/>
<path d="M324.146 40.2965C325.003 35.3762 326.688 31.0567 329.202 27.3379C331.715 23.6191 334.743 20.7585 338.284 18.7561C341.826 16.7537 345.567 15.7524 349.508 15.7524C352.879 15.7524 355.706 16.439 357.991 17.8121C360.276 19.1852 361.932 20.9874 362.961 23.2186L364.16 16.439H378.812L370.329 64.3256H355.678L356.963 57.546C355.135 59.7773 352.822 61.5794 350.023 62.9525C347.224 64.3256 344.139 65.0122 340.769 65.0122C337.399 65.0122 334.4 64.2398 331.772 62.6951C329.202 61.1503 327.202 58.9763 325.774 56.1729C324.346 53.3123 323.632 49.9654 323.632 46.1321C323.632 44.3013 323.804 42.3561 324.146 40.2965ZM359.962 40.3823C360.133 39.3525 360.219 38.4085 360.219 37.5503C360.219 34.7469 359.391 32.5442 357.734 30.9423C356.135 29.3403 354.078 28.5394 351.565 28.5394C348.652 28.5394 345.995 29.5978 343.596 31.7147C341.197 33.7743 339.684 36.6349 339.055 40.2965C338.884 41.3263 338.798 42.2703 338.798 43.1285C338.798 45.9319 339.598 48.1632 341.197 49.8223C342.854 51.4243 344.91 52.2252 347.366 52.2252C350.28 52.2252 352.936 51.1668 355.335 49.05C357.734 46.9331 359.276 44.0439 359.962 40.3823Z" fill="#1A1A1A"/>
<path d="M326.075 4.0813L324.019 15.6668H299.513L297.286 28.6253H315.622L313.565 39.7817H295.229L290.945 64.3258H276.293L286.918 4.0813H326.075Z" fill="#1A1A1A"/>
<path d="M219.886 40.2965C220.743 35.3763 222.428 31.0567 224.942 27.3379C227.455 23.6191 230.482 20.7585 234.024 18.7561C237.566 16.7537 241.307 15.7525 245.248 15.7525C248.39 15.7525 251.132 16.4104 253.474 17.7263C255.873 19.0422 257.615 20.8157 258.701 23.047L262.642 0.820068H277.294L266.069 64.3256H251.418L252.617 57.4602C250.789 59.7487 248.504 61.5795 245.763 62.9525C243.021 64.3256 239.965 65.0122 236.595 65.0122C233.224 65.0122 230.225 64.2398 227.598 62.6951C225.027 61.1504 223 58.9477 221.514 56.0871C220.086 53.2265 219.372 49.8796 219.372 46.0463C219.372 44.2728 219.544 42.3561 219.886 40.2965ZM255.702 40.3823C255.873 39.3525 255.959 38.4085 255.959 37.5503C255.959 34.7469 255.131 32.5442 253.474 30.9423C251.875 29.3404 249.818 28.5394 247.305 28.5394C244.392 28.5394 241.735 29.5978 239.336 31.7147C236.937 33.7743 235.424 36.6349 234.795 40.2965C234.624 41.3263 234.538 42.2703 234.538 43.1285C234.538 45.9319 235.338 48.1632 236.937 49.8223C238.594 51.4243 240.65 52.2253 243.106 52.2253C246.02 52.2253 248.676 51.1668 251.075 49.05C253.474 46.9331 255.016 44.0439 255.702 40.3823Z" fill="#1A1A1A"/>
<path d="M198.771 15.9241C203.569 15.9241 207.339 17.2686 210.081 19.9575C212.823 22.6465 214.194 26.3939 214.194 31.1997C214.194 32.8017 214.022 34.518 213.68 36.3488L208.71 64.3256H194.144L198.771 38.3227C198.942 37.3501 199.028 36.4919 199.028 35.7481C199.028 33.3452 198.343 31.4858 196.972 30.1699C195.658 28.854 193.801 28.1961 191.402 28.1961C188.546 28.1961 186.147 29.0829 184.205 30.8565C182.263 32.63 181.006 35.1188 180.435 38.3227V37.8936L175.808 64.3256H161.156L169.553 16.439H184.205L183.091 22.8754C184.976 20.7585 187.261 19.0707 189.946 17.8121C192.687 16.5534 195.629 15.9241 198.771 15.9241Z" fill="#1A1A1A"/>
<path d="M104.749 40.2965C105.606 35.3762 107.291 31.0567 109.804 27.3379C112.318 23.6191 115.345 20.7585 118.887 18.7561C122.428 16.7537 126.17 15.7524 130.111 15.7524C133.481 15.7524 136.309 16.439 138.594 17.8121C140.879 19.1852 142.535 20.9874 143.563 23.2186L144.763 16.439H159.415L150.932 64.3256H136.28L137.565 57.546C135.738 59.7773 133.424 61.5794 130.625 62.9525C127.826 64.3256 124.742 65.0122 121.371 65.0122C118.001 65.0122 115.002 64.2398 112.375 62.6951C109.804 61.1503 107.805 58.9763 106.377 56.1729C104.949 53.3123 104.235 49.9654 104.235 46.1321C104.235 44.3013 104.406 42.3561 104.749 40.2965ZM140.564 40.3823C140.736 39.3525 140.821 38.4085 140.821 37.5503C140.821 34.7469 139.993 32.5442 138.337 30.9423C136.737 29.3403 134.681 28.5394 132.167 28.5394C129.254 28.5394 126.598 29.5978 124.199 31.7147C121.8 33.7743 120.286 36.6349 119.658 40.2965C119.486 41.3263 119.401 42.2703 119.401 43.1285C119.401 45.9319 120.2 48.1632 121.8 49.8223C123.456 51.4243 125.513 52.2252 127.969 52.2252C130.882 52.2252 133.538 51.1668 135.937 49.05C138.337 46.9331 139.879 44.0439 140.564 40.3823Z" fill="#1A1A1A"/>
<path d="M88.6109 25.1066C90.8386 22.246 93.3805 20.0147 96.2366 18.4128C99.1498 16.7537 102.177 15.9241 105.319 15.9241L102.577 31.4572H98.55C94.8943 31.4572 92.0096 32.2582 89.8961 33.8601C87.7826 35.4048 86.3831 38.151 85.6976 42.0987L81.7562 64.3256H67.1045L75.5014 16.439H90.1531L88.6109 25.1066Z" fill="#1A1A1A"/>
<path d="M65.4942 19.7002C64.8659 23.2474 63.4093 26.1938 61.1244 28.5395C58.8395 30.8852 56.0977 32.5158 52.8988 33.4312C55.7549 34.0605 58.0112 35.4622 59.6678 37.6363C61.3243 39.8103 62.1526 42.3563 62.1526 45.2741C62.1526 46.1895 62.0669 47.0763 61.8955 47.9345C61.0387 52.9692 58.5825 56.974 54.5268 59.949C50.4712 62.8669 45.3016 64.3258 39.0182 64.3258H11L21.6247 4.0813H48.7004C54.127 4.0813 58.3254 5.19694 61.2957 7.42821C64.2661 9.65949 65.7513 12.749 65.7513 16.6966C65.7513 17.6692 65.6656 18.6704 65.4942 19.7002ZM41.503 28.5395C43.9593 28.5395 45.93 27.996 47.4151 26.909C48.9003 25.8219 49.8143 24.2486 50.157 22.189C50.2141 21.8457 50.2427 21.388 50.2427 20.8159C50.2427 19.1567 49.7 17.8981 48.6147 17.0399C47.5294 16.1245 45.93 15.6668 43.8165 15.6668H34.22L31.9923 28.5395H41.503ZM47.3295 45.9607C47.4437 45.2741 47.5008 44.7592 47.5008 44.4159C47.5008 42.7568 46.9011 41.4695 45.7015 40.5541C44.5019 39.5815 42.8454 39.0952 40.7319 39.0952H30.1072L27.7081 52.6545H38.5041C41.0175 52.6545 43.0168 52.0824 44.5019 50.9381C45.9871 49.7939 46.9296 48.1347 47.3295 45.9607Z" fill="#1A1A1A"/>
</svg>
