<svg width="366" height="365" viewBox="0 0 366 365" fill="none" xmlns="http://www.w3.org/2000/svg">
<g clip-path="url(#clip0_118_2806)">
<path d="M51.3602 212.742C48.0328 209.021 26.087 184.132 24.9336 165.118C24.7729 162.473 24.5237 158.363 26.7501 154.173C31.1967 145.802 39.7363 147.99 43.4234 141.715C48.284 133.438 36.0452 125.184 37.516 106.039C37.8696 101.448 38.4182 94.2986 43.546 88.8714C49.2705 82.8126 54.8102 85.1362 60.7377 79.8954C68.13 73.3615 64.1475 65.6526 69.2191 54.5375C74.5619 42.8269 88.7638 29.9333 103.633 31.9824C116.597 33.7687 125.151 46.2372 128.201 55.8266C132.708 69.9952 127.453 84.9478 119.434 93.9598C107.907 106.913 91.2714 106.913 91.414 113.095C91.5467 118.851 105.976 119.095 108.927 128.853C110.989 135.668 106.719 144.696 100.482 148.964C91.836 154.883 83.2883 149.002 78.7533 154.181C73.9972 159.61 81.1906 168.592 80.4431 179.479C79.8263 188.459 73.7179 200.023 51.3582 212.744L51.3602 212.742Z" fill="white"/>
<path d="M51.3604 213.183C51.2378 213.183 51.1172 213.133 51.0308 213.037C45.0832 206.389 25.5928 183.29 24.4937 165.146C24.3269 162.407 24.0778 158.267 26.3624 153.968C28.8379 149.311 32.6174 147.791 35.9549 146.452C38.7679 145.321 41.4243 144.255 43.0438 141.494C45.2882 137.675 43.7189 133.883 41.5468 128.635C39.214 122.999 36.3105 115.984 37.0781 106.007C37.4418 101.27 37.9923 94.1102 43.2266 88.5706C46.331 85.2846 49.4254 84.3864 52.4193 83.5163C55.0274 82.7584 57.7219 81.9765 60.4465 79.5666C64.5475 75.9418 65.0318 72.0262 65.6446 67.0681C66.1027 63.369 66.6191 59.1768 68.8214 54.355C74.6484 41.5838 89.2843 29.5564 103.695 31.5453C116.155 33.2615 125.193 44.9099 128.625 55.6923C133.574 71.2463 126.947 86.1848 119.768 94.2505C113.573 101.212 105.835 104.508 100.183 106.913C95.3163 108.987 91.798 110.484 91.8582 113.083C91.9125 115.422 94.824 116.86 98.1956 118.524C102.421 120.609 107.682 123.203 109.353 128.727C111.385 135.443 107.519 144.686 100.735 149.329C96.1361 152.477 91.6312 152.373 87.6567 152.282C84.1605 152.202 81.1385 152.132 79.091 154.472C76.5572 157.365 77.6282 161.344 78.9825 166.385C80.0314 170.284 81.2189 174.705 80.8893 179.511C80.0856 191.211 70.2259 202.523 51.5814 213.129C51.5131 213.167 51.4387 213.187 51.3624 213.187L51.3604 213.183ZM100.506 32.2089C87.5342 32.2089 74.8996 43.1536 69.6231 54.7199C67.4791 59.4214 66.9688 63.5415 66.5207 67.1763C65.9099 72.1144 65.3834 76.3808 61.0332 80.2262C58.1599 82.7664 55.3669 83.5764 52.6664 84.3623C49.6544 85.2365 46.8092 86.0645 43.8696 89.1741C38.8483 94.4891 38.3138 101.46 37.9582 106.075C37.2067 115.843 40.066 122.75 42.3626 128.3C44.5467 133.575 46.2707 137.743 43.8053 141.939C42.0311 144.958 39.2401 146.079 36.2844 147.268C32.9329 148.615 29.4668 150.007 27.142 154.381C24.9739 158.461 25.2151 162.451 25.3758 165.092C26.4669 183.092 46.757 206.9 51.4528 212.185C69.6231 201.785 79.2296 190.772 80.0073 179.449C80.3267 174.789 79.1593 170.445 78.1285 166.611C76.7622 161.527 75.5827 157.138 78.4259 153.892C80.7467 151.244 83.9576 151.318 87.6768 151.402C91.5166 151.492 95.8729 151.591 100.237 148.603C106.617 144.237 110.406 135.251 108.509 128.981C106.95 123.825 102.092 121.427 97.8058 119.314C94.177 117.523 91.0445 115.978 90.9781 113.105C90.9038 109.911 94.6512 108.315 99.8372 106.105C105.411 103.732 113.045 100.48 119.109 93.6671C126.133 85.7738 132.621 71.1621 127.785 55.9589C124.437 45.4412 115.655 34.0815 103.577 32.4174C102.554 32.2771 101.531 32.2089 100.508 32.2089H100.506Z" fill="#1A1A1A"/>
<path d="M49.6122 209.61C49.3992 209.61 49.2103 209.454 49.1762 209.238C46.3209 190.706 47.1488 171.598 51.6356 152.441C55.2222 137.121 61.1437 121.738 69.2352 106.715C83.0091 81.1425 98.5231 65.2717 98.6778 65.1133C98.8486 64.9389 99.1279 64.9369 99.3007 65.1073C99.4735 65.2777 99.4775 65.5564 99.3067 65.7288C99.152 65.8852 83.7144 81.6858 70.0008 107.154C57.3541 130.641 43.6244 167.393 50.0502 209.101C50.0864 209.342 49.9216 209.566 49.6805 209.602C49.6584 209.606 49.6343 209.608 49.6122 209.608V209.61Z" fill="#1A1A1A"/>
<path d="M51.3607 212.742C12.1668 172.818 7.01493 150.857 10.7844 137.859C11.9096 133.979 15.1225 126.341 14.6785 115.374C14.1018 101.149 7.93319 95.1525 4.38673 84.5025C-2.55145 63.6736 4.98752 38.3979 18.016 22.6794C27.1162 11.7006 46.6769 -4.00778 64.4856 1.63602C72.0165 4.02185 81.2614 10.8706 81.169 18.3569C81.0384 29.0711 60.8226 30.8374 56.8441 46.6761C54.674 55.3192 60.0309 57.264 57.6478 66.4203C53.8944 80.8496 38.8446 82.7362 39.1621 91.8525C39.4695 100.682 53.808 101.165 55.8495 111.877C58.1803 124.095 41.8626 132.023 45.3206 143.338C47.3802 150.077 53.589 148.653 56.8099 156.168C60.7281 165.312 53.6774 172.409 51.005 189.204C49.5061 198.621 50.4384 206.653 51.3607 212.744V212.742Z" fill="white"/>
<path d="M51.3624 213.183C51.2459 213.183 51.1314 213.137 51.047 213.051C33.1741 194.846 20.8991 178.811 14.5637 165.39C9.54042 154.75 8.12586 145.446 10.3622 137.737C10.5391 137.129 10.7601 136.446 11.0173 135.654C12.3615 131.513 14.6099 124.583 14.2382 115.39C13.8605 106.057 11.0916 100.385 8.16002 94.3787C6.6912 91.3714 5.17417 88.2598 3.96857 84.6409C-3.49204 62.2422 5.84327 36.6757 17.6762 22.3988C26.467 11.7929 46.2467 -4.60517 64.62 1.21706C71.735 3.47257 81.7092 10.2812 81.6108 18.363C81.5465 23.6639 76.9291 26.7675 71.5843 30.3623C65.8376 34.2257 59.3254 38.6064 57.2719 46.7844C56.2351 50.9105 56.9504 53.4246 57.7059 56.0851C58.4976 58.872 59.3174 61.753 58.0736 66.5327C56.0683 74.2375 51.0108 78.3435 46.5501 81.9644C42.5877 85.1802 39.4592 87.7205 39.6019 91.8385C39.7445 95.9365 43.0419 98.1139 46.8596 100.636C50.7717 103.22 55.2043 106.147 56.2813 111.795C57.4668 118.012 53.9987 123.099 50.6431 128.021C47.2534 132.993 44.0525 137.689 45.7404 143.212C46.7209 146.424 48.6378 147.659 50.8581 149.088C53.0563 150.506 55.5479 152.112 57.2136 155.997C59.6429 161.665 57.9952 166.501 55.7146 173.193C54.2056 177.622 52.4937 182.644 51.4388 189.277C50.0001 198.319 50.8119 206.182 51.7945 212.68C51.8226 212.868 51.7261 213.055 51.5553 213.139C51.4931 213.171 51.4247 213.185 51.3584 213.185L51.3624 213.183ZM56.6048 0.876223C41.0908 0.876223 25.7677 14.0143 18.3533 22.9602C6.67111 37.0546 -2.55168 62.2823 4.80445 84.3643C5.99196 87.929 7.49694 91.0125 8.95169 93.9958C11.9235 100.087 14.7325 105.839 15.1183 115.356C15.4981 124.705 13.2175 131.728 11.8552 135.924C11.6 136.71 11.381 137.388 11.2082 137.981C9.03407 145.48 10.4306 154.574 15.3614 165.015C21.5421 178.107 33.4393 193.732 50.7295 211.465C49.8334 205.167 49.2125 197.679 50.5728 189.134C51.6397 182.428 53.3637 177.37 54.8848 172.907C57.1031 166.399 58.7045 161.697 56.4079 156.34C54.8486 152.701 52.5801 151.24 50.3859 149.824C48.1194 148.363 45.9775 146.983 44.9025 143.465C43.0921 137.538 46.5622 132.446 49.9198 127.522C53.1729 122.75 56.5385 117.814 55.4213 111.956C54.4146 106.673 50.3297 103.974 46.3793 101.366C42.5255 98.8196 38.8846 96.4157 38.7258 91.8646C38.5671 87.3094 42.0111 84.5146 45.9976 81.2767C50.3538 77.7401 55.2927 73.7323 57.2257 66.3061C58.4091 61.757 57.6577 59.1166 56.862 56.3197C56.1065 53.6652 55.3268 50.9205 56.4199 46.5659C58.5558 38.0591 65.2187 33.5801 71.096 29.6265C76.2358 26.17 80.6724 23.1867 80.7327 18.3469C80.8151 11.5142 72.2976 4.56724 64.3567 2.05109C61.7928 1.23911 59.1988 0.872213 56.6088 0.872213L56.6048 0.876223Z" fill="#1A1A1A"/>
<path d="M48.965 208.486C48.7983 208.486 48.6395 208.391 48.5652 208.231C38.7155 186.987 31.4196 164.516 26.8786 141.444C22.9383 121.415 21.3248 101.969 22.2149 85.2104C23.5813 59.4675 30.5154 41.2249 36.0933 30.4546C42.1474 18.762 47.9724 13.0801 48.0307 13.024C48.2055 12.8556 48.4848 12.8616 48.6536 13.034C48.8224 13.2084 48.8183 13.4871 48.6435 13.6555C48.5853 13.7117 42.8446 19.3194 36.8548 30.8997C31.3272 41.5878 24.4533 59.694 23.097 85.2565C21.1299 122.309 30.9494 168.143 49.3669 207.862C49.4694 208.083 49.3729 208.345 49.1519 208.446C49.0916 208.474 49.0293 208.486 48.967 208.486H48.965Z" fill="#1A1A1A"/>
<path d="M231.581 269.808L156.617 270.275C156.131 270.275 155.972 270.724 155.972 271.153V334.486C155.972 340.548 112.719 356.303 112.303 355.503L112.251 362.205C112.247 363.452 113.352 364.561 114.761 364.561H179.23C182.147 364.561 185.027 363.914 187.667 362.815L222.225 348.366C228.446 345.765 232.37 340.178 232.37 334.085V270.688C232.37 270.257 232.065 269.81 231.581 269.81V269.808Z" fill="#1A1A1A"/>
<path d="M179.229 365H114.762C113.95 365 113.193 364.689 112.626 364.124C112.098 363.597 111.809 362.915 111.811 362.205L111.863 355.501C111.863 355.298 112.003 355.124 112.2 355.076C112.289 355.054 112.379 355.062 112.46 355.092C114.957 354.982 147.458 342.984 154.34 336.362C155.322 335.418 155.527 334.82 155.527 334.486V271.153C155.527 270.351 155.953 269.834 156.614 269.834L231.576 269.366H231.578C232.34 269.366 232.81 270.05 232.81 270.686V334.083C232.81 340.36 228.721 346.124 222.394 348.77L187.835 363.22C185.034 364.385 182.056 365 179.227 365H179.229ZM112.741 355.94L112.693 362.207C112.693 362.678 112.89 363.14 113.251 363.501C113.649 363.899 114.186 364.118 114.762 364.118H179.229C181.944 364.118 184.803 363.527 187.498 362.406L222.054 347.957C228.052 345.448 231.928 340.001 231.928 334.081V270.684C231.928 270.507 231.817 270.247 231.58 270.245L156.616 270.712C156.436 270.712 156.409 270.986 156.409 271.151V334.484C156.409 340.659 118.212 354.621 113.199 355.836C113.038 355.876 112.884 355.912 112.739 355.938L112.741 355.94Z" fill="#1A1A1A"/>
<path d="M147.524 266.774V330.121C147.524 336.366 143.477 342.056 137.117 344.751L113.805 354.631C112.282 355.276 112.801 357.303 114.49 357.303H178.542C181.421 357.303 184.266 356.738 186.872 355.649L212.702 344.851C219.108 342.172 223.195 336.46 223.195 330.185V266.776C223.195 266.517 222.958 266.307 222.664 266.307H148.054C147.761 266.307 147.524 266.517 147.524 266.776V266.774Z" fill="white"/>
<path d="M178.54 357.742H114.489C113.325 357.742 112.648 356.982 112.496 356.233C112.321 355.381 112.767 354.593 113.633 354.226L136.945 344.346C143.104 341.735 147.082 336.152 147.082 330.121V266.774C147.082 266.273 147.518 265.864 148.052 265.864H222.663C223.197 265.864 223.633 266.271 223.633 266.774V330.185C223.633 336.607 219.408 342.523 212.869 345.258L187.039 356.056C184.397 357.161 181.459 357.744 178.538 357.744L178.54 357.742ZM147.964 266.778V330.121C147.964 336.506 143.775 342.407 137.291 345.156L113.978 355.036C113.418 355.274 113.293 355.719 113.362 356.056C113.444 356.457 113.824 356.862 114.491 356.862H178.542C181.345 356.862 184.168 356.303 186.702 355.242L212.532 344.444C218.742 341.847 222.755 336.25 222.755 330.183V266.772C222.755 266.772 222.721 266.742 222.667 266.742H148.056C148.004 266.742 147.974 266.766 147.968 266.776L147.964 266.778Z" fill="#1A1A1A"/>
<path d="M10.5088 302.601L334.09 302.888C336.919 302.888 339.3 300.983 339.66 298.191L365.486 97.5944C366.113 92.7285 362.54 88.1333 357.609 88.1333L343.982 88.1814L189.134 99.5893L38.1631 89.242L10.5088 302.601Z" fill="#1A1A1A"/>
<path d="M334.092 303.329L10.511 303.043C10.3844 303.043 10.2638 302.988 10.1794 302.892C10.095 302.798 10.0569 302.672 10.0729 302.545L37.7292 89.188C37.7594 88.9574 37.9643 88.793 38.1974 88.8051L189.136 99.1483L343.952 87.7425L357.609 87.6943C359.976 87.6943 362.158 88.6908 363.754 90.5012C365.468 92.4459 366.259 95.0523 365.924 97.6507L340.098 298.247C339.718 301.19 337.193 303.327 334.09 303.327L334.092 303.329ZM11.0113 302.162L334.092 302.449C336.744 302.449 338.902 300.635 339.224 298.137L365.05 97.5404C365.353 95.1907 364.64 92.8389 363.093 91.0846C361.666 89.4667 359.721 88.5765 357.611 88.5765L343.986 88.6246L189.168 100.032C189.148 100.032 189.126 100.032 189.106 100.032L38.549 89.7153L11.0113 302.162Z" fill="#1A1A1A"/>
<path d="M7.82613 302.311H324.907C327.734 302.311 330.121 300.216 330.483 297.415L356.508 98.7032C357.219 93.1977 352.925 88.3198 347.365 88.3198L33.9594 88.8271C31.1323 88.8271 28.7452 90.9222 28.3835 93.723L2.25027 295.979C1.81625 299.338 4.4344 302.311 7.82613 302.311Z" fill="white"/>
<path d="M324.907 302.752H7.82637C6.08429 302.752 4.4266 302.004 3.27526 300.697C2.12391 299.39 1.59144 297.65 1.81448 295.923L27.9477 93.667C28.3355 90.6576 30.9215 88.3881 33.9596 88.3881L347.366 87.8809C350.14 87.8809 352.783 89.0738 354.617 91.1529C356.452 93.2359 357.302 96.0067 356.946 98.7594L330.921 297.473C330.534 300.482 327.948 302.752 324.909 302.752H324.907ZM347.368 88.761L33.9616 89.2683C31.3636 89.2683 29.1553 91.207 28.8238 93.7793L2.68853 296.036C2.49765 297.511 2.95376 298.999 3.93833 300.116C4.92089 301.23 6.33947 301.872 7.82637 301.872H324.907C327.503 301.872 329.714 299.933 330.045 297.361L356.072 98.6472C356.396 96.1471 355.624 93.6289 353.956 91.7363C352.29 89.8457 349.889 88.763 347.368 88.763V88.761Z" fill="#1A1A1A"/>
<path d="M319.203 288.126H15.884C14.1379 288.126 12.4983 287.398 11.3891 286.127C10.3583 284.948 9.90424 283.463 10.1132 281.947L35.1112 100.53C35.4869 97.8091 37.9664 95.7581 40.882 95.7581H340.289C343.072 95.7581 345.68 96.9169 347.448 98.9398C349.084 100.812 349.803 103.168 349.472 105.572L324.974 283.356C324.6 286.077 322.119 288.128 319.203 288.128V288.126ZM40.884 96.6362C38.4085 96.6362 36.3027 98.3604 35.9873 100.648L10.9893 282.065C10.8165 283.326 11.1942 284.563 12.0542 285.548C12.9966 286.626 14.3931 287.244 15.884 287.244H319.203C321.679 287.244 323.784 285.52 324.1 283.234L348.598 105.45C348.893 103.3 348.25 101.193 346.783 99.5152C345.184 97.6848 342.819 96.6362 340.289 96.6362H40.884Z" fill="#1A1A1A"/>
<path d="M105.301 104.243C105.377 102.853 104.907 101.494 103.989 100.447C101.597 97.7248 96.106 93.1958 86.9535 94.8318C74.138 97.1214 67.0471 107.116 64.1979 116.757C55.0274 147.807 20.7765 135.541 6.69315 154.187C-4.84036 169.456 2.81717 207.485 29.4708 204.941C56.1245 202.397 91.366 155.442 91.366 155.442L104.181 124.394L105.303 104.245L105.301 104.243Z" fill="#1A1A1A"/>
<path d="M30.4778 191.243L27.4639 186.193C27.4639 186.193 50.9167 158.694 71.7815 154.205L97.5108 160.125C97.5108 160.125 109.223 163.373 114.687 170.667C120.15 177.963 127.42 194.417 127.42 194.417L121.751 196.949L128.251 253.63C128.251 253.63 114.122 264.292 101.124 265.695C88.1253 267.099 62.6933 268.502 50.5429 276.638C50.5429 276.638 36.1321 265.134 35.2842 259.803C35.2842 259.803 48.5658 212.756 30.4799 191.243H30.4778Z" fill="white"/>
<path d="M50.5391 277.077C50.4407 277.077 50.3442 277.045 50.2638 276.981C49.6691 276.506 35.7083 265.306 34.8443 259.869C34.8343 259.807 34.8383 259.743 34.8564 259.681C34.989 259.213 47.8667 212.61 30.1385 191.524C30.1224 191.506 30.1103 191.486 30.0983 191.466L27.0843 186.416C26.9879 186.253 27.0059 186.049 27.1265 185.904C27.3616 185.628 50.9169 158.239 71.6872 153.772C71.7515 153.758 71.8158 153.76 71.8801 153.772L97.6095 159.692C98.1118 159.831 109.549 163.068 115.038 170.4C120.47 177.652 127.747 194.07 127.822 194.237C127.92 194.457 127.822 194.716 127.599 194.816L122.226 197.216L128.688 253.578C128.706 253.732 128.639 253.884 128.515 253.979C128.372 254.085 114.138 264.731 101.17 266.13C99.4802 266.313 97.5633 266.497 95.5319 266.692C81.8866 268.001 61.2689 269.982 50.7863 277.001C50.7119 277.051 50.6255 277.075 50.5411 277.075L50.5391 277.077ZM35.7324 259.823C36.6246 264.587 48.6705 274.549 50.5652 276.091C61.3091 269.094 81.8283 267.123 95.4455 265.816C97.4729 265.621 99.3878 265.437 101.072 265.254C112.965 263.971 126.011 254.714 127.779 253.423L121.309 196.995C121.287 196.805 121.392 196.622 121.567 196.544L126.833 194.191C125.684 191.63 119.228 177.468 114.329 170.926C109.018 163.832 97.505 160.576 97.3885 160.544L71.7756 154.652C52.3455 158.898 30.3615 183.54 28.0026 186.237L30.8357 190.985C40.2514 202.212 41.0712 220.364 40.0987 233.619C39.098 247.26 36.0499 258.656 35.7304 259.821L35.7324 259.823Z" fill="#1A1A1A"/>
<path d="M41.4668 264.705C41.4668 264.705 32.6258 270.008 27.1162 287.685H102.705L101.122 265.695L41.4668 264.705Z" fill="#1A1A1A"/>
<path d="M50.5396 277.077C50.4411 277.077 50.3447 277.045 50.2643 276.981C50.2221 276.947 45.9302 273.512 41.9316 269.575C41.7588 269.404 41.7568 269.126 41.9276 268.953C42.0984 268.781 42.3777 268.779 42.5525 268.949C45.9664 272.311 49.5972 275.305 50.5657 276.093C61.3095 269.096 81.8288 267.125 95.4459 265.818C97.4733 265.623 99.3882 265.439 101.072 265.256C105.326 264.797 110.158 263.285 115.437 260.761C115.656 260.657 115.921 260.749 116.025 260.968C116.13 261.186 116.037 261.449 115.818 261.555C110.45 264.121 105.521 265.661 101.168 266.13C99.4786 266.313 97.5617 266.497 95.5303 266.692C81.887 268.001 61.2674 269.982 50.7847 277.001C50.7104 277.051 50.624 277.075 50.5396 277.075V277.077Z" fill="#1A1A1A"/>
<path d="M104.999 215.807C104.987 215.807 104.975 215.807 104.961 215.807C104.718 215.787 104.537 215.575 104.559 215.332L106.066 197.374C106.087 197.132 106.3 196.949 106.543 196.973C106.786 196.993 106.967 197.206 106.945 197.448L105.438 215.406C105.417 215.637 105.225 215.809 104.997 215.809L104.999 215.807Z" fill="#1A1A1A"/>
<path d="M104.588 236.961C101.345 237.765 88.5553 234.804 87.7455 234C87.7455 234 95.0414 232.44 96.7634 231.233C98.4854 230.026 98.9917 228.819 98.6883 227.713C98.3849 226.606 85.897 228.296 82.9593 229.302C80.0217 230.309 76.6018 232.791 73.9676 233.597C73.3809 233.777 71.5805 234.036 69.0367 234.301C69.093 233.836 37.3276 235.008 28.7679 232.422C28.7679 232.422 43.233 217.66 51.9093 209.502C53.5549 207.954 53.9769 205.51 52.932 203.513C46.5082 191.221 36.3451 189.222 31.5066 189.012C22.6395 201.144 13.8829 215.36 9.67936 221.636C1.51347 233.819 -3.11802 248.604 3.8463 250.893C20.6985 256.431 71.7855 247.351 74.271 247.585C80.6546 248.189 88.3544 250.905 92.4072 250.101C96.46 249.297 111.875 244.74 113.76 240.249C115.231 236.745 107.833 236.159 104.59 236.965L104.588 236.961Z" fill="white"/>
<path d="M20.2463 253.109C13.5532 253.109 7.67794 252.611 3.70551 251.308C2.13824 250.793 1.05321 249.686 0.476532 248.016C-1.62723 241.917 3.58093 229.938 9.30951 221.389C10.489 219.629 12.0382 217.227 13.8325 214.444C18.4479 207.287 24.7672 197.483 31.1488 188.751C31.2352 188.631 31.3759 188.559 31.5246 188.571C36.9116 188.805 46.9059 191.031 53.3217 203.309C54.4489 205.468 53.9928 208.145 52.2105 209.823C44.5691 217.006 32.2861 229.469 29.6077 232.193C36.1601 233.797 52.9359 233.759 62.1085 233.737C67.3548 233.727 68.687 233.737 69.117 233.85C71.9381 233.555 73.4049 233.308 73.8369 233.176C75.1309 232.781 76.6238 231.965 78.2031 231.103C79.7403 230.263 81.3316 229.395 82.8145 228.887C85.5291 227.959 97.0586 226.281 98.7424 227.171C98.9855 227.3 99.078 227.474 99.1121 227.598C99.3774 228.565 99.2287 230.042 97.0144 231.594C95.6842 232.526 91.3682 233.617 89.158 234.134C92.4271 235.177 101.754 237.212 104.481 236.536C107.147 235.874 112.247 236.113 113.855 237.984C114.262 238.457 114.646 239.265 114.164 240.418C112.171 245.169 96.5161 249.73 92.4914 250.53C89.9717 251.032 86.1721 250.236 82.1494 249.392C79.4971 248.836 76.7544 248.261 74.2287 248.022C73.7525 247.984 70.7425 248.387 66.9328 248.906C56.4462 250.336 36.0717 253.111 20.2483 253.111L20.2463 253.109ZM31.7215 189.461C25.4022 198.124 19.1492 207.824 14.5739 214.919C12.7776 217.704 11.2264 220.11 10.0429 221.876C3.18108 232.113 -0.409579 242.745 1.3104 247.727C1.79264 249.123 2.6908 250.047 3.98079 250.47C17.1479 254.797 51.9493 250.055 66.8103 248.03C71.6085 247.377 73.7525 247.088 74.3091 247.142C76.885 247.387 79.6539 247.966 82.3283 248.527C86.2605 249.351 89.9737 250.129 92.3166 249.664C96.7894 248.776 111.616 244.203 113.348 240.075C113.603 239.465 113.551 238.982 113.183 238.555C111.859 237.013 107.119 236.785 104.692 237.388C101.288 238.234 88.3542 235.227 87.432 234.313C87.3174 234.198 87.2732 234.032 87.3194 233.876C87.3656 233.721 87.4922 233.603 87.651 233.569C89.6563 233.14 95.1558 231.821 96.5081 230.872C97.9045 229.894 98.5013 228.901 98.2843 227.923C96.9863 227.32 85.9451 228.745 83.0999 229.719C81.6873 230.203 80.1301 231.053 78.6251 231.875C77.0036 232.761 75.4725 233.597 74.0941 234.018C73.4651 234.21 71.6387 234.473 69.0808 234.738C68.9884 234.744 68.9 234.728 68.8216 234.686C68.2912 234.603 65.4178 234.611 62.1105 234.617C51.8669 234.643 34.7214 234.68 28.6392 232.841C28.4925 232.797 28.378 232.679 28.3398 232.53C28.3016 232.382 28.3438 232.224 28.4523 232.113C28.597 231.965 43.0219 217.251 51.6077 209.181C53.1047 207.774 53.4885 205.526 52.5421 203.716C46.4217 192.007 36.9718 189.744 31.7235 189.463L31.7215 189.461ZM68.5966 234.255C68.5966 234.267 68.5966 234.277 68.5946 234.289C68.5946 234.277 68.5946 234.267 68.5966 234.255Z" fill="#1A1A1A"/>
<path d="M123.648 192.919C123.648 192.919 129.19 203.493 135.248 212.447C137.569 215.878 142.178 216.886 145.739 214.765C149.974 212.241 155.1 208.991 157.917 206.489C163.286 201.719 173.749 190.6 176.568 186.566C181.669 179.262 178.047 179.176 180.319 171.549C181.41 167.89 182.296 157.974 183.934 157.535C186.612 156.817 189.994 160.761 189.301 168.506C188.73 174.867 191.889 176.664 192.725 179.807C194.119 185.046 194.061 187.727 194.061 187.727C194.061 187.727 160.989 228.296 145.451 240.606C140.693 244.375 134.191 245.139 128.637 242.665L124.478 240.814L119.015 192.364L123.646 192.917L123.648 192.919Z" fill="white"/>
<path d="M135.382 244.548C133.045 244.548 130.688 244.06 128.458 243.068L124.299 241.217C124.156 241.153 124.058 241.019 124.04 240.865L118.576 192.414C118.56 192.282 118.608 192.147 118.703 192.053C118.799 191.959 118.932 191.913 119.067 191.929L123.698 192.482C123.843 192.5 123.969 192.587 124.036 192.715C124.092 192.821 129.638 203.371 135.611 212.2C137.797 215.432 142.146 216.393 145.511 214.386C149.46 212.032 154.766 208.696 157.621 206.158C163.083 201.306 173.503 190.177 176.204 186.313C179.151 182.095 179.107 180.423 179.045 178.109C179.001 176.459 178.95 174.587 179.893 171.425C180.266 170.168 180.62 168.147 180.992 166.006C182.003 160.201 182.611 157.433 183.815 157.11C184.828 156.837 185.913 157.132 186.871 157.936C189.093 159.798 190.162 163.764 189.734 168.546C189.363 172.688 190.631 174.835 191.748 176.73C192.318 177.696 192.857 178.61 193.146 179.695C194.541 184.932 194.501 187.626 194.497 187.737C194.494 187.835 194.46 187.929 194.398 188.005C194.067 188.412 161.12 228.753 145.722 240.951C142.726 243.325 139.079 244.548 135.378 244.548H135.382ZM124.89 240.516L128.818 242.264C134.281 244.696 140.548 243.928 145.178 240.261C160.079 228.456 191.595 190.046 193.618 187.572C193.606 186.951 193.478 184.35 192.298 179.92C192.041 178.951 191.531 178.089 190.992 177.175C189.807 175.166 188.465 172.89 188.86 168.466C189.335 163.173 187.854 159.903 186.309 158.607C185.577 157.994 184.775 157.763 184.05 157.958C183.258 158.17 182.386 163.169 181.866 166.154C181.488 168.321 181.133 170.366 180.743 171.671C179.841 174.701 179.889 176.497 179.931 178.081C179.995 180.469 180.045 182.356 176.931 186.812C174.146 190.798 163.826 201.825 158.212 206.811C155.305 209.394 149.948 212.764 145.967 215.138C142.2 217.383 137.333 216.306 134.884 212.688C129.344 204.498 124.174 194.844 123.367 193.322L119.519 192.861L124.892 240.508L124.89 240.516Z" fill="#1A1A1A"/>
<path d="M202.582 193.056C199.339 194.162 195.647 191.979 194.357 188.188L174.351 129.709L186.045 125.717L206.08 184.28C207.36 188.039 205.796 191.959 202.58 193.058L202.582 193.056Z" fill="#1A1A1A"/>
<path d="M200.844 193.783C199.891 193.783 198.925 193.557 198.011 193.108C196.146 192.194 194.663 190.451 193.94 188.33L173.933 129.851C173.854 129.621 173.977 129.372 174.208 129.292L185.902 125.3C186.013 125.262 186.135 125.27 186.24 125.322C186.344 125.374 186.425 125.465 186.463 125.575L206.498 184.138C207.85 188.114 206.158 192.3 202.724 193.473C202.118 193.679 201.485 193.783 200.844 193.783ZM174.911 129.984L194.776 188.047C195.423 189.95 196.743 191.506 198.398 192.318C199.718 192.965 201.153 193.08 202.439 192.641C205.415 191.624 206.86 187.937 205.664 184.421L185.772 126.274L174.911 129.982V129.984Z" fill="#1A1A1A"/>
<path d="M183.975 75.2339L146.15 102.166L131.416 117.419L125.637 127.626L125.599 127.706C124.461 129.472 125.11 133.544 127.26 137.687C129.388 141.783 132.354 144.619 134.458 144.782L134.393 144.814L145.515 146.007L166.315 142.691L210.47 126.934L265.347 136.317L265.735 136.327C251.907 133.807 233.302 115.424 219.79 89.4085C206.293 63.423 201.989 37.7423 207.908 25.0773L207.896 25.0713L184.279 74.6003L183.975 75.2339Z" fill="#91EE22"/>
<path d="M274.812 135.26C288.372 128.235 285.749 96.3748 268.953 64.099C252.157 31.8232 227.549 11.3535 213.989 18.3787C200.43 25.4039 203.053 57.2636 219.849 89.5394C236.645 121.815 261.253 142.285 274.812 135.26Z" fill="white"/>
<path d="M268.849 137.069C262.946 137.069 255.833 133.775 248.183 127.393C237.755 118.696 227.531 105.277 219.394 89.6111C207.068 65.8811 201.989 41.5396 206.451 27.5976C207.944 22.9382 210.426 19.6902 213.83 17.948C220.571 14.4955 230.083 17.4307 240.61 26.2122C251.038 34.9094 261.262 48.3282 269.4 63.9945C281.725 87.7245 286.804 112.066 282.342 126.008C280.851 130.667 278.367 133.913 274.965 135.658C273.123 136.602 271.071 137.069 268.851 137.069H268.849ZM219.962 17.4147C217.893 17.4147 215.97 17.8417 214.234 18.7319C211.047 20.3639 208.712 23.4374 207.293 27.8662C202.897 41.5958 207.954 65.6726 220.177 89.2061C236.81 121.228 261.21 141.716 274.561 134.876C277.748 133.244 280.083 130.17 281.502 125.741C285.898 112.012 280.841 87.935 268.618 64.4015C254.149 36.5454 233.802 17.4147 219.962 17.4147Z" fill="#1A1A1A"/>
<path d="M268.849 137.069C262.946 137.069 255.833 133.775 248.183 127.393C237.755 118.696 227.531 105.277 219.394 89.611C207.068 65.8811 201.989 41.5396 206.451 27.5975C207.944 22.9381 210.426 19.6902 213.83 17.9479C218.359 15.6282 224.262 16.2057 230.901 19.62C237.266 22.892 244.17 28.6821 250.866 36.3649C251.026 36.5494 251.006 36.826 250.821 36.9864C250.636 37.1448 250.359 37.1268 250.198 36.9423C236.583 21.3202 222.801 14.3451 214.232 18.7318C211.045 20.3638 208.71 23.4373 207.291 27.8662C202.895 41.5957 207.952 65.6725 220.175 89.2061C234.644 117.064 254.991 136.191 268.831 136.193C270.9 136.193 272.823 135.766 274.559 134.876C277.746 133.244 280.081 130.17 281.5 125.741C285.896 112.012 280.839 87.9349 268.616 64.4014C264.971 57.3823 260.886 50.7862 256.478 44.7955C256.333 44.599 256.375 44.3244 256.572 44.18C256.769 44.0357 257.044 44.0778 257.189 44.2743C261.625 50.301 265.733 56.9372 269.4 63.9964C281.725 87.7264 286.804 112.068 282.342 126.01C280.851 130.669 278.367 133.915 274.965 135.66C273.123 136.604 271.071 137.071 268.851 137.071L268.849 137.069Z" fill="#1A1A1A"/>
<path d="M244.044 94.1811C247.184 92.5544 246.576 85.1773 242.687 77.7038C238.798 70.2304 233.1 65.4907 229.96 67.1174C226.821 68.7441 227.428 76.1212 231.317 83.5946C235.206 91.068 240.904 95.8077 244.044 94.1811Z" fill="#91EE22"/>
<path d="M242.67 94.9261C239.218 94.9261 234.399 90.4752 230.909 83.7568C228.016 78.1872 226.83 72.4491 227.891 69.139C228.265 67.9722 228.896 67.1522 229.768 66.7071C233.184 64.9568 239.035 69.7064 243.09 77.5135C245.983 83.0831 247.168 88.8211 246.108 92.1312C245.734 93.2981 245.103 94.1181 244.231 94.5632C243.753 94.8078 243.228 94.924 242.668 94.924L242.67 94.9261ZM231.341 67.2224C230.915 67.2224 230.523 67.3086 230.172 67.489C229.517 67.8238 229.032 68.4694 228.733 69.4057C227.74 72.5033 228.904 77.9766 231.695 83.3498C235.396 90.4752 240.956 95.2509 243.831 93.7793C244.486 93.4444 244.97 92.7989 245.27 91.8626C246.26 88.765 245.099 83.2916 242.308 77.9185C239.061 71.6652 234.383 67.2224 231.341 67.2224Z" fill="#1A1A1A"/>
<path d="M265.791 129.581C260.613 129.581 254.378 126.696 247.675 121.104C238.546 113.489 229.597 101.745 222.476 88.0331C211.686 67.2604 207.241 45.9483 211.149 33.7384C212.459 29.6485 214.639 26.7975 217.631 25.2657C224.497 21.7491 234.614 25.799 245.386 36.3769C245.559 36.5473 245.563 36.826 245.392 36.9984C245.221 37.1708 244.942 37.1728 244.769 37.0044C234.285 26.7113 224.537 22.7175 218.035 26.0497C215.26 27.4711 213.227 30.1477 211.991 34.0071C208.149 46.0064 212.572 67.0539 223.259 87.6282C235.908 111.98 253.685 128.705 265.769 128.707C267.573 128.707 269.249 128.334 270.762 127.558C273.537 126.136 275.57 123.46 276.806 119.6C280.648 107.603 276.225 86.5555 265.538 65.9792C262.311 59.7681 258.694 53.9378 254.788 48.6509C254.643 48.4544 254.685 48.1797 254.88 48.0354C255.077 47.891 255.352 47.9331 255.497 48.1276C259.431 53.4526 263.072 59.321 266.319 65.5742C277.107 86.347 281.554 107.659 277.644 119.869C276.334 123.959 274.154 126.81 271.162 128.342C269.542 129.172 267.74 129.581 265.787 129.581H265.791Z" fill="#1A1A1A"/>
<path d="M145.513 146.448C145.497 146.448 145.481 146.448 145.467 146.446L134.345 145.253C134.279 145.247 134.217 145.225 134.162 145.191C131.866 144.824 128.972 141.941 126.869 137.889C124.648 133.612 123.983 129.442 125.211 127.493L125.239 127.435L131.032 117.202C131.05 117.17 131.072 117.14 131.098 117.114L145.833 101.861C145.851 101.841 145.873 101.825 145.895 101.809L183.628 74.9431L207.499 24.8827C207.549 24.7765 207.641 24.6943 207.754 24.6562C207.866 24.6161 207.989 24.6261 208.095 24.6782C208.308 24.7845 208.409 25.0471 208.308 25.2637C202.262 38.1973 207.034 63.8941 220.181 89.2059C233.349 114.558 251.688 133.32 265.815 135.894C266.042 135.936 266.199 136.145 266.175 136.373C266.151 136.602 265.954 136.758 265.725 136.768L265.337 136.758C265.315 136.758 265.295 136.756 265.275 136.752L210.513 127.389L166.468 143.108C166.442 143.118 166.416 143.124 166.39 143.128L145.589 146.444C145.567 146.448 145.543 146.45 145.519 146.45L145.513 146.448ZM134.679 144.403L145.501 145.564L166.203 142.264L210.318 126.521C210.39 126.495 210.466 126.489 210.541 126.501L259.847 134.932C246.524 129.099 230.953 111.867 219.394 89.6129C207.921 67.5229 202.797 45.0821 205.602 30.9015L184.371 75.4243C184.339 75.4924 184.291 75.5506 184.229 75.5927L146.435 102.5L131.767 117.686L125.99 127.898C125.982 127.915 125.974 127.931 125.964 127.945C124.915 129.575 125.623 133.586 127.648 137.484C129.633 141.305 132.509 144.19 134.488 144.343C134.556 144.349 134.62 144.369 134.677 144.403H134.679Z" fill="#1A1A1A"/>
<path d="M184.046 75.0835L207.894 25.0713L207.906 25.0773C201.987 37.7423 206.291 63.423 219.787 89.4085C233.3 115.424 251.904 133.807 265.733 136.327L265.345 136.317L210.559 126.95L209.289 126.738C202.921 125.617 194.412 117.347 188.327 105.568C182.082 93.4785 180.981 81.421 183.744 75.693L184.046 75.0835Z" fill="white"/>
<path d="M265.733 136.766H265.721L265.333 136.756C265.311 136.756 265.291 136.754 265.271 136.75L210.484 127.383L209.216 127.173C202.487 125.988 193.938 117.387 187.936 105.77C181.118 92.5722 180.779 80.8295 183.346 75.5045L183.65 74.893L207.497 24.8827C207.547 24.7765 207.639 24.6943 207.752 24.6562C207.864 24.6161 207.987 24.6261 208.093 24.6782C208.306 24.7845 208.407 25.0471 208.306 25.2637C202.26 38.1973 207.032 63.8941 220.179 89.2059C233.346 114.558 251.686 133.32 265.813 135.894C266.04 135.936 266.197 136.145 266.173 136.373C266.149 136.598 265.96 136.768 265.735 136.768L265.733 136.766ZM205.604 30.8994L184.444 75.2739C184.444 75.2739 184.444 75.2779 184.442 75.2799L184.14 75.8894C181.586 81.1823 182.338 93.0112 188.719 105.367C194.601 116.753 202.897 125.166 209.365 126.305L210.631 126.515L259.847 134.93C246.524 129.097 230.953 111.865 219.394 89.6109C207.92 67.5209 202.797 45.0801 205.602 30.8994H205.604Z" fill="#1A1A1A"/>
<path d="M144.912 146.384C144.896 146.384 144.88 146.384 144.864 146.382L134.343 145.253C134.277 145.247 134.215 145.225 134.16 145.191C131.864 144.824 128.97 141.941 126.867 137.889C124.646 133.613 123.981 129.442 125.209 127.494L125.237 127.435L131.03 117.202C131.15 116.992 131.42 116.918 131.631 117.036C131.844 117.156 131.918 117.425 131.797 117.635L125.993 127.897C125.984 127.913 125.976 127.929 125.966 127.943C124.918 129.573 125.625 133.584 127.65 137.482C129.635 141.303 132.511 144.188 134.49 144.341C134.558 144.347 134.623 144.367 134.679 144.401L144.961 145.504C145.204 145.53 145.378 145.746 145.352 145.989C145.328 146.215 145.137 146.382 144.914 146.382L144.912 146.384Z" fill="#1A1A1A"/>
<path d="M145.609 145.947C142.187 145.704 137.411 140.87 133.941 134.194C130.266 127.119 129.404 119.797 131.653 117.192L125.637 127.626L125.599 127.706C124.461 129.472 125.11 133.544 127.26 137.686C129.388 141.782 132.354 144.619 134.458 144.782L134.393 144.814L145.611 145.947H145.609Z" fill="white"/>
<path d="M145.609 146.386C145.599 146.386 145.587 146.386 145.577 146.386C145.491 146.38 145.405 146.372 145.316 146.36L134.347 145.253C134.279 145.247 134.217 145.225 134.162 145.191C131.866 144.824 128.972 141.941 126.869 137.889C124.648 133.612 123.983 129.442 125.211 127.493L125.239 127.435L130.527 118.259C130.732 117.734 130.996 117.276 131.317 116.904C131.466 116.731 131.721 116.701 131.906 116.831C132.091 116.964 132.147 117.214 132.032 117.411L131.299 118.684C130.114 121.872 131.287 128.129 134.331 133.989C137.655 140.389 142.167 145.054 145.409 145.483L145.65 145.507C145.889 145.532 146.066 145.744 146.045 145.983C146.025 146.211 145.832 146.386 145.607 146.386H145.609ZM134.675 144.399L142.352 145.175C139.393 143.3 136.146 139.395 133.55 134.394C131.038 129.559 129.786 124.552 129.995 120.943L125.992 127.896C125.984 127.912 125.976 127.929 125.966 127.943C124.917 129.573 125.625 133.584 127.65 137.482C129.635 141.303 132.511 144.188 134.49 144.341C134.556 144.347 134.62 144.367 134.677 144.399H134.675Z" fill="#1A1A1A"/>
<path d="M165.554 142.811L166.434 142.635C161.646 143.629 154.094 136.428 148.766 126.164C143.331 115.699 142.294 105.247 146.15 102.164L145.657 102.673L131.693 117.144C129.396 119.711 130.248 127.075 133.943 134.19C137.51 141.057 142.549 145.937 145.981 145.919L165.556 142.809L165.554 142.811Z" fill="#1A1A1A"/>
<path d="M145.961 146.362C142.312 146.362 137.215 141.446 133.552 134.395C129.806 127.185 128.866 119.644 131.363 116.854L145.061 102.659C145.304 102.34 145.575 102.059 145.875 101.821C146.056 101.677 146.319 101.697 146.476 101.867C146.632 102.039 146.628 102.302 146.468 102.468L145.674 103.29C142.883 107.03 144.273 116.557 149.158 125.962C154.429 136.111 161.775 143.074 166.286 142.216L166.35 142.204C166.589 142.153 166.82 142.31 166.868 142.546C166.916 142.785 166.764 143.016 166.527 143.066C166.505 143.072 166.48 143.076 166.458 143.08L165.643 143.242C165.643 143.242 165.63 143.244 165.624 143.246L146.05 146.356C146.021 146.36 145.991 146.362 145.961 146.362ZM143.888 105.145L132.01 117.453C129.792 119.931 130.809 127.201 134.335 133.992C137.791 140.646 142.668 145.468 145.945 145.484L163.221 142.739C158.56 141.101 152.809 134.906 148.376 126.371C144.165 118.263 142.547 109.995 143.888 105.147V105.145Z" fill="#1A1A1A"/>
<path d="M229.971 67.0979C226.824 68.7098 227.286 76.148 231.303 83.5541C238.04 95.9725 243.393 94.5029 244.022 94.2763C244.034 94.2723 244.04 94.2883 244.03 94.2944L232.466 103.581C229.077 98.8254 225.832 93.5385 222.868 87.8286C220.027 82.3572 217.65 76.8999 215.753 71.6149L229.971 67.0979Z" fill="#1A1A1A"/>
<path d="M232.466 104.022C232.446 104.022 232.426 104.022 232.406 104.018C232.285 104.002 232.177 103.936 232.106 103.838C228.626 98.9558 225.385 93.6388 222.476 88.0331C219.683 82.656 217.282 77.1826 215.337 71.7654C215.296 71.6531 215.302 71.5288 215.357 71.4225C215.411 71.3163 215.503 71.2341 215.618 71.198L229.836 66.681C230.055 66.6128 230.29 66.7211 230.378 66.9336C230.467 67.1441 230.376 67.3887 230.171 67.4929C229.492 67.8398 228.992 68.5194 228.685 69.5119C227.706 72.6676 228.914 78.2272 231.69 83.3477C238.261 95.4613 243.316 94.0659 243.873 93.8654C244.072 93.7932 244.307 93.8774 244.414 94.0619C244.522 94.2483 244.476 94.5029 244.309 94.6393L232.743 103.926C232.665 103.99 232.567 104.022 232.466 104.022ZM216.321 71.8977C218.224 77.1385 220.557 82.4274 223.257 87.6281C226.074 93.0514 229.201 98.202 232.554 102.946L242.583 94.8919C240.284 94.7816 235.968 93.0795 230.913 83.7627C227.985 78.3655 226.78 72.6676 227.841 69.2472C227.977 68.8082 228.148 68.4152 228.353 68.0724L216.321 71.8957V71.8977Z" fill="#1A1A1A"/>
<path d="M199.03 153.391C197.44 153.704 192.996 156.442 193.235 163.728C193.386 168.281 196.729 170.278 199.215 171.136C200.947 171.734 202.315 173.075 202.878 174.815L204.204 178.925C204.204 178.925 212.985 150.646 199.03 153.393V153.391Z" fill="white"/>
<path d="M204.204 179.364C204.013 179.364 203.842 179.24 203.784 179.06L202.457 174.95C201.943 173.356 200.709 172.117 199.072 171.551C195.146 170.198 192.915 167.423 192.795 163.742C192.558 156.557 196.835 153.375 198.945 152.96C201.622 152.432 203.701 152.97 205.13 154.556C210.352 160.348 204.861 178.296 204.626 179.056C204.569 179.24 204.398 179.364 204.208 179.366H204.206L204.204 179.364ZM200.844 153.639C200.309 153.639 199.733 153.7 199.116 153.822C197.906 154.06 193.438 156.436 193.677 163.712C193.815 167.932 196.843 169.851 199.359 170.719C201.234 171.365 202.707 172.846 203.297 174.679L204.177 177.408C205.365 173.055 208.564 159.68 204.473 155.141C203.567 154.137 202.371 153.639 200.844 153.639Z" fill="#1A1A1A"/>
<path d="M72.5303 154.78C72.5303 154.78 78.6487 157.748 82.3478 163.399C86.047 169.051 97.1465 177.528 99.849 176.682C102.552 175.834 100.275 170.042 99.1377 166.226C97.9984 162.411 94.884 159.696 94.884 159.696C94.884 159.696 97.5725 152.31 99.2804 147.859C100.13 145.642 100.818 143.304 101.28 141.58C101.669 140.128 103.1 139.21 104.593 139.445C107.265 139.866 111.226 140.277 112.94 139.381C114.889 138.362 114.471 132.367 114.087 129.101C113.934 127.808 114.268 126.501 115.039 125.449C115.433 124.909 115.891 123.851 116.018 123.426C116.018 123.426 115.875 122.902 113.313 120.889C110.752 118.877 110.436 115.34 110.165 114.265C108.563 107.908 105.256 103.615 103.229 102.396C103.229 102.396 100.882 117.762 95.4386 120.729C95.4386 120.729 93.1982 122.319 89.2498 119.881C89.2498 119.881 85.7275 118.61 84.4476 121.365C83.1676 124.119 87.2224 129.206 85.5145 135.882C84.6585 139.226 79.5026 152.801 72.5303 154.78Z" fill="white"/>
<path d="M99.4595 177.173C95.7945 177.173 85.3722 168.827 81.9784 163.64C78.3918 158.161 72.398 155.205 72.3377 155.175C72.173 155.095 72.0745 154.923 72.0906 154.74C72.1067 154.558 72.2332 154.405 72.4101 154.355C78.8519 152.529 84.028 139.914 85.0869 135.772C86.0292 132.089 85.1552 128.873 84.4519 126.289C83.8793 124.18 83.4252 122.513 84.046 121.178C85.1934 118.708 88.0486 118.979 89.3989 119.466C89.427 119.476 89.4551 119.49 89.4813 119.506C93.1 121.74 95.1033 120.424 95.1857 120.368C95.1978 120.36 95.2139 120.35 95.2259 120.342C100.416 117.513 102.769 102.481 102.791 102.328C102.813 102.184 102.908 102.057 103.04 101.995C103.175 101.933 103.33 101.941 103.456 102.017C105.389 103.178 108.885 107.37 110.593 114.157C110.633 114.319 110.676 114.534 110.726 114.791C111.005 116.234 111.526 118.923 113.587 120.541C115.313 121.898 116.328 122.88 116.444 123.307C116.466 123.388 116.464 123.472 116.44 123.55C116.31 123.981 115.836 125.102 115.395 125.705C114.694 126.664 114.385 127.85 114.525 129.047C115.032 133.344 115.203 138.693 113.145 139.768C111.363 140.7 107.475 140.341 104.525 139.876C103.249 139.673 102.036 140.455 101.706 141.69C101.272 143.312 100.571 145.724 99.6926 148.012C98.1917 151.925 95.9031 158.185 95.4007 159.566C96.1542 160.282 98.5674 162.762 99.562 166.096C99.7107 166.591 99.8775 167.12 100.05 167.67C100.629 169.5 101.284 171.575 101.493 173.284C101.754 175.419 101.246 176.702 99.982 177.097C99.8273 177.145 99.6524 177.169 99.4595 177.169V177.173ZM73.6116 154.861C75.4662 155.913 79.7983 158.698 82.7179 163.159C86.5436 169.005 97.4342 176.979 99.7188 176.261C100.016 176.167 100.922 175.884 100.619 173.394C100.42 171.766 99.777 169.731 99.2104 167.938C99.0356 167.385 98.8668 166.852 98.7181 166.351C97.6291 162.7 94.6271 160.051 94.597 160.025C94.4604 159.905 94.4101 159.714 94.4724 159.544C94.4985 159.47 97.181 152.104 98.8708 147.699C99.7348 145.448 100.428 143.066 100.856 141.464C101.304 139.792 102.942 138.733 104.666 139.008C108.648 139.633 111.513 139.627 112.739 138.988C113.961 138.348 114.302 134.671 113.653 129.15C113.487 127.732 113.854 126.325 114.686 125.186C115 124.757 115.369 123.937 115.538 123.478C115.357 123.239 114.779 122.594 113.045 121.232C110.726 119.41 110.143 116.403 109.864 114.957C109.818 114.718 109.779 114.52 109.741 114.372C108.268 108.519 105.379 104.63 103.553 103.16C103.014 106.254 100.615 118.381 95.672 121.104C95.3867 121.29 93.0096 122.696 89.0633 120.28C88.6775 120.152 85.8886 119.314 84.8518 121.549C84.3675 122.592 84.7815 124.121 85.3079 126.058C86.0373 128.743 86.9455 132.083 85.9449 135.99C85.2758 138.611 80.5538 151.859 73.6157 154.859L73.6116 154.861Z" fill="#1A1A1A"/>
<path d="M94.8257 165.581C94.6428 165.581 94.474 165.468 94.4097 165.286C94.3675 165.166 93.381 162.287 94.6991 158.946C94.7875 158.72 95.0447 158.61 95.2717 158.698C95.4988 158.786 95.6093 159.043 95.5209 159.269C94.3233 162.309 95.2336 164.969 95.2436 164.995C95.324 165.224 95.2034 165.476 94.9744 165.557C94.9261 165.575 94.8759 165.581 94.8277 165.581H94.8257Z" fill="#1A1A1A"/>
<path d="M91.0745 131.676C88.159 131.676 85.7096 128.717 84.6648 126.79C84.5483 126.575 84.6286 126.309 84.8436 126.194C85.0566 126.078 85.3259 126.158 85.4404 126.373C85.4746 126.433 88.8161 132.482 92.8267 130.333C93.0417 130.216 93.3089 130.298 93.4234 130.511C93.538 130.726 93.4576 130.992 93.2446 131.106C92.5032 131.503 91.7738 131.676 91.0745 131.676Z" fill="#1A1A1A"/>
<path d="M245.39 154.107C245.36 154.107 245.328 154.107 245.296 154.107C244.335 154.083 243.441 153.688 242.78 152.994C242.117 152.3 241.765 151.394 241.791 150.438C241.842 148.499 243.445 146.955 245.388 146.955C245.418 146.955 245.45 146.955 245.483 146.955C246.443 146.979 247.337 147.374 247.998 148.068C248.661 148.762 249.013 149.668 248.987 150.624C248.937 152.565 247.331 154.109 245.39 154.109V154.107ZM245.388 147.835C243.923 147.835 242.712 149 242.673 150.462C242.655 151.181 242.919 151.865 243.419 152.386C243.919 152.91 244.594 153.206 245.32 153.226C245.344 153.226 245.368 153.226 245.39 153.226C246.857 153.226 248.069 152.062 248.105 150.6C248.123 149.88 247.86 149.197 247.359 148.675C246.859 148.152 246.184 147.855 245.458 147.835C245.434 147.835 245.41 147.835 245.386 147.835H245.388Z" fill="#1A1A1A"/>
<path d="M77.3188 321.838C77.2866 321.838 77.2565 321.838 77.2244 321.838C76.2639 321.814 75.3698 321.419 74.7087 320.726C74.0456 320.032 73.694 319.126 73.7201 318.169C73.7723 316.199 75.414 314.643 77.4112 314.687C78.3717 314.711 79.2658 315.106 79.9269 315.8C80.59 316.491 80.9416 317.4 80.9155 318.356C80.8653 320.295 79.2618 321.838 77.3188 321.838ZM77.3168 315.567C75.85 315.567 74.6404 316.73 74.6022 318.194C74.5841 318.913 74.8473 319.597 75.3477 320.118C75.848 320.642 76.5231 320.938 77.2485 320.958C77.2726 320.958 77.2967 320.958 77.3188 320.958C78.7856 320.958 79.9952 319.793 80.0334 318.332C80.0515 317.612 79.7883 316.928 79.2879 316.407C78.7876 315.884 78.1125 315.587 77.3871 315.569C77.363 315.569 77.3389 315.569 77.3168 315.569V315.567Z" fill="#1A1A1A"/>
<path d="M90.4778 334.171C90.4054 334.171 90.3311 334.153 90.2628 334.114C90.0498 333.996 89.9734 333.728 90.092 333.515L91.5789 330.85C91.6974 330.638 91.9667 330.564 92.1797 330.68C92.3927 330.798 92.469 331.067 92.3505 331.28L90.8636 333.944C90.7832 334.088 90.6325 334.171 90.4778 334.171Z" fill="#1A1A1A"/>
<path d="M95.6838 324.846C95.6115 324.846 95.5371 324.828 95.4688 324.79C95.2558 324.671 95.1795 324.403 95.298 324.19L96.7849 321.526C96.9035 321.313 97.1727 321.239 97.3857 321.355C97.5987 321.474 97.6751 321.742 97.5565 321.955L96.0696 324.619C95.9892 324.764 95.8385 324.846 95.6838 324.846Z" fill="#1A1A1A"/>
<path d="M99.8654 331.452C99.7951 331.452 99.7228 331.434 99.6545 331.398L96.97 329.942C96.755 329.826 96.6767 329.559 96.7932 329.345C96.9097 329.13 97.177 329.052 97.392 329.168L100.076 330.624C100.291 330.74 100.37 331.007 100.253 331.221C100.173 331.368 100.022 331.452 99.8654 331.452Z" fill="#1A1A1A"/>
<path d="M90.4699 326.358C90.3996 326.358 90.3273 326.339 90.259 326.303L87.5745 324.848C87.3595 324.732 87.2811 324.465 87.3977 324.25C87.5142 324.038 87.7815 323.958 87.9965 324.074L90.6809 325.529C90.8959 325.646 90.9743 325.912 90.8577 326.127C90.7774 326.273 90.6267 326.358 90.4699 326.358Z" fill="#1A1A1A"/>
<path d="M283.111 64.9108C282.953 64.9108 282.8 64.8266 282.722 64.6782C282.607 64.4637 282.689 64.197 282.904 64.0827L309.064 50.2028C309.279 50.0885 309.546 50.1687 309.661 50.3853C309.775 50.5998 309.693 50.8664 309.478 50.9807L283.318 64.8607C283.252 64.8967 283.182 64.9128 283.111 64.9128V64.9108Z" fill="#1A1A1A"/>
<path d="M145.25 32.5496C145.091 32.5496 144.939 32.4654 144.86 32.317C144.746 32.1025 144.828 31.8358 145.043 31.7216C178.181 14.1386 201.121 1.96284 201.121 1.96284C201.336 1.84656 201.604 1.93076 201.718 2.14529C201.833 2.35981 201.75 2.62646 201.535 2.74074C201.535 2.74074 178.595 14.9165 145.457 32.4995C145.391 32.5356 145.32 32.5516 145.25 32.5516V32.5496Z" fill="#1A1A1A"/>
<path d="M137.789 54.6776C137.63 54.6776 137.478 54.5934 137.399 54.445C137.285 54.2305 137.367 53.9639 137.582 53.8496L177.302 32.7701C177.517 32.6558 177.785 32.738 177.899 32.9525C178.014 33.167 177.931 33.4337 177.716 33.548L137.996 54.6275C137.93 54.6636 137.859 54.6796 137.789 54.6796V54.6776Z" fill="#1A1A1A"/>
<path d="M169.414 245.432C169.255 245.432 169.103 245.348 169.024 245.199C168.91 244.985 168.992 244.718 169.207 244.604C203.106 226.618 226.704 214.093 226.704 214.093C226.919 213.977 227.186 214.061 227.301 214.276C227.415 214.49 227.333 214.757 227.118 214.871C227.118 214.871 203.52 227.396 169.621 245.382C169.555 245.418 169.484 245.434 169.414 245.434V245.432Z" fill="#1A1A1A"/>
<path d="M202.389 210.08C202.23 210.08 202.077 209.995 201.999 209.847C201.884 209.632 201.967 209.366 202.182 209.252C243.745 187.2 274.339 170.962 274.339 170.962C274.554 170.848 274.821 170.93 274.935 171.144C275.05 171.359 274.967 171.626 274.752 171.74C274.752 171.74 244.159 187.978 202.596 210.029C202.529 210.066 202.459 210.082 202.389 210.082V210.08Z" fill="#1A1A1A"/>
<path d="M174.396 296.164C176.097 296.164 177.476 294.794 177.476 293.104C177.476 291.415 176.097 290.045 174.396 290.045C172.695 290.045 171.315 291.415 171.315 293.104C171.315 294.794 172.695 296.164 174.396 296.164Z" fill="#1A1A1A"/>
<path d="M289.264 37.1896C298.514 32.3275 302.091 20.9123 297.255 11.693C292.418 2.47376 280.998 -1.05839 271.749 3.80375C262.499 8.66588 258.921 20.0811 263.758 29.3004C268.594 38.5196 280.014 42.0518 289.264 37.1896Z" fill="#1A1A1A"/>
<path d="M271.891 16.3205C272.781 15.1053 274.096 14.3559 275.593 14.1939C276.726 14.0724 277.778 14.3154 278.77 14.923C279.276 15.2268 279.721 15.6116 280.146 16.0775C280.449 15.5306 280.814 15.0446 281.238 14.6395C282.068 13.8294 283.059 13.3635 284.172 13.242C285.67 13.08 287.126 13.5256 288.26 14.518C289.372 15.4901 290.081 16.9078 290.263 18.5078C290.445 20.1484 290 21.7281 288.867 23.4699C287.855 25.0294 286.317 26.6496 284.537 28.5534C283.93 29.2015 283.242 29.9306 282.533 30.7003C282.351 30.9028 282.088 31.0446 281.805 31.0648C281.522 31.1053 281.259 31.0243 281.016 30.8623C280.146 30.2547 279.316 29.6876 278.588 29.2015C276.443 27.7433 274.582 26.4876 273.246 25.1914C271.749 23.7534 270.98 22.2952 270.798 20.6547C270.636 19.0547 271.02 17.5154 271.891 16.3205Z" fill="white"/>
<path d="M341.739 38.2213C348.511 31.4431 348.511 20.4534 341.739 13.6751C334.967 6.89689 323.988 6.89689 317.216 13.6751C310.445 20.4534 310.445 31.4431 317.216 38.2213C323.988 44.9996 334.967 44.9996 341.739 38.2213Z" fill="#91EE22"/>
<path d="M329.475 43.7435C319.682 43.7435 311.689 35.7637 311.689 25.941C311.689 16.1384 319.662 8.13843 329.475 8.13843C339.288 8.13843 347.26 16.1182 347.26 25.941C347.26 35.7435 339.288 43.7435 329.475 43.7435ZM329.475 9.02957C320.167 9.02957 312.58 16.6042 312.58 25.941C312.58 35.2574 320.147 42.8523 329.475 42.8523C338.782 42.8523 346.37 35.2777 346.37 25.941C346.37 16.6245 338.803 9.02957 329.475 9.02957Z" fill="#91EE22"/>
<path d="M334.169 27.6628C333.198 27.6628 332.348 28.1286 331.781 28.8577L325.934 26.5691C325.934 26.4881 325.954 26.4273 325.954 26.3463C325.954 26.2045 325.934 26.0628 325.913 25.921L331.903 23.1463C332.449 23.7742 333.258 24.1792 334.169 24.1995C335.828 24.1995 337.204 22.8425 337.204 21.1615C337.204 19.4805 335.848 18.1033 334.169 18.1033C332.51 18.1033 331.134 19.4602 331.134 21.1412C331.134 21.283 331.154 21.4248 331.174 21.5666L325.185 24.3412C324.639 23.7134 323.829 23.3083 322.919 23.2881C321.26 23.2881 319.884 24.645 319.884 26.3261C319.884 28.0071 321.239 29.3843 322.919 29.3843C323.89 29.3843 324.74 28.9185 325.306 28.1893L331.154 30.478C331.154 30.559 331.134 30.6197 331.134 30.7007C331.134 32.3818 332.489 33.759 334.169 33.759C335.828 33.759 337.204 32.402 337.204 30.721C337.184 29.04 335.828 27.683 334.169 27.6628Z" fill="#1A1A1A"/>
<path d="M334.398 93.2349C342.339 87.718 344.334 76.8394 338.854 68.9369C333.374 61.0345 322.494 59.1007 314.554 64.6176C306.613 70.1346 304.618 81.0131 310.098 88.9156C315.578 96.818 326.457 98.7519 334.398 93.2349Z" fill="#1A1A1A"/>
<path d="M320.107 87.2272L317.558 73.3943C317.436 72.6854 318.084 72.0981 318.772 72.2804L333.846 76.5538C334.615 76.7766 334.797 77.769 334.17 78.2551L321.625 87.8145C321.078 88.2601 320.249 87.9563 320.107 87.2272Z" fill="white"/>
<path d="M324.305 149.898C334.111 145.119 338.214 133.337 333.47 123.582C328.725 113.827 316.93 109.792 307.124 114.571C297.318 119.349 293.214 131.131 297.959 140.886C302.703 150.641 314.499 154.676 324.305 149.898Z" fill="#91EE22"/>
<path d="M315.613 152.361C313.509 152.361 311.364 152.037 309.28 151.328C304.181 149.627 300.054 146.062 297.666 141.242C295.279 136.442 294.914 130.994 296.634 125.89C300.195 115.379 311.648 109.647 322.189 113.151C327.288 114.852 331.416 118.417 333.803 123.237C336.191 128.037 336.555 133.485 334.835 138.589C331.962 147.014 324.051 152.361 315.613 152.361ZM315.816 113.029C307.742 113.029 300.175 118.133 297.444 126.194C295.805 131.075 296.149 136.28 298.435 140.857C300.721 145.455 304.667 148.878 309.543 150.498C319.62 153.84 330.566 148.371 333.965 138.326C335.604 133.445 335.26 128.24 332.974 123.662C330.687 119.065 326.742 115.642 321.866 114.022C319.862 113.333 317.819 113.029 315.816 113.029Z" fill="#1A1A1A"/>
<path d="M325.772 129.05C325.57 133.971 317.254 145.475 315.271 148.169C315.069 148.452 314.644 148.432 314.462 148.128C313.207 146.103 309.059 139.298 306.894 133.789C306.024 131.602 305.478 129.617 305.539 128.219C305.761 122.63 310.476 118.275 316.06 118.498C321.645 118.761 325.995 123.46 325.772 129.05Z" fill="#1A1A1A"/>
<path d="M318.928 131.927C320.737 130.116 320.737 127.18 318.928 125.368C317.118 123.557 314.184 123.557 312.375 125.368C310.566 127.18 310.566 130.116 312.375 131.927C314.184 133.739 317.118 133.739 318.928 131.927Z" fill="#91EE22"/>
<path d="M300 241C300 258.673 285.673 273 268 273C250.327 273 236 258.673 236 241C236 223.327 250.327 209 268 209C285.673 209 300 223.327 300 241Z" fill="#91EE22" stroke="#1A1A1A" stroke-width="2"/>
<path d="M283.125 232.75L262.947 252L252.875 242.375" stroke="white" stroke-width="8" stroke-linecap="round" stroke-linejoin="round"/>
</g>
<defs>
<clipPath id="clip0_118_2806">
<rect width="366" height="365" fill="white"/>
</clipPath>
</defs>
</svg>
