<svg width="366" height="389" viewBox="0 0 366 389" fill="none" xmlns="http://www.w3.org/2000/svg">
<g clip-path="url(#clip0_118_3873)">
<path d="M80.3702 0.469604H280.309C285.352 0.469604 289.447 4.56461 289.447 9.60738V246.289C289.447 251.331 285.352 255.426 280.309 255.426H80.3702C75.3274 255.426 71.2324 251.331 71.2324 246.289V9.60951C71.2324 4.56673 75.3274 0.47173 80.3702 0.47173V0.469604Z" fill="white"/>
<path d="M280.309 255.898H80.3703C75.0725 255.898 70.7607 251.589 70.7607 246.289V9.60954C70.7607 4.31176 75.0704 0 80.3703 0H280.309C285.607 0 289.919 4.30963 289.919 9.60954V246.291C289.919 251.589 285.609 255.9 280.309 255.9V255.898ZM80.3703 0.941404C75.591 0.941404 71.7021 4.83027 71.7021 9.60954V246.291C71.7021 251.07 75.591 254.959 80.3703 254.959H280.309C285.088 254.959 288.977 251.07 288.977 246.291V9.60954C288.977 4.83027 285.088 0.941404 280.309 0.941404H80.3703Z" fill="#1A1A1A"/>
<path d="M289.447 91.8453C289.188 91.8453 288.978 91.6349 288.978 91.3756V62.6214C288.978 62.3621 289.188 62.1517 289.447 62.1517C289.706 62.1517 289.917 62.3621 289.917 62.6214V91.3756C289.917 91.6349 289.706 91.8453 289.447 91.8453Z" fill="#1A1A1A"/>
<path d="M195.35 13.0946H83.3564V242.801H195.35V13.0946Z" fill="white"/>
<path d="M195.349 243.273H83.3564C83.0971 243.273 82.8867 243.063 82.8867 242.804V13.0946C82.8867 12.8354 83.0971 12.625 83.3564 12.625H195.349C195.609 12.625 195.819 12.8354 195.819 13.0946V242.801C195.819 243.061 195.609 243.271 195.349 243.271V243.273ZM83.826 242.332H194.878V13.5664H83.826V242.332Z" fill="#1A1A1A"/>
<path d="M277.323 13.0946H206.895V242.801H277.323V13.0946Z" fill="white"/>
<path d="M277.323 243.273H206.894C206.635 243.273 206.425 243.063 206.425 242.804V13.0946C206.425 12.8354 206.635 12.625 206.894 12.625H277.323C277.583 12.625 277.793 12.8354 277.793 13.0946V242.801C277.793 243.061 277.583 243.271 277.323 243.271V243.273ZM207.364 242.332H276.852V13.5664H207.364V242.332Z" fill="#1A1A1A"/>
<path d="M304.167 258.251H50.7383V268.266H304.167V258.251Z" fill="white"/>
<path d="M304.169 268.738H50.7382C50.4789 268.738 50.2686 268.528 50.2686 268.268V258.253C50.2686 257.994 50.4789 257.783 50.7382 257.783H304.167C304.426 257.783 304.637 257.994 304.637 258.253V268.268C304.637 268.528 304.426 268.738 304.167 268.738H304.169ZM51.21 267.797H303.697V258.722H51.21V267.797Z" fill="#1A1A1A"/>
<path d="M275.649 232.888C274.949 232.654 274.195 232.527 273.398 232.527H271.558V227.329H239.595V245.966C239.595 253.331 245.564 259.303 252.927 259.303H258.225C265.234 259.303 270.973 253.892 271.513 247.02H273.4C277.357 247.02 280.292 243.613 280.292 239.656V239.601C280.292 236.441 278.422 233.817 275.653 232.888H275.649ZM273.13 242.88H271.556V236.669H273.13C274.826 236.669 276.199 238.08 276.199 239.775C276.199 241.471 274.824 242.882 273.13 242.882V242.88Z" fill="white"/>
<path d="M258.223 259.774H252.926C245.314 259.774 239.121 253.58 239.121 245.966V227.329C239.121 227.07 239.331 226.859 239.591 226.859H271.554C271.813 226.859 272.023 227.07 272.023 227.329V232.055H273.394C274.225 232.055 275.033 232.185 275.795 232.44C278.809 233.451 280.755 236.261 280.755 239.599V239.654C280.755 243.975 277.453 247.489 273.394 247.489H271.936C271.171 254.411 265.23 259.772 258.219 259.772L258.223 259.774ZM240.065 227.801V245.966C240.065 253.061 245.834 258.833 252.928 258.833H258.225C264.894 258.833 270.523 253.629 271.044 246.986C271.063 246.741 271.267 246.552 271.513 246.552H273.401C277 246.552 279.82 243.524 279.82 239.659V239.603C279.82 236.677 278.125 234.216 275.502 233.336C274.837 233.113 274.129 233.001 273.401 233.001H271.56C271.301 233.001 271.091 232.79 271.091 232.531V227.805H240.069L240.065 227.801ZM273.131 243.352H271.556C271.297 243.352 271.086 243.141 271.086 242.882V236.671C271.086 236.411 271.297 236.201 271.556 236.201H273.131C275.084 236.201 276.671 237.805 276.671 239.778C276.671 241.75 275.084 243.354 273.131 243.354V243.352ZM272.028 242.41H273.131C274.563 242.41 275.73 241.229 275.73 239.775C275.73 238.322 274.563 237.14 273.131 237.14H272.028V242.41Z" fill="#1A1A1A"/>
<path d="M258.223 259.774H252.926C245.314 259.774 239.121 253.58 239.121 245.966V227.329C239.121 227.07 239.331 226.859 239.591 226.859C239.85 226.859 240.06 227.07 240.06 227.329V245.966C240.06 253.061 245.83 258.833 252.923 258.833H258.221C264.89 258.833 270.519 253.629 271.04 246.986C271.059 246.741 271.263 246.552 271.509 246.552H273.396C276.996 246.552 279.816 243.524 279.816 239.659V239.603C279.816 238.252 279.451 236.966 278.758 235.884C278.618 235.666 278.681 235.374 278.9 235.234C279.119 235.094 279.41 235.158 279.55 235.377C280.341 236.609 280.758 238.071 280.758 239.603V239.659C280.758 243.979 277.455 247.494 273.396 247.494H271.938C271.173 254.415 265.232 259.776 258.221 259.776L258.223 259.774ZM272.999 243.352H271.987C271.49 243.352 271.086 242.948 271.086 242.451V237.1C271.086 236.603 271.49 236.199 271.987 236.199H273.131C274.123 236.199 275.079 236.628 275.751 237.378C276.433 238.139 276.76 239.157 276.648 240.171C276.45 241.983 274.88 243.352 272.997 243.352H272.999ZM272.028 242.41H272.999C274.378 242.41 275.57 241.382 275.713 240.069C275.795 239.318 275.553 238.568 275.05 238.007C274.554 237.457 273.855 237.14 273.129 237.14H272.026V242.41H272.028ZM275.649 233.36C275.6 233.36 275.549 233.351 275.5 233.334C274.835 233.111 274.127 232.999 273.398 232.999H271.989C271.492 232.999 271.088 232.595 271.088 232.098V227.803H245.146C244.886 227.803 244.676 227.592 244.676 227.333C244.676 227.074 244.886 226.864 245.146 226.864H271.127C271.624 226.864 272.028 227.267 272.028 227.765V232.059H273.398C274.229 232.059 275.037 232.189 275.8 232.444C276.046 232.527 276.178 232.792 276.097 233.039C276.031 233.237 275.849 233.36 275.651 233.36H275.649Z" fill="#1A1A1A"/>
<path d="M255.613 248.084C258.895 248.075 261.549 245.405 261.54 242.121C261.531 238.837 258.862 236.183 255.58 236.192C252.297 236.201 249.643 238.871 249.652 242.155C249.662 245.438 252.33 248.093 255.613 248.084Z" fill="white"/>
<path d="M255.576 248.577C252.038 248.577 249.16 245.698 249.16 242.16C249.16 238.622 252.038 235.742 255.576 235.742C259.114 235.742 261.991 238.622 261.991 242.16C261.991 245.698 259.114 248.577 255.576 248.577ZM255.576 236.686C252.558 236.686 250.102 239.142 250.102 242.162C250.102 245.182 252.556 247.638 255.576 247.638C258.595 247.638 261.05 245.182 261.05 242.162C261.05 239.142 258.595 236.686 255.576 236.686Z" fill="#1A1A1A"/>
<path d="M256.759 222.258C256.672 222.258 256.585 222.235 256.506 222.184C256.432 222.137 254.687 220.994 254.256 218.892C253.967 217.479 254.339 215.996 255.365 214.481C258.149 210.369 257.24 208.554 256.275 206.633L256.196 206.476C256.079 206.244 256.175 205.961 256.407 205.844C256.64 205.728 256.921 205.823 257.038 206.055L257.116 206.21C258.111 208.193 259.239 210.441 256.145 215.01C255.27 216.302 254.945 217.543 255.176 218.695C255.523 220.405 257.002 221.385 257.016 221.394C257.233 221.536 257.297 221.827 257.155 222.044C257.065 222.184 256.912 222.258 256.759 222.258Z" fill="#1A1A1A"/>
<path d="M310.077 67.3497H291.483C289.441 54.3018 278.152 44.3203 264.531 44.3203C261.026 44.3203 257.682 44.9876 254.604 46.1904C247.67 33.6716 234.331 25.1926 219.007 25.1926C196.546 25.1926 178.338 43.4002 178.338 65.8621C178.338 66.3615 178.357 66.8545 178.376 67.3497H176.487C160.81 67.3497 148.103 80.0576 148.103 95.7342C148.103 111.411 160.81 124.119 176.487 124.119H310.077C325.754 124.119 338.462 111.411 338.462 95.7342C338.462 80.0576 325.754 67.3497 310.077 67.3497Z" fill="white"/>
<path d="M313.116 121.158H179.526C163.616 121.158 150.672 108.215 150.672 92.3043C150.672 76.394 163.616 63.4502 179.526 63.4502H180.926C180.916 63.1123 180.905 62.7744 180.905 62.4323C180.905 39.7472 199.361 21.291 222.046 21.291C236.865 21.291 250.548 29.2813 257.856 42.174C260.971 41.0074 264.237 40.4166 267.57 40.4166C274.225 40.4166 280.662 42.8094 285.694 47.1531C290.571 51.3628 293.838 57.1366 294.921 63.4459H313.116C329.026 63.4459 341.97 76.3897 341.97 92.3001C341.97 108.21 329.026 121.154 313.116 121.154V121.158ZM179.526 64.3895C164.134 64.3895 151.611 76.9125 151.611 92.3043C151.611 107.696 164.134 120.219 179.526 120.219H313.116C328.508 120.219 341.031 107.696 341.031 92.3043C341.031 76.9125 328.508 64.3895 313.116 64.3895H294.522C294.29 64.3895 294.093 64.2216 294.056 63.9921C292.004 50.8783 280.864 41.3601 267.57 41.3601C264.216 41.3601 260.935 41.9785 257.816 43.1983C257.595 43.2833 257.346 43.1941 257.233 42.9879C250.142 30.1844 236.661 22.2324 222.049 22.2324C199.882 22.2324 181.849 40.2657 181.849 62.4323C181.849 62.887 181.866 63.3397 181.883 63.7902L181.887 63.9028C181.891 64.0303 181.844 64.1536 181.755 64.2471C181.666 64.3385 181.545 64.3916 181.417 64.3916H179.528L179.526 64.3895Z" fill="#1A1A1A"/>
<path d="M216.976 354.945C216.976 354.945 227.873 376.942 240.118 387.514C242.183 389.297 245.399 388.313 246.17 385.697C246.614 384.184 247.052 382.168 247.411 379.481C248.758 369.438 239.725 343.287 239.725 343.287L235.702 341.991C234.291 341.536 232.795 342.399 232.482 343.85L232.062 345.81L227.225 341.551C226.124 340.582 224.433 340.727 223.523 341.878C221.674 344.22 218.805 348.592 216.974 354.945H216.976Z" fill="white"/>
<path d="M242.54 388.887C241.55 388.887 240.583 388.536 239.812 387.869C227.635 377.356 216.666 355.375 216.555 355.154C216.502 355.047 216.491 354.928 216.525 354.814C218.336 348.53 221.13 344.152 223.158 341.585C223.676 340.928 224.422 340.525 225.257 340.448C226.095 340.372 226.908 340.637 227.54 341.194L231.775 344.921L232.028 343.746C232.204 342.926 232.723 342.214 233.449 341.793C234.176 341.373 235.054 341.281 235.851 341.538L239.874 342.835C240.014 342.879 240.126 342.99 240.173 343.128C240.543 344.199 249.228 369.5 247.881 379.539C247.549 382 247.128 384.114 246.625 385.825C246.215 387.221 245.135 388.298 243.739 388.711C243.344 388.827 242.942 388.883 242.543 388.883L242.54 388.887ZM217.48 354.899C218.506 356.928 228.944 377.244 240.426 387.157C241.276 387.892 242.387 388.13 243.471 387.812C244.559 387.491 245.399 386.651 245.72 385.563C246.21 383.897 246.623 381.83 246.946 379.418C248.2 370.084 240.226 346.222 239.357 343.661L235.56 342.437C235.013 342.261 234.414 342.325 233.917 342.612C233.42 342.898 233.065 343.385 232.946 343.946L232.525 345.905C232.491 346.069 232.372 346.201 232.213 346.254C232.053 346.305 231.879 346.271 231.754 346.16L226.917 341.902C226.479 341.517 225.918 341.334 225.34 341.385C224.766 341.436 224.252 341.715 223.895 342.167C221.94 344.645 219.248 348.857 217.48 354.899Z" fill="#1A1A1A"/>
<path d="M243.525 385.344C243.404 385.344 243.282 385.298 243.191 385.206C230.74 372.702 220.317 353.131 220.213 352.935C220.092 352.706 220.179 352.421 220.408 352.3C220.638 352.179 220.923 352.266 221.044 352.495C221.148 352.691 231.508 372.139 243.856 384.543C244.039 384.728 244.039 385.026 243.856 385.208C243.765 385.3 243.644 385.347 243.525 385.347V385.344Z" fill="#1A1A1A"/>
<path d="M238.216 368.17C238.018 368.17 237.833 368.044 237.77 367.847C237.689 367.6 237.823 367.335 238.069 367.252L244.58 365.107C244.827 365.025 245.093 365.161 245.175 365.407C245.256 365.654 245.122 365.919 244.876 366.002L238.365 368.146C238.316 368.163 238.267 368.17 238.218 368.17H238.216Z" fill="#1A1A1A"/>
<path d="M233.934 361.214C233.736 361.214 233.551 361.089 233.487 360.891C233.407 360.645 233.541 360.379 233.787 360.296L241.969 357.602C242.215 357.521 242.481 357.655 242.564 357.901C242.644 358.148 242.51 358.414 242.264 358.496L234.082 361.191C234.034 361.208 233.985 361.214 233.936 361.214H233.934Z" fill="#1A1A1A"/>
<path d="M127.987 189.771C128.824 188.889 188.53 163.095 212.934 157.61C237.338 152.123 246.431 152.072 254.736 166.019C263.041 179.965 214.734 256.068 214.734 256.068L111.968 229.282L127.989 189.771H127.987Z" fill="#91EE22"/>
<path d="M185.82 219.162C185.756 219.162 185.69 219.15 185.629 219.122C185.391 219.016 185.285 218.737 185.391 218.499C196.87 192.875 215.824 174.568 216.013 174.385C216.2 174.204 216.498 174.211 216.678 174.4C216.859 174.587 216.852 174.887 216.663 175.065C216.474 175.246 197.65 193.434 186.249 218.884C186.171 219.058 185.999 219.162 185.82 219.162Z" fill="#1A1A1A"/>
<path d="M79.1377 223.859C79.1377 223.859 81.8429 251.597 87.842 257.365C93.841 263.134 165.823 257.365 165.823 257.365C165.823 257.365 171.544 266.736 175.282 291.784C179.02 316.832 183.189 350.553 189.382 358.779L243.282 347.142C243.282 347.142 225.917 241.593 213.5 227C201.083 212.407 110.227 208.369 110.227 208.369L79.1377 223.856V223.859Z" fill="#91EE22"/>
<path d="M220.517 245C220.316 245 220.131 244.854 220.061 244.617C217.742 236.764 215.617 231.471 213.749 228.883C209.431 222.906 190.301 217.461 158.429 213.134C158.165 213.098 157.973 212.815 158.003 212.504C158.034 212.191 158.278 211.97 158.538 212.003C191.117 216.426 209.942 221.858 214.484 228.146C216.431 230.841 218.615 236.256 220.973 244.242C221.06 244.54 220.927 244.864 220.676 244.967C220.624 244.987 220.57 244.997 220.517 244.997V245Z" fill="#1A1A1A"/>
<path d="M178.897 133.046C176.984 131.648 174.292 132.134 172.991 134.115C166.274 144.353 147.693 172.712 147.474 173.414L156.786 174.727L179.94 138.629C181.122 136.786 180.665 134.34 178.897 133.048V133.046Z" fill="white"/>
<path d="M156.786 175.197C156.764 175.197 156.741 175.197 156.72 175.192L147.408 173.879C147.272 173.86 147.148 173.781 147.076 173.665C147.002 173.548 146.983 173.405 147.025 173.274C147.24 172.591 161.051 151.462 172.598 133.858C173.297 132.791 174.373 132.079 175.629 131.852C176.884 131.624 178.145 131.913 179.175 132.668C181.141 134.104 181.651 136.833 180.336 138.881L157.181 174.98C157.094 175.116 156.943 175.197 156.786 175.197ZM148.226 173.044L156.552 174.217L179.543 138.371C180.588 136.742 180.183 134.568 178.619 133.424C177.798 132.825 176.795 132.593 175.794 132.774C174.796 132.955 173.941 133.522 173.382 134.37C159.181 156.018 150.017 170.105 148.224 173.04L148.226 173.044Z" fill="#1A1A1A"/>
<path d="M52.3105 218.52C52.3105 218.52 42.6393 205.003 46.5983 174.725C50.5594 144.447 60.2476 128.73 70.3863 125.139C80.5229 121.547 122.221 128.105 125.476 178.977L52.3105 218.52Z" fill="white"/>
<path d="M52.3108 218.992C52.1642 218.992 52.0197 218.922 51.9283 218.795C51.8306 218.659 42.1934 204.778 46.1333 174.663C49.7459 147.052 58.5288 128.841 70.2294 124.695C75.6483 122.776 89.4336 123.743 101.814 131.911C111.874 138.55 124.227 152.097 125.946 178.948C125.959 179.13 125.861 179.305 125.7 179.392L52.534 218.935C52.4639 218.973 52.3852 218.992 52.3108 218.992ZM76.458 124.782C74.0078 124.782 71.972 125.077 70.5439 125.583C65.3587 127.419 60.537 132.453 56.595 140.14C52.143 148.825 48.9362 160.481 47.0662 174.787C43.5152 201.93 51.0486 215.611 52.4681 217.902L124.988 178.71C123.222 152.446 111.141 139.196 101.296 132.7C92.4852 126.886 82.9947 124.784 76.458 124.784V124.782Z" fill="#1A1A1A"/>
<path d="M81.4479 197.123C81.2035 197.123 80.9974 196.934 80.9782 196.685L78.97 168.29C78.9509 168.031 79.1464 167.806 79.4057 167.787C79.6649 167.768 79.8902 167.963 79.9072 168.222L81.9154 196.617C81.9345 196.877 81.739 197.102 81.4797 197.121C81.4691 197.121 81.4564 197.121 81.4457 197.121L81.4479 197.123Z" fill="#1A1A1A"/>
<path d="M48.79 210.734C48.79 210.734 52.3028 236.163 87.8424 227.652C123.38 219.141 141.908 186.105 141.908 186.105C141.908 186.105 162.6 181.682 161.897 168.256C161.897 168.256 154.971 170.114 149.08 168.256C143.19 166.399 136.817 168.299 134.364 170.598C117.561 186.358 63.8865 191.084 48.79 210.734Z" fill="white"/>
<path d="M74.4162 229.87C67.8029 229.87 62.2459 228.351 57.8066 225.319C49.6464 219.744 48.3756 211.159 48.3246 210.796C48.3076 210.67 48.3416 210.545 48.4181 210.445C56.725 199.633 76.3967 193.351 95.4203 187.276C111.384 182.178 126.463 177.362 134.043 170.252C136.819 167.648 143.411 165.974 149.223 167.806C154.916 169.599 161.707 167.819 161.775 167.799C161.914 167.763 162.058 167.791 162.175 167.874C162.29 167.957 162.36 168.088 162.368 168.231C163.053 181.33 144.518 185.99 142.214 186.517C141.468 187.794 136.812 195.514 128.542 204.013C120.22 212.564 106.422 223.684 87.9549 228.107C83.046 229.282 78.5282 229.868 74.4183 229.868L74.4162 229.87ZM49.2894 210.857C49.5253 212.145 51.1871 219.666 58.3507 224.551C65.3209 229.303 75.2067 230.191 87.7318 227.193C122.666 218.826 141.311 186.202 141.496 185.873C141.562 185.756 141.677 185.671 141.808 185.644C142.008 185.601 161.506 181.279 161.442 168.849C159.638 169.255 153.97 170.29 148.938 168.705C143.141 166.877 136.936 168.83 134.685 170.94C126.95 178.195 111.773 183.042 95.7051 188.172C76.9152 194.174 57.49 200.377 49.2873 210.857H49.2894Z" fill="#1A1A1A"/>
<path d="M149.241 174.466C148.667 174.466 148.074 174.453 147.454 174.43C147.195 174.419 146.993 174.2 147.003 173.941C147.014 173.682 147.216 173.48 147.492 173.49C157.862 173.909 161.401 170.475 161.435 170.441C161.617 170.258 161.915 170.256 162.1 170.437C162.285 170.619 162.289 170.915 162.108 171.1C161.966 171.244 158.708 174.468 149.241 174.468V174.466Z" fill="#1A1A1A"/>
<path d="M148.164 179.385C147.935 179.385 147.703 179.385 147.465 179.379C147.206 179.375 146.998 179.16 147.004 178.899C147.008 178.639 147.229 178.433 147.484 178.437C156.524 178.603 159.442 175.399 159.47 175.367C159.642 175.171 159.937 175.15 160.135 175.322C160.33 175.492 160.352 175.79 160.179 175.987C160.056 176.13 157.104 179.387 148.166 179.387L148.164 179.385Z" fill="#1A1A1A"/>
<path d="M86.5473 101.576C86.2796 102.065 74.9126 121.494 74.9126 121.494L67.0732 126.762C69.9655 128.96 75.0741 132.266 82.2186 134.162C89.5076 136.093 95.6957 135.7 99.3169 135.199C99.0023 134.208 98.4732 132.919 97.5552 131.571C96.108 129.446 94.3825 128.182 93.2795 127.506C95.6192 123.487 97.9589 119.471 100.299 115.453L86.5473 101.576Z" fill="white"/>
<path d="M93.3181 136.085C89.5418 136.085 85.789 135.594 82.0977 134.616C76.5279 133.14 71.3768 130.623 66.7866 127.138C66.6655 127.047 66.5975 126.903 66.6018 126.75C66.606 126.599 66.6846 126.456 66.81 126.373L74.5601 121.165C75.4144 119.705 85.8825 101.81 86.1353 101.351C86.2076 101.221 86.3351 101.132 86.4817 101.111C86.6284 101.089 86.7771 101.14 86.8812 101.244L100.633 115.121C100.783 115.272 100.811 115.506 100.705 115.689L93.9152 127.349C95.5196 128.403 96.8754 129.733 97.9443 131.304C98.7285 132.455 99.3405 133.715 99.7655 135.052C99.808 135.184 99.7889 135.328 99.7145 135.445C99.6401 135.562 99.519 135.641 99.3809 135.66C97.3578 135.94 95.3348 136.081 93.3159 136.081L93.3181 136.085ZM67.8853 126.783C72.2417 129.99 77.1017 132.319 82.34 133.707C87.6973 135.127 93.1927 135.496 98.6881 134.806C98.3056 133.754 97.7956 132.757 97.1687 131.835C96.0892 130.247 94.6972 128.926 93.0354 127.906C92.8166 127.772 92.7464 127.489 92.8761 127.268L99.7124 115.527L86.6496 102.345C84.8221 105.49 75.7438 121.01 75.3209 121.732C75.2848 121.794 75.2359 121.845 75.1764 121.885L67.8874 126.783H67.8853Z" fill="#1A1A1A"/>
<path d="M120.97 89.1635C115.729 84.8602 109.552 89.3526 103.434 84.0761C100.631 81.6578 100.374 79.3754 97.0076 78.0515C94.7784 77.176 90.813 76.5725 88.1737 78.587C84.8118 81.152 87.2854 85.1492 84.5589 94.1149C82.6443 100.411 79.9901 103.151 81.4797 105.359C82.9864 107.592 86.4885 105.962 88.3182 108.278C90.6855 111.275 86.3674 115.965 87.7125 120.198C88.6369 123.107 93.0592 127.262 104.175 128.651C104.79 126.869 106.264 123.339 107.225 119.888C110.232 109.086 108.593 104.953 111.297 103.557C115.438 101.419 120.434 108.021 123.511 106.028C126.707 103.958 126.348 93.5794 120.968 89.1614L120.97 89.1635Z" fill="#1A1A1A"/>
<path d="M99.2515 94.4506L100.299 97.6233C100.299 97.6233 96.2297 107.605 95.5008 111.375C94.774 115.144 106.279 118.281 106.279 118.281L108.085 116.942L111.299 117.746C111.299 117.746 111.201 106.759 114.144 99.4339C114.144 99.4339 108.712 92.844 99.2494 94.4506H99.2515Z" fill="white"/>
<path d="M99.6533 94.6929C100.07 95.6513 100.44 96.5289 100.746 97.4767C100.782 97.5872 100.775 97.702 100.735 97.8019C99.8594 99.9652 99.0179 102.148 98.2103 104.339C97.4219 106.529 96.6208 108.742 96.0747 110.965L95.9812 111.379C95.945 111.523 95.9578 111.606 95.9386 111.721C95.9578 111.938 95.9875 112.159 96.1002 112.376C96.2999 112.811 96.659 113.219 97.0671 113.58C97.8937 114.303 98.8967 114.879 99.921 115.391C101.982 116.4 104.19 117.189 106.402 117.828L105.999 117.905L107.803 116.566L107.833 116.547C107.943 116.471 108.079 116.454 108.198 116.488L111.375 117.429L110.969 117.75C110.959 116.182 111.016 114.628 111.112 113.07C111.209 111.515 111.356 109.959 111.552 108.41C111.76 106.861 112.021 105.318 112.355 103.786C112.71 102.258 113.141 100.743 113.704 99.2618L113.779 99.7357C112.931 98.7858 111.87 97.9187 110.759 97.209C109.643 96.4907 108.44 95.9042 107.18 95.494C105.924 95.0818 104.62 94.7906 103.294 94.7269C102.633 94.6504 101.97 94.695 101.307 94.7056C100.941 94.7014 100.735 94.7609 100.471 94.7503C100.219 94.7503 99.9508 94.7163 99.6511 94.6929H99.6533ZM98.8457 94.2084C99.2219 94.1021 99.632 93.9895 100.057 93.9066C100.471 93.828 100.941 93.7557 101.26 93.7664C101.961 93.7536 102.662 93.709 103.362 93.7876C104.764 93.8577 106.152 94.1637 107.482 94.6015C108.819 95.0371 110.092 95.6555 111.269 96.4163C112.455 97.1813 113.534 98.0484 114.505 99.1364C114.618 99.2618 114.643 99.4339 114.59 99.5805L114.58 99.6103C114.017 101.023 113.572 102.492 113.203 103.982C112.852 105.478 112.572 106.993 112.342 108.516C112.125 110.044 111.957 111.579 111.836 113.119C111.717 114.658 111.637 116.207 111.624 117.743C111.624 117.926 111.473 118.075 111.29 118.073C111.265 118.073 111.239 118.069 111.216 118.064L107.969 117.399L108.364 117.321L106.558 118.659L106.551 118.664C106.432 118.751 106.283 118.772 106.152 118.736C103.867 118.075 101.647 117.284 99.5003 116.235C98.4335 115.699 97.3816 115.106 96.4423 114.286C95.979 113.872 95.5328 113.396 95.2395 112.764C95.0844 112.456 95.0121 112.091 94.9951 111.725C95.0121 111.551 95.0206 111.336 95.0567 111.196L95.1566 110.754C95.7283 108.427 96.5315 106.228 97.3263 104.016C98.1381 101.812 98.9817 99.6252 99.8615 97.447L99.8509 97.7721C99.4578 96.6033 99.1284 95.3644 98.8457 94.2084Z" fill="#1A1A1A"/>
<path d="M95.3622 103.265C95.3622 103.265 96.3694 95.9701 92.9523 96.2145C89.5352 96.4589 88.63 104.517 95.3622 103.265Z" fill="white"/>
<path d="M94.013 103.869C92.2428 103.869 91.2461 103.138 90.6979 102.445C89.6141 101.077 89.7097 99.1513 90.2835 97.8465C90.8296 96.6076 91.8157 95.8213 92.9207 95.7427C93.673 95.6896 94.302 95.9297 94.795 96.4588C96.5036 98.2843 95.8575 103.123 95.8299 103.329C95.8023 103.531 95.6493 103.69 95.4495 103.727C94.9225 103.824 94.4465 103.869 94.0151 103.869H94.013ZM93.1162 96.6777C93.0737 96.6777 93.0312 96.6777 92.9866 96.682C92.2237 96.7372 91.5522 97.2982 91.1441 98.2248C90.683 99.2703 90.5959 100.798 91.4353 101.859C92.1344 102.741 93.3393 103.083 94.9374 102.855C95.0946 101.372 95.1796 98.2439 94.1065 97.0985C93.8409 96.8137 93.5157 96.6735 93.1162 96.6735V96.6777Z" fill="#1A1A1A"/>
<path d="M120.883 309.467C118.598 304.766 118.382 300.032 120.883 295.246L119.087 293.093L69.9854 294.708L71.6769 310.306L119.206 310.855L120.881 309.467H120.883Z" fill="white"/>
<path d="M119.208 311.324H119.202L71.6724 310.776C71.4344 310.774 71.2368 310.593 71.2091 310.355L69.5176 294.757C69.5027 294.628 69.5452 294.496 69.6302 294.398C69.7152 294.298 69.8385 294.241 69.9702 294.237L119.072 292.622C119.214 292.617 119.357 292.679 119.448 292.792L121.244 294.944C121.365 295.091 121.388 295.295 121.299 295.463C118.964 299.93 118.966 304.443 121.305 309.259C121.401 309.454 121.35 309.688 121.182 309.826L119.508 311.214C119.423 311.284 119.316 311.322 119.208 311.322V311.324ZM72.1017 309.841L119.04 310.383L120.3 309.339C118.063 304.524 118.069 299.806 120.322 295.31L118.872 293.571L70.5079 295.163L72.1017 309.841Z" fill="#1A1A1A"/>
<path d="M30.6588 291.376H121.792C122.857 291.376 123.722 292.239 123.722 293.306C123.722 294.373 122.859 295.235 121.792 295.235H79.8945C76.8259 295.235 74.3396 297.722 74.3396 300.79V303.914C74.3396 306.983 76.8259 309.469 79.8945 309.469H121.792C122.857 309.469 123.722 310.332 123.722 311.399C123.722 312.465 122.859 313.328 121.792 313.328H30.6588C25.0019 313.328 20.416 308.742 20.416 303.085V301.623C20.416 295.966 25.0019 291.38 30.6588 291.38V291.376Z" fill="white"/>
<path d="M121.794 313.796H30.6587C24.7511 313.796 19.9463 308.989 19.9463 303.083V301.621C19.9463 295.713 24.7532 290.909 30.6587 290.909H121.792C123.116 290.909 124.191 291.986 124.191 293.308C124.191 294.63 123.114 295.707 121.792 295.707H79.8944C77.0914 295.707 74.8091 297.987 74.8091 300.792V303.916C74.8091 306.719 77.0893 309.001 79.8944 309.001H121.792C123.116 309.001 124.191 310.079 124.191 311.401C124.191 312.722 123.114 313.8 121.792 313.8L121.794 313.796ZM30.6609 291.848C25.2717 291.848 20.8898 296.232 20.8898 301.621V303.083C20.8898 308.472 25.2738 312.856 30.6609 312.856H121.794C122.598 312.856 123.252 312.202 123.252 311.399C123.252 310.595 122.598 309.941 121.794 309.941H79.8965C76.5729 309.941 73.8698 307.238 73.8698 303.914V300.79C73.8698 297.467 76.5729 294.764 79.8965 294.764H121.794C122.598 294.764 123.252 294.109 123.252 293.306C123.252 292.502 122.598 291.848 121.794 291.848H30.6587H30.6609Z" fill="#1A1A1A"/>
<path d="M119.085 302.165H91.4316C91.1723 302.165 90.9619 301.955 90.9619 301.696C90.9619 301.436 91.1723 301.226 91.4316 301.226H119.085C119.344 301.226 119.555 301.436 119.555 301.696C119.555 301.955 119.344 302.165 119.085 302.165Z" fill="#1A1A1A"/>
<path d="M119.259 306.328H96.7841C96.5248 306.328 96.3145 306.118 96.3145 305.859C96.3145 305.599 96.5248 305.389 96.7841 305.389H119.259C119.518 305.389 119.728 305.599 119.728 305.859C119.728 306.118 119.518 306.328 119.259 306.328Z" fill="#1A1A1A"/>
<path d="M124.414 336.005H42.0957V315.838H124.412C121.981 322.651 121.915 329.374 124.412 336.005H124.414Z" fill="white"/>
<path d="M124.414 336.474H42.0956C41.8364 336.474 41.626 336.264 41.626 336.005V315.838C41.626 315.579 41.8364 315.368 42.0956 315.368H124.414C124.567 315.368 124.71 315.443 124.799 315.568C124.886 315.693 124.909 315.853 124.858 315.997C122.446 322.761 122.444 329.438 124.856 335.841C124.912 335.986 124.89 336.147 124.803 336.275C124.716 336.402 124.572 336.476 124.416 336.476L124.414 336.474ZM42.5674 335.533H123.743C121.556 329.311 121.558 322.848 123.753 316.307H42.5674V335.533Z" fill="#1A1A1A"/>
<path d="M52.0071 316.832H124.982C125.86 316.832 126.571 316.12 126.571 315.243C126.571 314.365 125.86 313.653 124.982 313.653H30.2847C26.4277 313.653 23.3018 316.779 23.3018 320.636V331.614C23.3018 335.471 26.4277 338.597 30.2847 338.597H124.98C125.857 338.597 126.569 337.885 126.569 337.008C126.569 336.13 125.857 335.418 124.98 335.418H52.0071C49.2828 335.418 47.0749 333.21 47.0749 330.486V321.765C47.0749 319.04 49.2828 316.832 52.0071 316.832Z" fill="white"/>
<path d="M124.98 339.067H30.2846C26.1748 339.067 22.832 335.724 22.832 331.614V320.636C22.832 316.526 26.1748 313.184 30.2846 313.184H124.98C126.114 313.184 127.039 314.108 127.039 315.243C127.039 316.378 126.114 317.302 124.98 317.302H52.0071C49.5462 317.302 47.5444 319.304 47.5444 321.765V330.486C47.5444 332.947 49.5462 334.949 52.0071 334.949H124.982C126.117 334.949 127.041 335.873 127.041 337.008C127.041 338.142 126.117 339.067 124.982 339.067H124.98ZM30.2846 314.123C26.6933 314.123 23.7713 317.045 23.7713 320.636V331.614C23.7713 335.206 26.6933 338.128 30.2846 338.128H124.98C125.596 338.128 126.097 337.626 126.097 337.01C126.097 336.394 125.596 335.892 124.98 335.892H52.0071C49.0277 335.892 46.603 333.467 46.603 330.488V321.767C46.603 318.787 49.0277 316.363 52.0071 316.363H124.982C125.598 316.363 126.1 315.861 126.1 315.245C126.1 314.629 125.598 314.127 124.982 314.127H30.2846V314.123Z" fill="#1A1A1A"/>
<path d="M122.959 321.095H110.804C110.544 321.095 110.334 320.885 110.334 320.626C110.334 320.366 110.544 320.156 110.804 320.156H122.959C123.218 320.156 123.429 320.366 123.429 320.626C123.429 320.885 123.218 321.095 122.959 321.095Z" fill="#1A1A1A"/>
<path d="M122.702 323.788H85.2665C85.0073 323.788 84.7969 323.577 84.7969 323.318C84.7969 323.059 85.0073 322.848 85.2665 322.848H122.702C122.961 322.848 123.171 323.059 123.171 323.318C123.171 323.577 122.961 323.788 122.702 323.788Z" fill="#1A1A1A"/>
<path d="M122.702 329.406H90.4921C90.2328 329.406 90.0225 329.196 90.0225 328.937C90.0225 328.677 90.2328 328.467 90.4921 328.467H122.702C122.961 328.467 123.171 328.677 123.171 328.937C123.171 329.196 122.961 329.406 122.702 329.406Z" fill="#1A1A1A"/>
<path d="M23.627 359.181C26.2068 353.87 26.4533 348.517 23.627 343.111L25.6564 340.678L81.1397 342.503L79.2272 360.128L25.5204 360.747L23.627 359.181Z" fill="white"/>
<path d="M25.5185 361.219C25.408 361.219 25.3017 361.18 25.2188 361.11L23.3254 359.544C23.1575 359.406 23.1065 359.17 23.2022 358.977C25.8564 353.515 25.8564 348.398 23.2085 343.332C23.1214 343.164 23.1427 342.958 23.2638 342.813L25.2932 340.38C25.3867 340.27 25.527 340.208 25.6694 340.21L81.1527 342.036C81.2844 342.04 81.4077 342.099 81.4927 342.197C81.5777 342.297 81.6202 342.427 81.6053 342.556L79.6928 360.182C79.6673 360.417 79.4675 360.598 79.2295 360.602L25.5227 361.221H25.5164L25.5185 361.219ZM24.2094 359.053L25.6864 360.277L78.8045 359.665L80.6172 342.96L25.8691 341.16L24.1882 343.177C26.7489 348.264 26.7574 353.602 24.2094 359.055V359.053Z" fill="#1A1A1A"/>
<path d="M125.577 338.738H22.5963C21.3935 338.738 20.416 339.713 20.416 340.918C20.416 342.123 21.3914 343.098 22.5963 343.098H69.9407C73.4066 343.098 76.2181 345.91 76.2181 349.376V352.905C76.2181 356.371 73.4066 359.183 69.9407 359.183H22.5963C21.3935 359.183 20.416 360.158 20.416 361.363C20.416 362.568 21.3914 363.543 22.5963 363.543H125.577C131.969 363.543 137.152 358.36 137.152 351.968V350.315C137.152 343.923 131.969 338.74 125.577 338.74V338.738Z" fill="white"/>
<path d="M125.577 364.011H22.5962C21.1342 364.011 19.9463 362.823 19.9463 361.361C19.9463 359.899 21.1342 358.711 22.5962 358.711H69.9406C73.143 358.711 75.7463 356.106 75.7463 352.905V349.376C75.7463 346.173 73.1409 343.57 69.9406 343.57H22.5962C21.1342 343.57 19.9463 342.382 19.9463 340.92C19.9463 339.458 21.1342 338.27 22.5962 338.27H125.577C132.218 338.27 137.622 343.674 137.622 350.315V351.968C137.622 358.609 132.218 364.013 125.577 364.013V364.011ZM22.5962 359.652C21.6548 359.652 20.8877 360.42 20.8877 361.361C20.8877 362.302 21.6548 363.07 22.5962 363.07H125.577C131.699 363.07 136.68 358.088 136.68 351.966V350.313C136.68 344.19 131.699 339.209 125.577 339.209H22.5962C21.6548 339.209 20.8877 339.976 20.8877 340.918C20.8877 341.859 21.6548 342.626 22.5962 342.626H69.9406C73.6616 342.626 76.6877 345.652 76.6877 349.373V352.903C76.6877 356.624 73.6616 359.65 69.9406 359.65H22.5962V359.652Z" fill="#1A1A1A"/>
<path d="M51.0549 350.867H25.6562C25.3969 350.867 25.1865 350.657 25.1865 350.398C25.1865 350.138 25.3969 349.928 25.6562 349.928H51.0549C51.3142 349.928 51.5246 350.138 51.5246 350.398C51.5246 350.657 51.3142 350.867 51.0549 350.867Z" fill="#1A1A1A"/>
<path d="M56.5059 355.574H25.4609C25.2016 355.574 24.9912 355.364 24.9912 355.105C24.9912 354.846 25.2016 354.635 25.4609 354.635H56.5059C56.7652 354.635 56.9756 354.846 56.9756 355.105C56.9756 355.364 56.7652 355.574 56.5059 355.574Z" fill="#1A1A1A"/>
<path d="M283.703 265.803C288.533 268.902 320.303 287.585 358.365 269.514C358.503 269.448 358.614 269.341 358.679 269.203C360.148 266.171 376.347 230.523 353.04 179.604C352.859 179.207 352.355 179.077 352.015 179.343C347.744 182.686 323.644 200.846 304.526 200.379C304.076 200.368 303.74 200.78 303.859 201.218C305.236 206.259 310.559 232.459 283.552 264.804C283.293 265.115 283.361 265.582 283.703 265.803Z" fill="white"/>
<path d="M324.731 277.776C319.348 277.776 313.925 277.204 308.474 276.057C295.14 273.252 285.947 267.801 283.447 266.198C283.173 266.022 282.986 265.735 282.937 265.412C282.886 265.087 282.98 264.756 283.19 264.503C310.066 232.314 304.745 206.242 303.404 201.341C303.308 200.991 303.381 200.63 303.604 200.345C303.829 200.058 304.173 199.899 304.537 199.907C323.428 200.377 347.155 182.55 351.724 178.971C351.998 178.756 352.348 178.682 352.688 178.765C353.035 178.85 353.318 179.084 353.466 179.407C363.252 200.785 367.339 221.978 365.617 242.4C364.302 258.011 359.958 267.637 359.102 269.407C358.989 269.641 358.804 269.824 358.566 269.939C347.573 275.158 336.247 277.776 324.733 277.776H324.731ZM304.507 200.848C304.418 200.848 304.367 200.897 304.343 200.925C304.318 200.959 304.29 201.014 304.311 201.093C305.674 206.072 311.088 232.559 283.911 265.106C283.858 265.168 283.86 265.236 283.864 265.27C283.868 265.304 283.887 265.365 283.953 265.406C286.418 266.987 295.486 272.363 308.666 275.134C325.564 278.69 342.216 276.656 358.158 269.086C358.201 269.065 358.233 269.035 358.252 268.997C359.096 267.252 363.375 257.766 364.678 242.319C366.387 222.061 362.326 201.025 352.61 179.798C352.572 179.713 352.497 179.685 352.467 179.679C352.433 179.67 352.368 179.664 352.306 179.713C347.752 183.278 324.321 200.855 305.259 200.857C305.008 200.857 304.764 200.855 304.515 200.848C304.515 200.848 304.511 200.848 304.509 200.848H304.507Z" fill="#1A1A1A"/>
<path d="M311.6 209.174C311.381 209.174 311.186 209.021 311.141 208.8C311.088 208.545 311.249 208.297 311.504 208.244C311.708 208.201 332.124 203.821 346.991 192.79C347.199 192.635 347.494 192.68 347.65 192.888C347.805 193.096 347.76 193.392 347.552 193.547C332.517 204.705 311.906 209.123 311.698 209.166C311.666 209.172 311.632 209.177 311.6 209.177V209.174Z" fill="#1A1A1A"/>
<path d="M326.287 214.483C326.072 214.483 325.879 214.334 325.828 214.117C325.771 213.864 325.93 213.612 326.183 213.554C335.903 211.346 344.446 207.746 351.573 202.854C351.788 202.708 352.081 202.761 352.228 202.976C352.374 203.19 352.319 203.483 352.107 203.63C344.881 208.59 336.228 212.237 326.391 214.472C326.355 214.481 326.321 214.485 326.287 214.485V214.483Z" fill="#1A1A1A"/>
<path d="M311.422 216.523C311.165 216.523 310.954 216.317 310.952 216.058C310.948 215.798 311.156 215.584 311.415 215.582C311.447 215.582 314.567 215.531 319.336 214.834C319.595 214.797 319.831 214.974 319.869 215.231C319.907 215.488 319.729 215.728 319.472 215.764C314.635 216.472 311.46 216.523 311.428 216.523H311.422Z" fill="#1A1A1A"/>
<path d="M315.941 224.687C312.805 224.687 310.977 224.481 310.916 224.473C310.659 224.441 310.474 224.207 310.506 223.95C310.537 223.693 310.769 223.508 311.028 223.54C311.226 223.563 331.136 225.799 353.438 215.065C353.672 214.953 353.955 215.05 354.067 215.286C354.18 215.52 354.082 215.803 353.848 215.915C338.002 223.542 323.339 224.69 315.941 224.69V224.687Z" fill="#1A1A1A"/>
<path d="M322.022 233.228C313.962 233.228 308.917 232.134 308.815 232.11C308.562 232.053 308.403 231.802 308.46 231.547C308.517 231.294 308.768 231.135 309.023 231.192C309.231 231.239 330.051 235.742 355.001 226.154C355.243 226.06 355.515 226.181 355.609 226.424C355.702 226.666 355.581 226.938 355.339 227.031C342.387 232.008 330.529 233.226 322.024 233.226L322.022 233.228Z" fill="#1A1A1A"/>
<path d="M340.505 243.05C340.274 243.05 340.074 242.88 340.04 242.644C340.004 242.387 340.182 242.149 340.439 242.113C345.457 241.407 350.236 240.169 354.645 238.437C354.888 238.341 355.16 238.46 355.255 238.702C355.351 238.944 355.232 239.217 354.99 239.312C350.512 241.072 345.661 242.33 340.571 243.046C340.55 243.048 340.526 243.05 340.505 243.05Z" fill="#1A1A1A"/>
<path d="M329.957 243.771C316.607 243.771 306.396 240.487 306.29 240.451C306.043 240.37 305.907 240.105 305.988 239.858C306.069 239.612 306.337 239.478 306.581 239.557C306.692 239.593 317.916 243.197 332.177 242.797C332.449 242.791 332.653 242.995 332.662 243.254C332.668 243.513 332.464 243.73 332.205 243.739C331.446 243.76 330.696 243.771 329.957 243.771Z" fill="#1A1A1A"/>
<path d="M14.4926 73.0853L33.2059 91.1675C34.9314 92.8335 37.6919 92.7677 39.3218 91.0081C44.9702 84.9177 58.3879 71.789 75.2014 64.4044C77.6283 63.3398 78.5293 60.3625 77.0842 58.1397L60.4365 32.5518C59.1869 30.6308 56.6496 30.0251 54.6754 31.1875C48.3788 34.9 34.1515 44.7476 14.2609 67.1543C12.7373 68.8713 12.8414 71.4894 14.4904 73.0832L14.4926 73.0853Z" fill="white"/>
<path d="M36.1849 92.8441C34.9438 92.8441 33.7751 92.3723 32.8783 91.5053L14.165 73.4231C12.3246 71.6445 12.212 68.7544 13.9099 66.8439C33.6263 44.6349 47.7644 34.7193 54.4371 30.7837C56.6301 29.4917 59.4373 30.1547 60.8314 32.2968L77.4791 57.8847C78.2399 59.0556 78.4482 60.4942 78.0487 61.8309C77.647 63.1761 76.678 64.2705 75.3902 64.8358C58.4024 72.2969 44.7489 85.8484 39.6657 91.3289C38.7923 92.2703 37.6044 92.808 36.3188 92.8441C36.2741 92.8441 36.2295 92.8441 36.1849 92.8441ZM14.8195 72.7452L33.5328 90.8274C34.2787 91.5478 35.2562 91.9261 36.2933 91.9006C37.3239 91.873 38.2759 91.4416 38.9751 90.6872C44.0965 85.1641 57.8605 71.5042 75.0119 63.973C76.0468 63.5182 76.8246 62.6406 77.1455 61.561C77.4664 60.49 77.2985 59.3361 76.6886 58.3968L60.0409 32.8089C58.9231 31.0918 56.6726 30.5584 54.9152 31.5934C48.2914 35.4992 34.2447 45.3532 14.6155 67.4666C13.2533 68.9988 13.3447 71.3193 14.8216 72.7452H14.8195Z" fill="#1A1A1A"/>
<path d="M1.94568 96.6735L20.659 114.756C22.3846 116.422 25.145 116.356 26.7749 114.596C32.4234 108.506 45.841 95.3772 62.6545 87.9926C65.0814 86.9279 65.9824 83.9507 64.5374 81.7279L47.8896 56.14C46.6401 54.2189 44.1027 53.6133 42.1285 54.7757C35.832 58.4882 21.6047 68.3357 1.71405 90.7424C0.190375 92.4594 0.294504 95.0775 1.94355 96.6713L1.94568 96.6735Z" fill="white"/>
<path d="M23.6388 116.434C22.3978 116.434 21.229 115.963 20.3322 115.096L1.62101 97.0114C-0.219299 95.2327 -0.331928 92.3426 1.366 90.4322C21.0824 68.221 35.2204 58.3055 41.8931 54.372C44.0862 53.0799 46.8934 53.7429 48.2874 55.885L64.9352 81.4729C65.696 82.6438 65.9042 84.0825 65.5047 85.4192C65.1031 86.7643 64.134 87.8587 62.8463 88.424C45.8585 95.8851 32.2049 109.437 27.1218 114.917C26.2484 115.859 25.0605 116.396 23.7748 116.432C23.7302 116.432 23.6856 116.432 23.6409 116.432L23.6388 116.434ZM2.2734 96.3356L20.9867 114.418C21.7326 115.138 22.7102 115.516 23.7493 115.491C24.78 115.463 25.732 115.032 26.4311 114.278C31.5526 108.755 45.3166 95.0946 62.468 87.5634C63.5029 87.1086 64.2807 86.2288 64.6037 85.1514C64.9246 84.0804 64.7567 82.9265 64.1468 81.9872L47.499 56.3993C46.3813 54.6822 44.1308 54.1488 42.3713 55.1837C35.7474 59.0896 21.7007 68.9435 2.07152 91.057C0.709354 92.5891 0.800732 94.9076 2.27765 96.3356H2.2734Z" fill="#1A1A1A"/>
<path d="M5.89443 95.0819C5.66492 95.0819 5.46517 94.914 5.42904 94.6824C5.39079 94.4252 5.56717 94.1851 5.8243 94.1468L28.8345 90.6724C32.8976 90.0582 36.2212 87.2744 37.5112 83.4068L45.1571 60.4624C45.24 60.2159 45.5056 60.0821 45.7522 60.1649C45.9987 60.2478 46.1325 60.5134 46.0497 60.76L38.4037 83.7043C37.0011 87.9098 33.3885 90.938 28.9748 91.6031L5.96456 95.0776C5.94118 95.0819 5.9178 95.084 5.89443 95.084V95.0819Z" fill="#1A1A1A"/>
<path d="M346.035 277.619L315.4 259.876C314.148 259.152 312.478 259.538 311.668 260.743L273.198 318.025C272.39 319.229 272.75 320.791 274.001 321.518L304.636 339.26C305.888 339.985 307.558 339.598 308.368 338.393L346.838 281.112C347.645 279.907 347.286 278.345 346.035 277.619Z" fill="white"/>
<path d="M306.007 340.091C305.455 340.091 304.898 339.953 304.401 339.666L273.766 321.924C273.048 321.508 272.55 320.845 272.37 320.058C272.187 319.27 272.342 318.454 272.807 317.761L311.277 260.48C312.221 259.077 314.174 258.623 315.636 259.468L346.271 277.211C346.989 277.627 347.486 278.29 347.667 279.076C347.85 279.865 347.695 280.681 347.229 281.374L308.759 338.655C308.139 339.579 307.076 340.091 306.007 340.091ZM314.021 259.981C313.26 259.981 312.504 260.346 312.059 261.005L273.589 318.286C273.271 318.76 273.164 319.314 273.288 319.846C273.411 320.377 273.749 320.825 274.24 321.108L304.875 338.85C305.916 339.454 307.308 339.129 307.979 338.128L346.449 280.847C346.768 280.373 346.874 279.818 346.751 279.287C346.628 278.755 346.29 278.307 345.801 278.024L315.166 260.282C314.811 260.076 314.416 259.978 314.023 259.978L314.021 259.981Z" fill="#1A1A1A"/>
<path d="M321.833 263.602L321.012 264.823C320.139 266.122 320.528 267.809 321.879 268.591L334.757 276.05C336.109 276.832 337.911 276.414 338.782 275.115L339.602 273.893L321.831 263.602H321.833Z" fill="#1A1A1A"/>
<path d="M329.058 271.218C328.567 270.933 328.427 270.321 328.744 269.847C329.06 269.375 329.717 269.222 330.208 269.507C330.699 269.792 330.839 270.404 330.522 270.878C330.206 271.35 329.549 271.503 329.058 271.218Z" fill="white"/>
<path d="M338.981 286.331L310.076 269.59L311.768 267.072L340.673 283.811L338.981 286.331Z" fill="#1A1A1A"/>
<path d="M326.491 305.4C326.41 305.4 326.329 305.378 326.255 305.336L297.35 288.597C297.237 288.531 297.156 288.422 297.126 288.295C297.097 288.167 297.122 288.034 297.194 287.927L308.449 271.169C308.587 270.963 308.861 270.899 309.076 271.024L337.981 287.764C338.093 287.829 338.174 287.938 338.204 288.065C338.234 288.193 338.208 288.327 338.136 288.433L326.882 305.191C326.792 305.325 326.644 305.4 326.491 305.4ZM298.257 288.034L326.346 304.301L337.076 288.325L308.986 272.057L298.257 288.034Z" fill="#1A1A1A"/>
<path d="M338.623 284.374C338.398 284.71 337.934 284.816 337.586 284.614C337.237 284.412 337.137 283.977 337.363 283.643C337.588 283.307 338.051 283.201 338.4 283.403C338.748 283.605 338.848 284.041 338.623 284.374Z" fill="white"/>
<path d="M318.699 317C318.618 317 318.537 316.979 318.463 316.937L289.558 300.197C289.445 300.132 289.364 300.023 289.334 299.896C289.305 299.768 289.33 299.634 289.402 299.528L296.419 289.081C296.558 288.875 296.832 288.811 297.046 288.937L325.951 305.676C326.064 305.742 326.145 305.85 326.175 305.978C326.204 306.105 326.179 306.239 326.107 306.345L319.09 316.792C319 316.926 318.852 317 318.699 317ZM290.465 299.634L318.554 315.902L325.044 306.237L296.955 289.969L290.465 299.634Z" fill="#1A1A1A"/>
<path d="M310.657 328.975C310.576 328.975 310.495 328.954 310.421 328.911L281.516 312.172C281.403 312.106 281.322 311.998 281.292 311.87C281.263 311.743 281.288 311.609 281.36 311.503L288.377 301.056C288.516 300.85 288.79 300.786 289.004 300.911L317.909 317.651C318.022 317.716 318.103 317.825 318.133 317.952C318.162 318.08 318.137 318.214 318.065 318.32L311.048 328.767C310.958 328.901 310.81 328.975 310.657 328.975ZM282.423 311.609L310.512 327.876L317.002 318.212L288.913 301.944L282.423 311.609Z" fill="#1A1A1A"/>
<path d="M304.992 337.412C304.911 337.412 304.83 337.39 304.756 337.348L275.851 320.609C275.738 320.543 275.657 320.434 275.627 320.307C275.598 320.179 275.623 320.046 275.695 319.939L280.337 313.029C280.475 312.822 280.749 312.759 280.963 312.884L309.869 329.623C309.981 329.689 310.062 329.798 310.092 329.925C310.121 330.053 310.096 330.186 310.024 330.293L305.383 337.203C305.293 337.337 305.145 337.412 304.992 337.412ZM276.758 320.046L304.847 336.313L308.963 330.184L280.874 313.917L276.758 320.046Z" fill="#1A1A1A"/>
<path d="M293.161 126.741C293.104 126.741 293.044 126.731 292.987 126.707C291.189 125.987 289.223 124.807 289.14 124.758C288.917 124.625 288.845 124.336 288.981 124.112C289.115 123.889 289.404 123.817 289.627 123.953C289.646 123.966 291.61 125.143 293.337 125.834C293.58 125.929 293.696 126.203 293.599 126.446C293.524 126.631 293.348 126.741 293.161 126.741Z" fill="#1A1A1A"/>
<path d="M311.14 154.135L318.297 158.228C318.89 158.568 319.646 158.358 319.984 157.761L342.095 118.802C342.474 118.137 342.244 117.291 341.583 116.913L323.446 106.54L311.142 154.135H311.14Z" fill="white"/>
<path d="M311.14 154.135L318.297 158.228C318.646 158.428 319.049 158.436 319.391 158.292C319.391 158.292 319.965 158.031 320.601 156.915C321.147 155.954 341.934 119.085 341.934 119.085C342.391 118.277 342.162 117.433 341.501 117.055L323.363 106.683L311.138 154.135H311.14Z" fill="white"/>
<path d="M318.902 158.861C318.611 158.861 318.324 158.785 318.063 158.636L310.906 154.543C310.68 154.414 310.602 154.127 310.731 153.902C310.861 153.676 311.148 153.598 311.373 153.727L318.53 157.82C318.739 157.939 318.983 157.954 319.206 157.858C319.206 157.858 319.665 157.605 320.192 156.681C320.732 155.733 341.318 119.223 341.526 118.853C341.84 118.3 341.734 117.729 341.269 117.463L323.131 107.091C322.906 106.961 322.827 106.674 322.957 106.449C323.087 106.224 323.373 106.145 323.599 106.275L341.736 116.647C342.65 117.17 342.911 118.317 342.344 119.318C342.136 119.686 321.55 156.199 321.01 157.149C320.318 158.362 319.659 158.687 319.587 158.721C319.363 158.817 319.132 158.864 318.904 158.864L318.902 158.861Z" fill="#1A1A1A"/>
<path d="M331.07 131.274L309.855 155.857C309.558 156.203 309.059 156.29 308.663 156.063L266.84 132.145C266.319 131.848 266.2 131.144 266.593 130.687L298.763 93.4137C299.06 93.0673 299.559 92.9802 299.955 93.2076L341.778 117.125C342.299 117.423 342.418 118.126 342.025 118.583L333.212 128.809L331.072 131.274H331.07Z" fill="white"/>
<path d="M309.131 156.658C308.891 156.658 308.649 156.596 308.43 156.471L266.606 132.553C266.237 132.341 265.984 131.979 265.909 131.556C265.837 131.134 265.956 130.704 266.234 130.379L298.404 93.1056C298.848 92.5892 299.596 92.4617 300.185 92.7974L342.008 116.715C342.378 116.928 342.631 117.289 342.705 117.712C342.777 118.135 342.658 118.564 342.38 118.889L333.567 129.115C333.397 129.312 333.1 129.334 332.904 129.164C332.707 128.994 332.685 128.696 332.855 128.501L341.668 118.275C341.764 118.164 341.804 118.016 341.778 117.871C341.764 117.786 341.715 117.631 341.543 117.533L299.719 93.6156C299.522 93.5029 299.269 93.5454 299.118 93.7218L266.948 130.995C266.853 131.106 266.813 131.253 266.838 131.399C266.853 131.484 266.902 131.639 267.074 131.737L308.897 155.655C309.095 155.767 309.348 155.723 309.499 155.548L330.715 130.966C330.885 130.768 331.183 130.747 331.378 130.917C331.576 131.087 331.597 131.384 331.427 131.58L310.213 156.163C309.934 156.486 309.537 156.658 309.133 156.658H309.131Z" fill="#1A1A1A"/>
<path d="M302.022 153.068C301.976 153.077 301.933 153.085 301.891 153.094L302.022 153.068Z" fill="#1A1A1A"/>
<path d="M291.959 106.719L299.93 111.279L294.175 117.945L286.204 113.387L291.959 106.719Z" fill="white"/>
<path d="M294.175 118.417C294.095 118.417 294.016 118.396 293.942 118.356L285.971 113.797C285.849 113.727 285.764 113.606 285.741 113.468C285.718 113.33 285.756 113.187 285.849 113.081L291.604 106.413C291.751 106.243 291.999 106.2 292.195 106.311L300.166 110.869C300.287 110.939 300.372 111.06 300.396 111.198C300.419 111.337 300.381 111.479 300.287 111.585L294.532 118.254C294.441 118.36 294.309 118.417 294.175 118.417ZM286.933 113.264L294.073 117.346L299.201 111.405L292.061 107.322L286.933 113.264Z" fill="#1A1A1A"/>
<path d="M284.937 114.828L292.909 119.388L287.154 126.055L279.181 121.496L284.937 114.828Z" fill="white"/>
<path d="M287.154 126.527C287.073 126.527 286.995 126.505 286.92 126.465L278.949 121.907C278.828 121.836 278.743 121.715 278.72 121.577C278.696 121.439 278.734 121.297 278.828 121.19L284.583 114.522C284.729 114.352 284.976 114.309 285.173 114.42L293.145 118.978C293.266 119.048 293.351 119.17 293.374 119.308C293.397 119.446 293.359 119.588 293.266 119.694L287.511 126.363C287.42 126.469 287.288 126.527 287.154 126.527ZM279.912 121.371L287.052 125.453L292.18 119.512L285.04 115.429L279.912 121.371Z" fill="#1A1A1A"/>
<path d="M301.547 112.203L309.52 116.762L303.763 123.43L295.792 118.872L301.547 112.203Z" fill="white"/>
<path d="M303.763 123.9C303.683 123.9 303.604 123.879 303.53 123.838L295.558 119.28C295.437 119.21 295.352 119.089 295.329 118.951C295.306 118.813 295.344 118.67 295.437 118.564L301.192 111.895C301.339 111.725 301.585 111.683 301.783 111.793L309.754 116.352C309.875 116.422 309.96 116.543 309.983 116.681C310.007 116.819 309.969 116.962 309.875 117.068L304.12 123.736C304.029 123.843 303.897 123.9 303.763 123.9ZM296.521 118.747L303.661 122.829L308.789 116.887L301.649 112.805L296.521 118.747Z" fill="#1A1A1A"/>
<path d="M294.525 120.313L302.496 124.871L296.742 131.539L288.771 126.981L294.525 120.313Z" fill="white"/>
<path d="M296.742 132.009C296.661 132.009 296.582 131.988 296.508 131.948L288.537 127.389C288.416 127.319 288.331 127.198 288.307 127.06C288.284 126.922 288.322 126.779 288.416 126.673L294.171 120.005C294.317 119.835 294.566 119.792 294.761 119.903L302.732 124.461C302.854 124.531 302.939 124.652 302.962 124.79C302.985 124.928 302.947 125.071 302.854 125.177L297.099 131.846C297.007 131.952 296.876 132.009 296.742 132.009ZM289.5 126.854L296.64 130.936L301.768 124.994L294.627 120.912L289.5 126.854Z" fill="#1A1A1A"/>
<path d="M311.138 117.686L319.109 122.244L313.352 128.913L305.381 124.355L311.138 117.686Z" fill="white"/>
<path d="M313.352 129.385C313.271 129.385 313.193 129.363 313.118 129.323L305.147 124.765C305.026 124.695 304.941 124.574 304.918 124.435C304.894 124.297 304.933 124.155 305.026 124.049L310.783 117.38C310.93 117.21 311.178 117.168 311.374 117.278L319.345 121.836C319.466 121.907 319.551 122.028 319.574 122.166C319.598 122.304 319.56 122.446 319.466 122.553L313.711 129.221C313.62 129.327 313.488 129.385 313.354 129.385H313.352ZM306.11 124.229L313.25 128.311L318.378 122.37L311.24 118.288L306.11 124.229Z" fill="#1A1A1A"/>
<path d="M304.114 125.795L312.085 130.354L306.33 137.022L298.359 132.464L304.114 125.795Z" fill="white"/>
<path d="M306.331 137.494C306.25 137.494 306.171 137.473 306.097 137.432L298.126 132.874C298.005 132.804 297.92 132.683 297.896 132.545C297.873 132.406 297.911 132.264 298.005 132.158L303.759 125.489C303.906 125.319 304.155 125.277 304.35 125.387L312.321 129.946C312.442 130.016 312.527 130.137 312.551 130.275C312.574 130.413 312.536 130.556 312.442 130.662L306.688 137.33C306.596 137.437 306.465 137.494 306.331 137.494ZM299.089 132.341L306.229 136.423L311.357 130.481L304.216 126.399L299.089 132.341Z" fill="#1A1A1A"/>
<path d="M320.726 123.169L328.697 127.729L322.942 134.398L314.969 129.837L320.726 123.169Z" fill="white"/>
<path d="M322.94 134.867C322.859 134.867 322.781 134.846 322.706 134.806L314.735 130.247C314.614 130.177 314.529 130.056 314.506 129.918C314.482 129.78 314.521 129.638 314.614 129.531L320.369 122.863C320.515 122.693 320.762 122.65 320.96 122.761L328.931 127.319C329.052 127.389 329.137 127.51 329.16 127.648C329.184 127.787 329.145 127.929 329.052 128.035L323.297 134.704C323.206 134.81 323.074 134.867 322.94 134.867ZM315.698 129.714L322.836 133.796L327.964 127.855L320.824 123.772L315.696 129.714H315.698Z" fill="#1A1A1A"/>
<path d="M313.702 131.28L321.673 135.839L315.918 142.507L307.947 137.947L313.702 131.28Z" fill="white"/>
<path d="M315.919 142.977C315.838 142.977 315.759 142.955 315.685 142.915L307.714 138.357C307.593 138.287 307.508 138.166 307.484 138.027C307.461 137.889 307.499 137.747 307.593 137.641L313.347 130.972C313.494 130.802 313.74 130.76 313.938 130.87L321.909 135.428C322.03 135.499 322.115 135.62 322.139 135.758C322.162 135.896 322.124 136.038 322.03 136.145L316.276 142.813C316.184 142.919 316.053 142.977 315.919 142.977ZM308.676 137.823L315.817 141.906L320.944 135.964L313.804 131.882L308.676 137.823Z" fill="#1A1A1A"/>
<path d="M303.385 100.146C303.306 100.146 303.225 100.127 303.151 100.084C300.971 98.8368 300.21 96.0381 301.455 93.8451C302.061 92.7783 303.042 92.0133 304.222 91.6902C305.393 91.3694 306.619 91.5245 307.673 92.1259C307.754 92.1726 307.835 92.2215 307.911 92.2725C308.128 92.4149 308.189 92.706 308.047 92.9249C307.905 93.1417 307.614 93.2033 307.395 93.0609C307.333 93.0205 307.271 92.9823 307.206 92.9462C306.37 92.468 305.401 92.3469 304.473 92.5998C303.538 92.8569 302.758 93.4647 302.277 94.3104C301.287 96.0551 301.891 98.2779 303.623 99.2682C303.848 99.3979 303.927 99.6847 303.797 99.91C303.71 100.063 303.55 100.148 303.389 100.148L303.385 100.146Z" fill="#1A1A1A"/>
<path d="M308.755 103.217C308.676 103.217 308.595 103.197 308.521 103.155C306.341 101.908 305.58 99.1088 306.825 96.9157C307.431 95.849 308.413 95.0839 309.592 94.7609C310.763 94.44 311.989 94.5952 313.043 95.1966C313.124 95.2433 313.203 95.2922 313.281 95.3411C313.498 95.4834 313.56 95.7746 313.417 95.9935C313.275 96.2102 312.984 96.2718 312.765 96.1295C312.703 96.0891 312.639 96.0508 312.576 96.0147C311.74 95.5366 310.769 95.4133 309.841 95.6683C308.906 95.9255 308.126 96.5332 307.645 97.379C306.655 99.1216 307.259 101.347 308.991 102.337C309.216 102.466 309.295 102.753 309.165 102.979C309.078 103.132 308.918 103.217 308.757 103.217H308.755Z" fill="#1A1A1A"/>
<path d="M314.125 106.287C314.046 106.287 313.965 106.268 313.891 106.226C311.711 104.978 310.95 102.18 312.195 99.9865C312.801 98.9198 313.783 98.1547 314.96 97.8317C316.131 97.5108 317.357 97.666 318.411 98.2674C318.492 98.3141 318.57 98.363 318.649 98.4119C318.866 98.5542 318.928 98.8454 318.785 99.0643C318.643 99.281 318.352 99.3426 318.133 99.2003C318.071 99.1599 318.007 99.1216 317.944 99.0834C317.108 98.6053 316.137 98.4841 315.211 98.737C314.276 98.9941 313.496 99.6019 313.016 100.448C312.025 102.192 312.629 104.415 314.361 105.405C314.586 105.535 314.665 105.822 314.535 106.047C314.448 106.2 314.288 106.285 314.127 106.285L314.125 106.287Z" fill="#1A1A1A"/>
<path d="M319.493 109.358C319.414 109.358 319.334 109.339 319.259 109.296C317.079 108.049 316.318 105.25 317.563 103.057C318.169 101.99 319.151 101.225 320.328 100.902C321.499 100.582 322.725 100.737 323.779 101.338C323.86 101.385 323.939 101.434 324.017 101.485C324.234 101.627 324.296 101.918 324.153 102.137C324.011 102.354 323.72 102.415 323.501 102.273C323.439 102.233 323.378 102.194 323.312 102.158C322.477 101.68 321.505 101.557 320.577 101.812C319.642 102.069 318.862 102.677 318.382 103.523C317.391 105.267 317.995 107.49 319.727 108.48C319.952 108.61 320.031 108.897 319.901 109.122C319.814 109.275 319.655 109.36 319.493 109.36V109.358Z" fill="#1A1A1A"/>
<path d="M324.862 112.429C324.784 112.429 324.703 112.41 324.628 112.367C322.448 111.12 321.687 108.321 322.933 106.128C323.538 105.061 324.52 104.296 325.697 103.973C326.868 103.652 328.094 103.807 329.148 104.409C329.229 104.455 329.308 104.504 329.386 104.553C329.603 104.696 329.665 104.987 329.522 105.206C329.38 105.422 329.089 105.484 328.87 105.342C328.808 105.301 328.745 105.263 328.681 105.225C327.846 104.747 326.875 104.623 325.946 104.878C325.011 105.135 324.231 105.743 323.751 106.589C322.76 108.334 323.364 110.557 325.096 111.547C325.321 111.676 325.4 111.963 325.27 112.189C325.183 112.339 325.024 112.427 324.862 112.427V112.429Z" fill="#1A1A1A"/>
<path d="M330.23 115.5C330.152 115.5 330.071 115.48 329.997 115.438C327.816 114.19 327.055 111.392 328.301 109.199C328.906 108.132 329.888 107.367 331.065 107.044C332.236 106.723 333.463 106.878 334.517 107.48C334.597 107.526 334.676 107.575 334.755 107.624C334.971 107.766 335.033 108.058 334.891 108.276C334.748 108.493 334.457 108.555 334.238 108.412C334.177 108.372 334.113 108.334 334.049 108.296C333.214 107.817 332.243 107.696 331.314 107.949C330.379 108.206 329.599 108.814 329.119 109.66C328.129 111.405 328.732 113.627 330.464 114.618C330.689 114.747 330.768 115.034 330.638 115.259C330.551 115.412 330.392 115.497 330.23 115.497V115.5Z" fill="#1A1A1A"/>
<path d="M335.295 118.394C335.216 118.394 335.135 118.375 335.061 118.332C332.881 117.085 332.12 114.286 333.365 112.093C333.971 111.026 334.953 110.261 336.132 109.938C337.303 109.617 338.529 109.772 339.583 110.374C340.962 111.162 341.821 112.588 341.876 114.186C341.885 114.445 341.683 114.664 341.421 114.673C341.149 114.686 340.943 114.479 340.935 114.218C340.89 112.947 340.21 111.817 339.114 111.19C338.278 110.712 337.307 110.591 336.381 110.843C335.446 111.101 334.666 111.708 334.185 112.554C333.195 114.299 333.799 116.522 335.531 117.512C335.756 117.642 335.835 117.928 335.705 118.154C335.618 118.307 335.458 118.392 335.297 118.392L335.295 118.394Z" fill="#1A1A1A"/>
<path d="M124.25 352.004C124.25 352.004 107.974 316.331 117.312 270.085C117.312 270.085 142.537 291.221 133.443 352.004H124.253H124.25Z" fill="white"/>
<path d="M133.441 352.474H124.25C124.065 352.474 123.899 352.366 123.823 352.198C123.659 351.839 107.592 315.855 116.851 269.99C116.882 269.826 116.999 269.694 117.157 269.639C117.314 269.584 117.488 269.616 117.614 269.722C117.875 269.941 124.069 275.23 129.223 288.074C133.962 299.881 138.62 320.568 133.906 352.072C133.872 352.302 133.675 352.474 133.441 352.474ZM124.558 351.533H133.035C137.61 320.511 133.035 300.14 128.379 288.499C124.233 278.137 119.294 272.673 117.607 271.007C109.179 314.07 123.1 348.141 124.558 351.533Z" fill="#1A1A1A"/>
<path d="M128.23 348.755C128.23 348.755 128.213 348.755 128.205 348.755C127.945 348.74 127.746 348.519 127.761 348.26C129.006 325.452 118.723 276.768 118.619 276.28C118.565 276.025 118.727 275.776 118.982 275.721C119.235 275.668 119.486 275.829 119.541 276.084C119.645 276.575 129.956 325.377 128.702 348.311C128.689 348.562 128.481 348.755 128.232 348.755H128.23Z" fill="#1A1A1A"/>
<path d="M143.104 294.175C143.104 294.175 122.136 332.061 134.748 348.453H141.495C141.495 348.453 154.979 318.838 143.104 294.175Z" fill="white"/>
<path d="M141.495 348.925H134.748C134.601 348.925 134.463 348.857 134.374 348.742C129.042 341.815 128.832 330.471 133.745 315.026C137.383 303.593 142.636 294.045 142.689 293.95C142.774 293.797 142.936 293.701 143.114 293.707C143.291 293.712 143.448 293.816 143.524 293.973C155.359 318.551 142.056 348.353 141.92 348.651C141.843 348.819 141.675 348.927 141.491 348.927L141.495 348.925ZM134.982 347.984H141.187C142.477 344.968 153.442 317.978 143.076 295.227C140.152 300.811 123.995 333.257 134.982 347.984Z" fill="#1A1A1A"/>
<path d="M137.897 349.928C137.647 349.928 137.436 349.728 137.428 349.475C136.82 333.835 142.08 299.808 142.133 299.466C142.173 299.209 142.413 299.035 142.67 299.073C142.927 299.114 143.104 299.354 143.063 299.611C143.01 299.951 137.766 333.89 138.369 349.439C138.38 349.699 138.178 349.917 137.917 349.928C137.91 349.928 137.904 349.928 137.897 349.928Z" fill="#1A1A1A"/>
<path d="M100.59 308.13C100.59 308.13 118.453 314.225 124.92 350.306H117.894C117.894 350.306 103.231 330.49 100.59 308.13Z" fill="white"/>
<path d="M124.92 350.776H117.894C117.746 350.776 117.605 350.706 117.516 350.585C117.369 350.385 102.749 330.412 100.122 308.185C100.103 308.024 100.169 307.867 100.295 307.765C100.42 307.663 100.59 307.633 100.743 307.686C100.93 307.75 105.388 309.32 110.686 315.379C115.538 320.929 122.025 331.478 125.385 350.223C125.411 350.362 125.372 350.502 125.283 350.608C125.194 350.714 125.062 350.776 124.922 350.776H124.92ZM118.134 349.835H124.357C118.691 319.066 104.521 310.512 101.159 308.891C103.858 329.385 116.658 347.771 118.134 349.835Z" fill="#1A1A1A"/>
<path d="M121.08 349.758C120.853 349.758 120.655 349.595 120.617 349.365C117.958 333.295 106.453 317.115 106.336 316.954C106.185 316.743 106.232 316.448 106.445 316.297C106.657 316.146 106.95 316.193 107.101 316.405C107.218 316.569 118.851 332.93 121.545 349.212C121.588 349.469 121.414 349.711 121.159 349.754C121.133 349.758 121.108 349.76 121.082 349.76L121.08 349.758Z" fill="#1A1A1A"/>
<path d="M107.481 347.442H151.551L152.539 368.286C152.781 373.397 148.703 377.673 143.586 377.673H118.417C112.362 377.673 107.458 372.762 107.462 366.708L107.479 347.44L107.481 347.442Z" fill="#1A1A1A"/>
<path d="M206.894 18.5582H195.349V148.463H206.894V18.5582Z" fill="white"/>
<path d="M195.349 148.933C195.089 148.933 194.879 148.723 194.879 148.463V18.5581C194.879 18.2989 195.089 18.0885 195.349 18.0885C195.608 18.0885 195.818 18.2989 195.818 18.5581V148.463C195.818 148.723 195.608 148.933 195.349 148.933Z" fill="#1A1A1A"/>
<path d="M206.894 148.933C206.635 148.933 206.425 148.723 206.425 148.463V18.5581C206.425 18.2989 206.635 18.0885 206.894 18.0885C207.154 18.0885 207.364 18.2989 207.364 18.5581V148.463C207.364 148.723 207.154 148.933 206.894 148.933Z" fill="#1A1A1A"/>
<path d="M242.737 54.8607L288.826 68.2656L321.537 31.8845L242.737 54.8607Z" fill="white"/>
<path d="M288.826 68.7353C288.781 68.7353 288.739 68.7289 288.694 68.7161L242.606 55.3112C242.404 55.2539 242.266 55.069 242.266 54.8586C242.266 54.6482 242.404 54.4654 242.606 54.4059L321.405 31.4297C321.607 31.3702 321.824 31.4531 321.934 31.6316C322.047 31.8101 322.026 32.0396 321.885 32.1969L289.174 68.5759C289.083 68.6758 288.955 68.731 288.824 68.731L288.826 68.7353ZM244.42 54.8607L288.673 67.7301L320.081 32.7983L244.42 54.8586V54.8607Z" fill="#1A1A1A"/>
<path d="M265.7 76.4896L259.268 59.6697L310.199 38.1959L267.368 62.0243L277.003 64.8272L265.7 76.4896Z" fill="white"/>
<path d="M265.701 76.9593C265.669 76.9593 265.637 76.9572 265.607 76.9487C265.45 76.9168 265.32 76.8063 265.263 76.6554L258.83 59.8355C258.739 59.5975 258.854 59.3319 259.087 59.2341L310.019 37.7603C310.25 37.6626 310.516 37.7625 310.624 37.9877C310.735 38.213 310.648 38.4829 310.431 38.6061L268.586 61.8862L277.138 64.3725C277.297 64.4193 277.418 64.5447 277.461 64.704C277.503 64.8634 277.459 65.0334 277.344 65.1524L266.041 76.8148C265.951 76.9062 265.828 76.9572 265.703 76.9572L265.701 76.9593ZM259.872 59.9248L265.877 75.6311L276.122 65.0611L267.239 62.477C267.056 62.4238 266.925 62.2666 266.903 62.0775C266.882 61.8883 266.976 61.7056 267.141 61.6142L302.413 41.9913L259.872 59.9269V59.9248Z" fill="#1A1A1A"/>
<path d="M266.287 71.8804C266.268 71.8804 266.251 71.8804 266.232 71.8782C265.975 71.8485 265.788 71.6147 265.818 71.3576L266.901 61.9733C266.931 61.714 267.165 61.5313 267.422 61.5589C267.679 61.5887 267.866 61.8224 267.836 62.0796L266.753 71.4638C266.725 71.704 266.521 71.8804 266.285 71.8804H266.287Z" fill="#1A1A1A"/>
<path d="M171.374 379.745C168.218 379.745 165.026 379.658 161.887 379.488C161.628 379.473 161.428 379.252 161.443 378.993C161.458 378.733 161.681 378.536 161.938 378.548C165.06 378.718 168.235 378.806 171.374 378.806C187.603 378.806 203.658 376.528 219.09 372.035C219.338 371.963 219.6 372.105 219.672 372.356C219.744 372.605 219.602 372.866 219.351 372.94C203.832 377.458 187.69 379.747 171.371 379.747L171.374 379.745Z" fill="#1A1A1A"/>
<path d="M269.297 348.927C269.148 348.927 269.002 348.857 268.91 348.728C268.762 348.515 268.813 348.222 269.025 348.073C273.649 344.834 278.165 341.324 282.449 337.641C282.647 337.471 282.944 337.494 283.112 337.69C283.28 337.885 283.259 338.185 283.061 338.353C278.756 342.057 274.215 345.587 269.565 348.842C269.482 348.9 269.388 348.927 269.295 348.927H269.297Z" fill="#1A1A1A"/>
<path d="M116.878 46.811C116.681 46.811 116.498 46.6877 116.432 46.4901C116.349 46.2436 116.481 45.9758 116.727 45.893C134.287 39.9895 152.673 36.9974 171.371 36.9974C174.446 36.9974 177.557 37.0803 180.617 37.2418C180.877 37.2546 181.076 37.4777 181.062 37.737C181.049 37.9962 180.826 38.196 180.566 38.1811C177.523 38.0196 174.429 37.9367 171.369 37.9367C152.771 37.9367 134.487 40.9139 117.025 46.7834C116.976 46.8004 116.925 46.8089 116.874 46.8089L116.878 46.811Z" fill="#1A1A1A"/>
<path d="M102.719 52.2873C102.538 52.2873 102.366 52.1832 102.288 52.0068C102.184 51.7688 102.292 51.4904 102.53 51.3863C104.51 50.5171 106.536 49.6735 108.546 48.8808C108.788 48.7852 109.06 48.9042 109.156 49.1465C109.251 49.3887 109.132 49.6607 108.89 49.7563C106.891 50.5447 104.878 51.382 102.908 52.249C102.847 52.2767 102.783 52.2894 102.719 52.2894V52.2873Z" fill="#1A1A1A"/>
<path d="M5.89488 165.963C5.85663 165.963 5.81625 165.959 5.778 165.948C5.52724 165.883 5.37424 165.628 5.44012 165.375C8.86147 152.136 13.8873 139.307 20.3815 127.245C20.5047 127.015 20.7895 126.93 21.019 127.053C21.2485 127.177 21.3335 127.461 21.2102 127.691C14.7522 139.687 9.75187 152.444 6.35177 165.611C6.29652 165.823 6.10526 165.963 5.897 165.963H5.89488Z" fill="#1A1A1A"/>
<path d="M18.4307 285.188C18.2586 285.188 18.0907 285.092 18.0099 284.929C6.05856 261.035 0 235.279 0 208.371C0 196.093 1.30479 183.837 3.87824 171.945C3.9335 171.69 4.18425 171.531 4.43714 171.584C4.69214 171.639 4.85365 171.89 4.7984 172.143C2.23769 183.969 0.941404 196.158 0.941404 208.369C0.941404 235.13 6.96596 260.746 18.8515 284.506C18.9683 284.738 18.8727 285.02 18.6411 285.137C18.5731 285.171 18.5008 285.186 18.4307 285.186V285.188Z" fill="#1A1A1A"/>
<path d="M35.0872 134.202C35.0043 134.202 34.9215 134.181 34.845 134.134C34.6218 134 34.5496 133.711 34.6835 133.488C40.5423 123.751 47.4997 114.637 55.3646 106.398C55.5431 106.209 55.8427 106.202 56.0297 106.383C56.2167 106.564 56.2252 106.861 56.0446 107.048C48.2265 115.236 41.3115 124.295 35.4889 133.973C35.3996 134.119 35.2445 134.2 35.0851 134.2L35.0872 134.202Z" fill="#1A1A1A"/>
<path d="M26.7947 276.652C26.6162 276.652 26.4441 276.55 26.3655 276.375C17.3063 256.366 12.7119 234.994 12.7119 212.853C12.7119 187.983 18.4517 164.242 29.7719 142.29C29.8909 142.059 30.1736 141.969 30.4052 142.088C30.6368 142.207 30.7261 142.492 30.6071 142.722C19.357 164.54 13.6533 188.136 13.6533 212.855C13.6533 234.862 18.218 256.102 27.2219 275.989C27.3281 276.225 27.2219 276.505 26.9881 276.611C26.9244 276.639 26.8585 276.654 26.7947 276.654V276.652Z" fill="#1A1A1A"/>
<path d="M259.859 350.215C259.743 350.215 259.626 350.173 259.534 350.083C259.347 349.903 259.341 349.605 259.519 349.418L261.251 347.61C261.432 347.423 261.729 347.416 261.916 347.595C262.103 347.775 262.11 348.073 261.931 348.26L260.199 350.068C260.108 350.164 259.983 350.213 259.859 350.213V350.215Z" fill="#1A1A1A"/>
<path d="M253.799 356.544C253.682 356.544 253.565 356.501 253.474 356.412C253.287 356.231 253.28 355.934 253.459 355.747L255.191 353.938C255.371 353.751 255.669 353.745 255.856 353.923C256.043 354.104 256.049 354.401 255.871 354.588L254.139 356.397C254.047 356.493 253.922 356.541 253.799 356.541V356.544Z" fill="#1A1A1A"/>
<path d="M255.496 350.313C255.377 350.313 255.258 350.268 255.167 350.177L253.41 348.447C253.225 348.264 253.223 347.967 253.405 347.782C253.588 347.597 253.886 347.595 254.07 347.778L255.828 349.507C256.013 349.69 256.015 349.988 255.832 350.173C255.741 350.266 255.617 350.313 255.496 350.313Z" fill="#1A1A1A"/>
<path d="M261.651 356.367C261.532 356.367 261.413 356.322 261.321 356.231L259.564 354.501C259.379 354.319 259.377 354.021 259.56 353.836C259.742 353.651 260.04 353.649 260.225 353.832L261.982 355.562C262.167 355.744 262.169 356.042 261.986 356.227C261.895 356.32 261.772 356.367 261.651 356.367Z" fill="#1A1A1A"/>
<path d="M332.855 176.179C332.739 176.179 332.622 176.136 332.53 176.047C332.343 175.866 332.337 175.569 332.515 175.382L334.247 173.573C334.428 173.386 334.726 173.38 334.913 173.558C335.1 173.739 335.106 174.036 334.927 174.223L333.196 176.032C333.104 176.128 332.979 176.176 332.855 176.176V176.179Z" fill="#1A1A1A"/>
<path d="M326.795 182.505C326.678 182.505 326.561 182.462 326.47 182.373C326.283 182.192 326.276 181.895 326.455 181.708L328.187 179.9C328.367 179.712 328.665 179.706 328.852 179.885C329.039 180.065 329.045 180.363 328.867 180.55L327.135 182.358C327.044 182.454 326.918 182.503 326.795 182.503V182.505Z" fill="#1A1A1A"/>
<path d="M328.492 176.274C328.373 176.274 328.254 176.23 328.163 176.138L326.406 174.408C326.221 174.226 326.219 173.928 326.401 173.743C326.584 173.558 326.882 173.556 327.067 173.739L328.824 175.469C329.009 175.652 329.011 175.949 328.828 176.134C328.737 176.227 328.614 176.274 328.492 176.274Z" fill="#1A1A1A"/>
<path d="M334.647 182.331C334.528 182.331 334.409 182.286 334.317 182.195L332.56 180.465C332.375 180.282 332.373 179.985 332.556 179.8C332.738 179.615 333.036 179.613 333.221 179.795L334.978 181.525C335.163 181.708 335.165 182.005 334.982 182.19C334.891 182.284 334.768 182.331 334.647 182.331Z" fill="#1A1A1A"/>
<path d="M143.013 155.986C142.883 155.986 142.754 155.933 142.66 155.827C141.392 154.399 140.491 152.663 139.981 150.667C139.917 150.414 140.068 150.159 140.321 150.096C140.573 150.032 140.828 150.183 140.892 150.436C141.364 152.284 142.197 153.889 143.364 155.204C143.536 155.398 143.519 155.695 143.323 155.869C143.234 155.948 143.121 155.988 143.011 155.988L143.013 155.986ZM139.991 145.416C139.991 145.416 139.97 145.416 139.961 145.416C139.702 145.399 139.505 145.176 139.522 144.917C139.634 143.151 139.951 141.251 140.465 139.264C140.531 139.013 140.786 138.86 141.039 138.926C141.29 138.992 141.443 139.249 141.377 139.5C140.877 141.427 140.569 143.27 140.461 144.976C140.446 145.225 140.238 145.416 139.991 145.416ZM142.701 134.493C142.643 134.493 142.584 134.483 142.524 134.459C142.284 134.362 142.167 134.087 142.263 133.847C142.954 132.128 143.761 130.39 144.662 128.681C144.783 128.452 145.068 128.362 145.297 128.484C145.527 128.605 145.616 128.889 145.495 129.119C144.609 130.8 143.814 132.508 143.136 134.198C143.062 134.381 142.886 134.493 142.699 134.493H142.701ZM147.962 124.512C147.873 124.512 147.782 124.486 147.701 124.433C147.484 124.289 147.427 123.998 147.571 123.781C148.438 122.48 149.305 121.318 150.145 120.321C150.449 119.96 150.755 119.607 151.067 119.263C151.241 119.07 151.539 119.055 151.732 119.229C151.926 119.403 151.94 119.701 151.766 119.894C151.462 120.232 151.161 120.578 150.863 120.929C150.047 121.898 149.201 123.035 148.353 124.306C148.262 124.442 148.113 124.514 147.962 124.514V124.512ZM155.464 116.12C155.33 116.12 155.198 116.063 155.105 115.954C154.937 115.757 154.962 115.459 155.16 115.291C156.596 114.076 158.141 112.937 159.752 111.904C159.971 111.764 160.262 111.827 160.402 112.046C160.543 112.265 160.479 112.556 160.26 112.696C158.683 113.706 157.172 114.822 155.768 116.009C155.678 116.084 155.572 116.12 155.464 116.12ZM164.935 110.03C164.759 110.03 164.591 109.932 164.51 109.762C164.398 109.528 164.497 109.245 164.731 109.135C166.393 108.338 168.163 107.607 169.991 106.961C170.235 106.874 170.505 107.003 170.592 107.248C170.679 107.492 170.55 107.762 170.305 107.849C168.51 108.485 166.771 109.203 165.139 109.985C165.073 110.017 165.005 110.032 164.935 110.032V110.03ZM175.55 106.247C175.34 106.247 175.148 106.105 175.093 105.892C175.029 105.639 175.182 105.384 175.433 105.32C177.197 104.872 179.065 104.472 180.986 104.132C181.241 104.088 181.485 104.258 181.532 104.515C181.577 104.77 181.407 105.014 181.149 105.061C179.252 105.397 177.405 105.79 175.665 106.234C175.626 106.245 175.586 106.249 175.548 106.249L175.55 106.247ZM186.655 104.256C186.42 104.256 186.216 104.079 186.188 103.839C186.158 103.58 186.343 103.348 186.6 103.316C188.385 103.11 190.285 102.934 192.247 102.798C192.506 102.779 192.731 102.974 192.748 103.236C192.767 103.495 192.572 103.72 192.312 103.737C190.364 103.873 188.479 104.045 186.709 104.251C186.689 104.251 186.672 104.254 186.653 104.254L186.655 104.256ZM226.163 103.62H226.158C224.042 103.601 222.023 103.546 220.501 103.501C220.242 103.493 220.038 103.276 220.044 103.017C220.053 102.758 220.263 102.558 220.529 102.56C222.046 102.605 224.057 102.66 226.167 102.679C226.426 102.681 226.636 102.894 226.632 103.155C226.63 103.414 226.42 103.62 226.163 103.62ZM231.811 103.571C231.558 103.571 231.348 103.37 231.341 103.115C231.333 102.855 231.539 102.639 231.798 102.63C233.811 102.571 235.649 102.466 237.415 102.309C237.676 102.286 237.901 102.477 237.925 102.736C237.948 102.996 237.757 103.223 237.498 103.246C235.715 103.404 233.86 103.51 231.828 103.569C231.824 103.569 231.819 103.569 231.813 103.569L231.811 103.571ZM197.925 103.446C197.672 103.446 197.464 103.246 197.455 102.991C197.447 102.732 197.648 102.513 197.908 102.505C199.654 102.443 201.505 102.398 203.567 102.371H203.573C203.83 102.371 204.041 102.577 204.043 102.836C204.047 103.095 203.839 103.31 203.577 103.312C201.525 103.34 199.68 103.382 197.94 103.446C197.933 103.446 197.929 103.446 197.923 103.446H197.925ZM214.87 103.329C214.87 103.329 214.861 103.329 214.857 103.329C213.391 103.291 212.237 103.272 211.223 103.272L211.134 102.802V103.272L209.224 103.274C208.964 103.274 208.754 103.064 208.754 102.804C208.754 102.545 208.964 102.333 209.224 102.333H211.136L211.225 102.33C212.246 102.33 213.408 102.347 214.883 102.388C215.142 102.394 215.348 102.611 215.342 102.87C215.335 103.125 215.125 103.329 214.872 103.329H214.87ZM243.057 102.528C242.832 102.528 242.634 102.367 242.594 102.139C242.549 101.884 242.719 101.64 242.976 101.595C244.927 101.253 246.754 100.819 248.412 100.307C248.661 100.231 248.924 100.369 249.001 100.618C249.077 100.866 248.939 101.13 248.69 101.206C246.995 101.731 245.129 102.173 243.14 102.522C243.112 102.526 243.084 102.528 243.057 102.528ZM253.771 99.0961C253.604 99.0961 253.44 99.0047 253.355 98.8453C253.234 98.6158 253.321 98.331 253.55 98.2099C255.263 97.3025 256.772 96.2336 258.039 95.0351C258.228 94.8566 258.525 94.8651 258.704 95.0542C258.882 95.2433 258.874 95.5408 258.685 95.7193C257.356 96.9752 255.777 98.0952 253.99 99.0429C253.92 99.0812 253.844 99.0982 253.769 99.0982L253.771 99.0961ZM261.76 91.38C261.685 91.38 261.611 91.363 261.541 91.3247C261.311 91.2036 261.222 90.9188 261.345 90.6893C262.168 89.1316 262.767 87.3891 263.126 85.5105C263.175 85.2555 263.421 85.0876 263.676 85.1365C263.931 85.1854 264.099 85.4319 264.05 85.6869C263.672 87.6568 263.043 89.4865 262.178 91.1271C262.093 91.2865 261.932 91.3778 261.762 91.3778L261.76 91.38Z" fill="#1A1A1A"/>
</g>
<defs>
<clipPath id="clip0_118_3873">
<rect width="366" height="388.887" fill="white"/>
</clipPath>
</defs>
</svg>
